<svg width="21" height="21" viewBox="0 0 21 21" fill="none" xmlns="http://www.w3.org/2000/svg">
<path fill-rule="evenodd" clip-rule="evenodd" d="M14.4914 1.65749C15.8607 1.47172 17.3059 1.87955 18.5177 3.68594C20.3757 6.45568 19.1544 9.39556 17.835 11.1598C17.6559 11.3993 17.6896 11.751 17.9103 11.9453C18.1309 12.1397 18.455 12.1032 18.634 11.8637C20.04 9.98369 21.637 6.43833 19.3496 3.02852C17.8994 0.866679 16.0733 0.317263 14.3637 0.549196C12.6982 0.77516 11.1703 1.73413 10.1911 2.52665C9.96332 2.71104 9.91637 3.06094 10.0863 3.30819C10.2561 3.55543 10.5785 3.60639 10.8063 3.422C11.7195 2.68293 13.078 1.84924 14.4914 1.65749Z" fill="#121212"/>
<path fill-rule="evenodd" clip-rule="evenodd" d="M6.5062 1.65749C5.13687 1.47172 3.69165 1.87955 2.47989 3.68594C1.33975 5.38556 1.35921 7.1208 1.83783 8.62596C2.32379 10.1542 3.27952 11.4182 3.94503 12.0596C4.15752 12.2644 4.1768 12.6174 3.9881 12.848C3.7994 13.0786 3.47418 13.0995 3.2617 12.8947C2.49466 12.1554 1.42066 10.7377 0.865032 8.99034C0.302053 7.21988 0.268059 5.08553 1.64794 3.02852C3.09814 0.866679 4.92426 0.317263 6.63384 0.549196C8.29942 0.77516 9.82731 1.73413 10.8064 2.52665C11.0343 2.71104 11.0812 3.06094 10.9113 3.30819C10.7414 3.55543 10.419 3.60639 10.1912 3.422C9.27812 2.68293 7.91953 1.84924 6.5062 1.65749Z" fill="#121212"/>
<path fill-rule="evenodd" clip-rule="evenodd" d="M5.77471 11.2412L4.31435 12.8262C4.14068 13.0147 4.14068 13.3203 4.31435 13.5088C4.48802 13.6972 4.7696 13.6972 4.94327 13.5088L6.40362 11.9238C6.57729 11.7353 6.57729 11.4297 6.40362 11.2412C6.22995 11.0527 5.94838 11.0527 5.77471 11.2412ZM3.58667 12.0364C3.01111 12.6611 3.01111 13.6739 3.58667 14.2985C4.16223 14.9232 5.09539 14.9232 5.67095 14.2985L7.1313 12.7136C7.70686 12.0889 7.70686 11.0761 7.1313 10.4514C6.55575 9.82674 5.62258 9.82674 5.04702 10.4514L3.58667 12.0364Z" fill="#121212"/>
<path fill-rule="evenodd" clip-rule="evenodd" d="M7.55603 13.1269L6.09568 14.7119C5.92201 14.9003 5.92201 15.2059 6.09568 15.3944C6.26935 15.5829 6.55092 15.5829 6.72459 15.3944L8.18495 13.8095C8.35862 13.621 8.35862 13.3154 8.18495 13.1269C8.01128 12.9384 7.7297 12.9384 7.55603 13.1269ZM5.368 13.9221C4.79244 14.5467 4.79244 15.5595 5.368 16.1842C5.94355 16.8089 6.87672 16.8089 7.45227 16.1842L8.91263 14.5992C9.48819 13.9746 9.48819 12.9618 8.91263 12.3371C8.33707 11.7124 7.40391 11.7124 6.82835 12.3371L5.368 13.9221Z" fill="#121212"/>
<path fill-rule="evenodd" clip-rule="evenodd" d="M9.27616 15.0571L7.8158 16.642C7.64213 16.8305 7.64213 17.1361 7.8158 17.3246C7.98947 17.5131 8.27105 17.5131 8.44472 17.3246L9.90507 15.7396C10.0787 15.5511 10.0787 15.2455 9.90507 15.0571C9.7314 14.8686 9.44983 14.8686 9.27616 15.0571ZM7.08812 15.8523C6.51256 16.4769 6.51256 17.4897 7.08812 18.1144C7.66368 18.7391 8.59684 18.7391 9.1724 18.1144L10.6328 16.5294C11.2083 15.9047 11.2083 14.8919 10.6328 14.2673C10.0572 13.6426 9.12403 13.6426 8.54847 14.2673L7.08812 15.8523Z" fill="#121212"/>
<path fill-rule="evenodd" clip-rule="evenodd" d="M11.1007 16.9741L9.64034 18.5591C9.46667 18.7476 9.46667 19.0532 9.64034 19.2417C9.81401 19.4302 10.0956 19.4302 10.2693 19.2417L11.7296 17.6567C11.9033 17.4682 11.9033 17.1626 11.7296 16.9741C11.5559 16.7857 11.2744 16.7857 11.1007 16.9741ZM8.91266 17.7693C8.3371 18.394 8.3371 19.4068 8.91266 20.0315C9.48822 20.6562 10.4214 20.6562 10.9969 20.0315L12.4573 18.4465C13.0329 17.8218 13.0328 16.809 12.4573 16.1844C11.8817 15.5597 10.9486 15.5597 10.373 16.1844L8.91266 17.7693Z" fill="#121212"/>
<path fill-rule="evenodd" clip-rule="evenodd" d="M10.8824 2.5411C11.0866 2.7556 11.0919 3.10915 10.8943 3.33078L7.5661 7.06309C7.49909 7.13823 7.48246 7.2237 7.48868 7.27705C7.49158 7.30194 7.49868 7.31625 7.50396 7.32382C7.50812 7.32979 7.51793 7.34184 7.54524 7.35318C8.21216 7.62998 9.03335 7.68322 9.73342 6.9842C10.4665 6.25219 11.0316 5.68281 11.4226 5.2865C11.9506 4.75133 12.7776 4.76238 13.2909 5.31951L18.608 11.0904C18.8089 11.3084 18.8089 11.662 18.608 11.8801C18.407 12.0982 18.0812 12.0982 17.8803 11.8801L12.5632 6.10929C12.4445 5.98053 12.2502 5.97594 12.125 6.10282C11.7319 6.50118 11.165 7.07244 10.4302 7.80617C9.33819 8.89654 8.0544 8.76031 7.17766 8.39642C6.7573 8.22194 6.5163 7.83408 6.46772 7.41721C6.42074 7.01416 6.55139 6.59496 6.82662 6.28632L10.1548 2.55401C10.3524 2.33238 10.6782 2.3266 10.8824 2.5411ZM11.9957 8.42683C12.1969 8.20909 12.5227 8.20966 12.7233 8.4281L16.2698 12.2896C16.4911 12.5305 16.7419 12.8312 16.9216 13.1785C17.1042 13.5316 17.2305 13.9669 17.1499 14.4536C17.0457 15.0826 16.6789 15.5992 16.1331 15.8306C15.815 15.9654 15.4631 15.9928 15.1013 15.916C15.0373 16.2977 14.8831 16.6755 14.6182 16.9784C14.0866 17.5859 13.2461 17.7489 12.2101 17.3201C11.9446 17.2102 11.8114 16.8875 11.9127 16.5993C12.0139 16.3111 12.3113 16.1666 12.5768 16.2765C13.353 16.5977 13.7103 16.394 13.8719 16.2093C14.0482 16.0078 14.1296 15.6796 14.1029 15.3816L10.156 11.0771C9.95553 10.8585 9.95632 10.5049 10.1577 10.2873C10.3592 10.0698 10.685 10.0706 10.8854 10.2892L14.894 14.6609C15.2815 14.8792 15.5762 14.8676 15.7586 14.7902C15.9464 14.7106 16.0913 14.5318 16.1371 14.2559C16.1625 14.1022 16.1314 13.9324 16.0242 13.7254C15.9142 13.5125 15.7428 13.2979 15.5409 13.0781L11.9945 9.21661C11.7939 8.99817 11.7944 8.64457 11.9957 8.42683Z" fill="#121212"/>
<path fill-rule="evenodd" clip-rule="evenodd" d="M18.2952 10.9991C18.5793 10.9945 18.8131 11.2407 18.8174 11.5491C18.8321 12.611 18.4397 13.2991 17.8361 13.6396C17.2873 13.9493 16.6637 13.9132 16.2673 13.8074C15.9914 13.7337 15.8227 13.4312 15.8906 13.1317C15.9585 12.8322 16.2372 12.6491 16.5132 12.7228C16.7646 12.7899 17.1097 12.7907 17.3614 12.6486C17.5584 12.5375 17.7984 12.2853 17.7884 11.5659C17.7841 11.2575 18.011 11.0038 18.2952 10.9991Z" fill="#121212"/>
</svg>
