<svg width="21" height="21" viewBox="0 0 21 21" fill="none" xmlns="http://www.w3.org/2000/svg">
<path fill-rule="evenodd" clip-rule="evenodd" d="M16.3511 12.2021C16.7036 12.2021 16.9894 12.4879 16.9894 12.8404V15.7128H19.8617C20.2142 15.7128 20.5 15.9985 20.5 16.3511C20.5 16.7036 20.2142 16.9894 19.8617 16.9894H16.9894V19.8617C16.9894 20.2142 16.7036 20.5 16.3511 20.5C15.9985 20.5 15.7128 20.2142 15.7128 19.8617V16.9894H12.8404C12.4879 16.9894 12.2021 16.7036 12.2021 16.3511C12.2021 15.9985 12.4879 15.7128 12.8404 15.7128H15.7128V12.8404C15.7128 12.4879 15.9985 12.2021 16.3511 12.2021Z" fill="#121212"/>
<path fill-rule="evenodd" clip-rule="evenodd" d="M1.23535 1.23535C1.70618 0.764513 2.34478 0.5 3.01064 0.5H6.28723C6.9531 0.5 7.59169 0.764513 8.06252 1.23535C8.53336 1.70619 8.79787 2.34478 8.79787 3.01064V6.28723C8.79787 6.9531 8.53336 7.59169 8.06252 8.06252C7.59169 8.53336 6.9531 8.79787 6.28723 8.79787H3.01064C2.34478 8.79787 1.70619 8.53336 1.23535 8.06252C0.764513 7.59169 0.5 6.9531 0.5 6.28723V3.01064C0.5 2.34478 0.764513 1.70618 1.23535 1.23535ZM3.01064 1.7766C2.68335 1.7766 2.36947 1.90661 2.13804 2.13804C1.90661 2.36947 1.7766 2.68335 1.7766 3.01064V6.28723C1.7766 6.61452 1.90661 6.92841 2.13804 7.15983C2.36947 7.39126 2.68335 7.52128 3.01064 7.52128H6.28723C6.61452 7.52128 6.92841 7.39126 7.15983 7.15983C7.39126 6.92841 7.52128 6.61452 7.52128 6.28723V3.01064C7.52128 2.68335 7.39126 2.36947 7.15983 2.13804C6.92841 1.90661 6.61452 1.7766 6.28723 1.7766H3.01064ZM12.9375 1.23535C13.4083 0.764513 14.0469 0.5 14.7128 0.5H17.9894C18.6552 0.5 19.2938 0.764513 19.7647 1.23535C20.2355 1.70618 20.5 2.34477 20.5 3.01064V6.28723C20.5 6.9531 20.2355 7.59169 19.7647 8.06252C19.2938 8.53336 18.6552 8.79787 17.9894 8.79787H14.7128C14.0469 8.79787 13.4083 8.53336 12.9375 8.06252C12.4666 7.59169 12.2021 6.9531 12.2021 6.28723V3.01064C12.2021 2.34478 12.4666 1.70619 12.9375 1.23535ZM14.7128 1.7766C14.3855 1.7766 14.0716 1.90661 13.8402 2.13804C13.6087 2.36947 13.4787 2.68335 13.4787 3.01064V6.28723C13.4787 6.61452 13.6087 6.92841 13.8402 7.15983C14.0716 7.39126 14.3855 7.52128 14.7128 7.52128H17.9894C18.3167 7.52128 18.6305 7.39126 18.862 7.15983C19.0934 6.92841 19.2234 6.61452 19.2234 6.28723V3.01064C19.2234 2.68335 19.0934 2.36947 18.862 2.13804C18.6305 1.90661 18.3167 1.7766 17.9894 1.7766H14.7128ZM1.23535 12.9375C1.70619 12.4666 2.34478 12.2021 3.01064 12.2021H6.28723C6.9531 12.2021 7.59169 12.4666 8.06252 12.9375C8.53336 13.4083 8.79787 14.0469 8.79787 14.7128V17.9894C8.79787 18.6552 8.53336 19.2938 8.06252 19.7647C7.59169 20.2355 6.9531 20.5 6.28723 20.5H3.01064C2.34477 20.5 1.70618 20.2355 1.23535 19.7647C0.764513 19.2938 0.5 18.6552 0.5 17.9894V14.7128C0.5 14.0469 0.764513 13.4083 1.23535 12.9375ZM3.01064 13.4787C2.68335 13.4787 2.36947 13.6087 2.13804 13.8402C1.90661 14.0716 1.7766 14.3855 1.7766 14.7128V17.9894C1.7766 18.3167 1.90661 18.6305 2.13804 18.862C2.36947 19.0934 2.68335 19.2234 3.01064 19.2234H6.28723C6.61452 19.2234 6.92841 19.0934 7.15983 18.862C7.39126 18.6305 7.52128 18.3167 7.52128 17.9894V14.7128C7.52128 14.3855 7.39126 14.0716 7.15983 13.8402C6.92841 13.6087 6.61452 13.4787 6.28723 13.4787H3.01064Z" fill="#121212"/>
</svg>
