<svg width="24" height="24" viewBox="0 0 24 24" fill="none" xmlns="http://www.w3.org/2000/svg">
<path fill-rule="evenodd" clip-rule="evenodd" d="M19.125 14.25C19.5392 14.25 19.875 14.5858 19.875 15V18.375H23.25C23.6642 18.375 24 18.7108 24 19.125C24 19.5392 23.6642 19.875 23.25 19.875H19.875V23.25C19.875 23.6642 19.5392 24 19.125 24C18.7108 24 18.375 23.6642 18.375 23.25V19.875H15C14.5858 19.875 14.25 19.5392 14.25 19.125C14.25 18.7108 14.5858 18.375 15 18.375H18.375V15C18.375 14.5858 18.7108 14.25 19.125 14.25Z" fill="#9CA3AF"/>
<path fill-rule="evenodd" clip-rule="evenodd" d="M1.36404 1.36404C1.91727 0.810803 2.66761 0.5 3.45 0.5H7.3C8.08239 0.5 8.83273 0.810803 9.38597 1.36404C9.9392 1.91727 10.25 2.66761 10.25 3.45V7.3C10.25 8.08239 9.9392 8.83273 9.38597 9.38597C8.83273 9.9392 8.08239 10.25 7.3 10.25H3.45C2.66761 10.25 1.91727 9.9392 1.36404 9.38597C0.810803 8.83273 0.5 8.08239 0.5 7.3V3.45C0.5 2.66761 0.810803 1.91727 1.36404 1.36404ZM3.45 2C3.06544 2 2.69662 2.15277 2.4247 2.4247C2.15277 2.69662 2 3.06544 2 3.45V7.3C2 7.68456 2.15277 8.05338 2.4247 8.3253C2.69662 8.59723 3.06544 8.75 3.45 8.75H7.3C7.68456 8.75 8.05338 8.59723 8.3253 8.3253C8.59723 8.05338 8.75 7.68456 8.75 7.3V3.45C8.75 3.06544 8.59723 2.69662 8.3253 2.4247C8.05338 2.15277 7.68456 2 7.3 2H3.45ZM15.114 1.36404C15.6673 0.810803 16.4176 0.5 17.2 0.5H21.05C21.8324 0.5 22.5827 0.810803 23.136 1.36404C23.6892 1.91727 24 2.66761 24 3.45V7.3C24 8.08239 23.6892 8.83273 23.136 9.38597C22.5827 9.9392 21.8324 10.25 21.05 10.25H17.2C16.4176 10.25 15.6673 9.9392 15.114 9.38597C14.5608 8.83273 14.25 8.08239 14.25 7.3V3.45C14.25 2.66761 14.5608 1.91727 15.114 1.36404ZM17.2 2C16.8154 2 16.4466 2.15277 16.1747 2.4247C15.9028 2.69662 15.75 3.06544 15.75 3.45V7.3C15.75 7.68456 15.9028 8.05338 16.1747 8.3253C16.4466 8.59723 16.8154 8.75 17.2 8.75H21.05C21.4346 8.75 21.8034 8.59723 22.0753 8.3253C22.3472 8.05338 22.5 7.68456 22.5 7.3V3.45C22.5 3.06544 22.3472 2.69662 22.0753 2.4247C21.8034 2.15277 21.4346 2 21.05 2H17.2ZM1.36404 15.114C1.91727 14.5608 2.66761 14.25 3.45 14.25H7.3C8.08239 14.25 8.83273 14.5608 9.38597 15.114C9.9392 15.6673 10.25 16.4176 10.25 17.2V21.05C10.25 21.8324 9.9392 22.5827 9.38597 23.136C8.83273 23.6892 8.08239 24 7.3 24H3.45C2.66761 24 1.91727 23.6892 1.36404 23.136C0.810803 22.5827 0.5 21.8324 0.5 21.05V17.2C0.5 16.4176 0.810803 15.6673 1.36404 15.114ZM3.45 15.75C3.06544 15.75 2.69662 15.9028 2.4247 16.1747C2.15277 16.4466 2 16.8154 2 17.2V21.05C2 21.4346 2.15277 21.8034 2.4247 22.0753C2.69662 22.3472 3.06544 22.5 3.45 22.5H7.3C7.68456 22.5 8.05338 22.3472 8.3253 22.0753C8.59723 21.8034 8.75 21.4346 8.75 21.05V17.2C8.75 16.8154 8.59723 16.4466 8.3253 16.1747C8.05338 15.9028 7.68456 15.75 7.3 15.75H3.45Z" fill="#9CA3AF"/>
</svg>
