<svg width="24" height="24" viewBox="0 0 24 24" fill="none" xmlns="http://www.w3.org/2000/svg">
<mask id="path-1-inside-1_99_36955" fill="white">
<path d="M18.7099 8.2101C18.6169 8.11638 18.5063 8.04198 18.3845 7.99121C18.2626 7.94044 18.1319 7.91431 17.9999 7.91431C17.8679 7.91431 17.7372 7.94044 17.6153 7.99121C17.4934 8.04198 17.3828 8.11638 17.2899 8.2101L12.7099 12.7901C12.6169 12.8838 12.5063 12.9582 12.3845 13.009C12.2626 13.0598 12.1319 13.0859 11.9999 13.0859C11.8679 13.0859 11.7372 13.0598 11.6153 13.009C11.4934 12.9582 11.3828 12.8838 11.2899 12.7901L6.70988 8.2101C6.61691 8.11638 6.50631 8.04198 6.38445 7.99121C6.26259 7.94044 6.13189 7.91431 5.99988 7.91431C5.86787 7.91431 5.73716 7.94044 5.6153 7.99121C5.49344 8.04198 5.38284 8.11638 5.28988 8.2101C5.10363 8.39747 4.99908 8.65092 4.99908 8.9151C4.99908 9.17929 5.10363 9.43274 5.28988 9.6201L9.87988 14.2101C10.4424 14.7719 11.2049 15.0875 11.9999 15.0875C12.7949 15.0875 13.5574 14.7719 14.1199 14.2101L18.7099 9.6201C18.8961 9.43274 19.0007 9.17929 19.0007 8.9151C19.0007 8.65092 18.8961 8.39747 18.7099 8.2101Z"/>
</mask>
<path d="M18.7099 8.2101C18.6169 8.11638 18.5063 8.04198 18.3845 7.99121C18.2626 7.94044 18.1319 7.91431 17.9999 7.91431C17.8679 7.91431 17.7372 7.94044 17.6153 7.99121C17.4934 8.04198 17.3828 8.11638 17.2899 8.2101L12.7099 12.7901C12.6169 12.8838 12.5063 12.9582 12.3845 13.009C12.2626 13.0598 12.1319 13.0859 11.9999 13.0859C11.8679 13.0859 11.7372 13.0598 11.6153 13.009C11.4934 12.9582 11.3828 12.8838 11.2899 12.7901L6.70988 8.2101C6.61691 8.11638 6.50631 8.04198 6.38445 7.99121C6.26259 7.94044 6.13189 7.91431 5.99988 7.91431C5.86787 7.91431 5.73716 7.94044 5.6153 7.99121C5.49344 8.04198 5.38284 8.11638 5.28988 8.2101C5.10363 8.39747 4.99908 8.65092 4.99908 8.9151C4.99908 9.17929 5.10363 9.43274 5.28988 9.6201L9.87988 14.2101C10.4424 14.7719 11.2049 15.0875 11.9999 15.0875C12.7949 15.0875 13.5574 14.7719 14.1199 14.2101L18.7099 9.6201C18.8961 9.43274 19.0007 9.17929 19.0007 8.9151C19.0007 8.65092 18.8961 8.39747 18.7099 8.2101Z" fill="#A1A1AA"/>
<path d="M17.2899 8.2101L32.3748 23.2951L32.4057 23.2641L32.4365 23.2331L17.2899 8.2101ZM12.7099 12.7901L-2.37505 -2.29487L-2.40597 -2.26394L-2.43677 -2.23289L12.7099 12.7901ZM11.2899 12.7901L26.4365 -2.23289L26.4057 -2.26394L26.3748 -2.29487L11.2899 12.7901ZM6.70988 8.2101L-8.43677 23.2331L-8.40598 23.2641L-8.37505 23.2951L6.70988 8.2101ZM5.28988 8.2101L20.4196 23.2501L20.4281 23.2416L20.4365 23.2331L5.28988 8.2101ZM4.99908 8.9151H-16.3342H4.99908ZM5.28988 9.6201L-9.83986 24.6601L-9.81749 24.6826L-9.79505 24.7051L5.28988 9.6201ZM9.87988 14.2101L-5.20505 29.2951L-5.19566 29.3044L9.87988 14.2101ZM11.9999 15.0875V36.4208V15.0875ZM14.1199 14.2101L29.1954 29.3044L29.2048 29.2951L14.1199 14.2101ZM18.7099 9.6201L33.7948 24.7051L33.8172 24.6826L33.8396 24.6601L18.7099 9.6201ZM33.8565 -6.81288C31.7804 -8.90608 29.3103 -10.5676 26.5887 -11.7014L10.1802 27.6839C7.70229 26.6515 5.45341 25.1388 3.56323 23.2331L33.8565 -6.81288ZM26.5887 -11.7014C23.8672 -12.8353 20.9481 -13.419 17.9999 -13.419V29.2476C15.3157 29.2476 12.658 28.7162 10.1802 27.6839L26.5887 -11.7014ZM17.9999 -13.419C15.0516 -13.419 12.1326 -12.8353 9.41102 -11.7014L25.8196 27.6839C23.3418 28.7162 20.6841 29.2476 17.9999 29.2476V-13.419ZM9.41102 -11.7014C6.68941 -10.5676 4.21934 -8.90608 2.14323 -6.81288L32.4365 23.2331C30.5463 25.1388 28.2975 26.6515 25.8196 27.6839L9.41102 -11.7014ZM2.20495 -6.87486L-2.37505 -2.29487L27.7948 27.8751L32.3748 23.2951L2.20495 -6.87486ZM-2.43677 -2.23289C-0.546514 -4.13871 1.70238 -5.65139 4.18017 -6.68367L20.5887 32.7016C23.3102 31.5678 25.7803 29.9064 27.8565 27.8131L-2.43677 -2.23289ZM4.18017 -6.68367C6.65795 -7.71596 9.31562 -8.24744 11.9999 -8.24744V34.4192C14.9482 34.4192 17.8672 33.8355 20.5887 32.7016L4.18017 -6.68367ZM11.9999 -8.24744C14.6841 -8.24744 17.3418 -7.71596 19.8196 -6.68367L3.41101 32.7016C6.13251 33.8355 9.0516 34.4192 11.9999 34.4192V-8.24744ZM19.8196 -6.68367C22.2974 -5.65139 24.5463 -4.13871 26.4365 -2.23289L-3.85677 27.8131C-1.78059 29.9064 0.689507 31.5678 3.41101 32.7016L19.8196 -6.68367ZM26.3748 -2.29487L21.7948 -6.87486L-8.37505 23.2951L-3.79505 27.8751L26.3748 -2.29487ZM21.8565 -6.81288C19.7804 -8.90613 17.3103 -10.5676 14.5887 -11.7014L-1.81983 27.6839C-4.29766 26.6516 -6.54655 25.1389 -8.43677 23.2331L21.8565 -6.81288ZM14.5887 -11.7014C11.8672 -12.8353 8.94811 -13.419 5.99988 -13.419V29.2476C3.31567 29.2476 0.657997 28.7162 -1.81983 27.6839L14.5887 -11.7014ZM5.99988 -13.419C3.05165 -13.419 0.132561 -12.8353 -2.58899 -11.7014L13.8196 27.6839C11.3418 28.7162 8.68408 29.2476 5.99988 29.2476V-13.419ZM-2.58899 -11.7014C-5.31053 -10.5676 -7.78062 -8.90613 -9.85677 -6.81288L20.4365 23.2331C18.5463 25.1389 16.2974 26.6516 13.8196 27.6839L-2.58899 -11.7014ZM-9.83986 -6.82991C-13.9995 -2.64548 -16.3342 3.01495 -16.3342 8.9151H26.3324C26.3324 14.2869 24.2067 19.4404 20.4196 23.2501L-9.83986 -6.82991ZM-16.3342 8.9151C-16.3342 14.8153 -13.9995 20.4757 -9.83986 24.6601L20.4196 -5.41992C24.2067 -1.61021 26.3324 3.54332 26.3324 8.9151H-16.3342ZM-9.79505 24.7051L-5.20505 29.2951L24.9648 -0.874868L20.3748 -5.46486L-9.79505 24.7051ZM-5.19566 29.3044C-0.633151 33.8613 5.55153 36.4208 11.9999 36.4208V-6.24588C16.8582 -6.24588 21.5179 -4.31748 24.9554 -0.884252L-5.19566 29.3044ZM11.9999 36.4208C18.4482 36.4208 24.6329 33.8613 29.1954 29.3044L-0.955662 -0.884252C2.48185 -4.31748 7.14154 -6.24588 11.9999 -6.24588V36.4208ZM29.2048 29.2951L33.7948 24.7051L3.62495 -5.46486L-0.965053 -0.874866L29.2048 29.2951ZM33.8396 24.6601C37.9992 20.4758 40.334 14.8154 40.334 8.9151H-2.33266C-2.33266 3.54322 -0.206904 -1.61028 3.58014 -5.41992L33.8396 24.6601ZM40.334 8.9151C40.334 3.01485 37.9992 -2.64555 33.8396 -6.82991L3.58014 23.2501C-0.206904 19.4405 -2.33266 14.287 -2.33266 8.9151H40.334Z" fill="#A1A1AA" mask="url(#path-1-inside-1_99_36955)"/>
</svg>
