<svg width="24" height="24" viewBox="0 0 24 24" fill="none" xmlns="http://www.w3.org/2000/svg">
<g clip-path="url(#clip0_2803_43791)">
<rect width="24" height="24" rx="12" fill="white"/>
<path fill-rule="evenodd" clip-rule="evenodd" d="M18.1858 6.68549C17.7048 6.68549 17.2248 6.86882 16.8579 7.23558L10.768 13.3249L8.54459 11.1017C7.80873 10.3658 6.61613 10.3658 5.88027 11.1017C5.14452 11.8375 5.14452 13.0305 5.88027 13.7663L9.41578 17.3016L9.43481 17.3143V17.3144C10.1686 18.0478 11.3569 18.0478 12.0907 17.3144L19.5137 9.89165C20.2475 9.15812 20.2475 7.96901 19.5137 7.23558C19.1469 6.86882 18.6658 6.68549 18.1858 6.68549ZM12.0526 0.105469C18.651 0.105469 23.9997 5.4544 23.9997 12.0526C23.9997 18.6508 18.651 23.9997 12.0526 23.9997C5.4544 23.9997 0.105469 18.6508 0.105469 12.0526C0.105469 5.4544 5.4544 0.105469 12.0526 0.105469Z" fill="#92D050"/>
</g>
<defs>
<clipPath id="clip0_2803_43791">
<rect width="24" height="24" rx="12" fill="white"/>
</clipPath>
</defs>
</svg>
