<svg width="28" height="28" viewBox="0 0 28 28" fill="none" xmlns="http://www.w3.org/2000/svg">
<path d="M19.5445 1.17635C17.4347 1.35021 15.7509 2.96678 15.4903 5.06769C15.4593 5.32849 15.4655 5.9391 15.5027 6.21025C15.633 7.17067 16.0612 8.03587 16.7417 8.72306C17.0044 8.988 17.1782 9.12875 17.4905 9.33367C18.7978 10.1844 20.525 10.2713 21.9171 9.55722C22.761 9.12254 23.4519 8.42293 23.8656 7.58464C24.1759 6.95333 24.3 6.44621 24.3165 5.7259C24.3331 5.10494 24.2793 4.7303 24.1014 4.19006C23.5781 2.61076 22.1839 1.44543 20.5374 1.20946C20.2623 1.17014 19.799 1.15358 19.5445 1.17635Z" fill="white"/>
<path d="M8.36232 4.42603C7.37565 4.50261 6.41174 4.89382 5.66502 5.51892C4.7342 6.29718 4.13848 7.38179 3.97714 8.58645C3.9399 8.86795 3.9399 9.54687 3.97714 9.82837C4.04953 10.3665 4.19433 10.8426 4.43427 11.329C4.90588 12.2853 5.6464 13.0284 6.5979 13.5003C7.76866 14.0819 9.14834 14.1606 10.3708 13.7156C11.8477 13.1774 12.9833 11.9231 13.3701 10.3997C13.4797 9.96912 13.5128 9.69176 13.5128 9.20741C13.5128 8.72306 13.4797 8.4457 13.3701 8.01517C12.9213 6.24751 11.4795 4.87105 9.69856 4.51089C9.29107 4.4281 8.76361 4.39498 8.36232 4.42603Z" fill="white"/>
<path d="M16.4004 10.3231C15.6392 10.6812 14.9008 11.1738 14.2968 11.7264C14.1479 11.861 14.0858 11.9376 14.0196 12.0597C13.7921 12.4737 13.4735 12.929 13.3019 13.0781C13.2088 13.1608 13.035 13.2643 12.9874 13.2643C12.975 13.2643 12.913 13.2892 12.8509 13.3202C12.5572 13.463 12.3834 13.8232 12.4496 14.1482C12.52 14.4938 12.8199 14.7526 13.1633 14.7608C13.2315 14.7629 13.4136 14.7526 13.5666 14.736C14.0506 14.6863 14.6112 14.7277 15.118 14.8478C15.7902 15.0113 16.4853 15.3549 17.0417 15.8041C17.9725 16.5533 18.6117 17.6794 18.7895 18.8819C19.0088 20.366 18.4896 21.9122 17.4119 22.9906C16.6631 23.7378 15.7468 24.2015 14.6733 24.3733C14.3526 24.425 13.6266 24.423 13.2977 24.3733C12.5924 24.2615 11.9305 24.0111 11.3596 23.6364C11.0203 23.4129 10.8238 23.2535 10.5466 22.9741C9.81853 22.2413 9.36347 21.3327 9.18764 20.2708C9.13593 19.9479 9.13593 19.1821 9.18764 18.8675C9.29727 18.2175 9.49585 17.6483 9.79164 17.1433C10.0212 16.75 10.2281 16.483 10.5921 16.1104C10.9045 15.7896 10.95 15.7006 10.95 15.417C10.95 15.2473 10.9417 15.2038 10.8962 15.1044C10.7266 14.7464 10.3439 14.5746 9.9716 14.6905C9.84128 14.7298 9.78337 14.765 9.59927 14.914C9.39036 15.0837 9.12766 15.1893 8.84014 15.2204C8.69121 15.2348 8.13686 15.1997 7.84727 15.1562C7.03642 15.0361 6.16352 14.7091 5.50161 14.2786L5.30717 14.1523L5.1086 14.2372C2.86429 15.2162 1.05851 17.1805 0.255936 19.5153C0.0594297 20.0845 0.0139231 20.2812 0.00358065 20.602C-0.00469328 20.8483 -0.000556313 20.9187 0.0366764 21.0739C0.204223 21.7798 0.762714 22.3055 1.47427 22.4318C1.55701 22.4483 2.69675 22.4545 4.94312 22.4545H8.28785L8.39335 22.647C8.66225 23.15 9.0263 23.6302 9.4793 24.0814C10.0109 24.6134 10.5094 24.9715 11.1568 25.2902C11.8312 25.6235 12.3979 25.7953 13.1736 25.905C13.5666 25.9609 14.4643 25.9547 14.8636 25.8946C15.8709 25.7435 16.75 25.4041 17.5733 24.8535C18.2248 24.4147 18.8619 23.773 19.3067 23.1065C20.194 21.7756 20.5436 20.1425 20.2871 18.5425C20.252 18.3169 20.1878 18.0064 20.1527 17.8946C20.1423 17.8615 20.3037 17.8594 23.3568 17.8594C26.5153 17.8594 26.5732 17.8594 26.7346 17.818C27.1317 17.7166 27.471 17.4786 27.7109 17.1288C27.9777 16.7438 28.0522 16.2139 27.9116 15.6985C27.442 13.9557 26.416 12.4136 24.9764 11.2897C24.4593 10.8861 23.6877 10.4307 23.1602 10.2196L23.063 10.1823L22.8707 10.3024C22.1715 10.7412 21.4269 11.0103 20.5995 11.1262C20.2458 11.1738 19.5466 11.1738 19.1929 11.1262C18.3655 11.0103 17.6208 10.7412 16.9196 10.3024C16.8141 10.2341 16.7211 10.1802 16.7128 10.1823C16.7066 10.1823 16.5659 10.2465 16.4004 10.3231Z" fill="white"/>
<path d="M13.7507 16.2346C13.5439 16.3008 13.3412 16.4954 13.2626 16.7003C13.2295 16.7831 13.2253 16.9032 13.2191 17.7911L13.2129 18.7888L11.2168 18.8012L11.0576 18.8799C10.8797 18.9668 10.7783 19.0703 10.6935 19.2462C10.6459 19.3456 10.6397 19.387 10.6397 19.5671C10.6397 19.7471 10.6459 19.7885 10.6935 19.8879C10.7783 20.0638 10.8797 20.1673 11.0576 20.2543L11.2168 20.3329L13.215 20.3453V21.2913C13.215 22.0799 13.2212 22.26 13.246 22.3614C13.306 22.5891 13.4611 22.7712 13.6825 22.8726C13.7673 22.912 13.819 22.9202 13.9907 22.9202C14.1748 22.9182 14.212 22.912 14.3154 22.8623C14.4706 22.7857 14.6112 22.647 14.6795 22.5001L14.7353 22.3821L14.7477 20.3433H15.6723C16.2536 20.3433 16.6445 20.335 16.7211 20.3205C16.9362 20.2812 17.0975 20.1777 17.2134 20.0059C17.4802 19.6147 17.3457 19.0931 16.9279 18.8778C16.7748 18.8012 16.6363 18.7909 15.6723 18.7909H14.7477L14.7353 16.7521L14.6795 16.6341C14.6112 16.4871 14.4706 16.3464 14.3154 16.2739C14.1686 16.2056 13.9017 16.1849 13.7507 16.2346Z" fill="white"/>
</svg>
