<svg width="21" height="21" viewBox="0 0 21 21" fill="none" xmlns="http://www.w3.org/2000/svg">
<path fill-rule="evenodd" clip-rule="evenodd" d="M5.54202 6.55263C5.54202 6.11662 5.88062 5.76316 6.29832 5.76316H15.542C15.9597 5.76316 16.2983 6.11662 16.2983 6.55263C16.2983 6.98865 15.9597 7.34211 15.542 7.34211H6.29832C5.88062 7.34211 5.54202 6.98865 5.54202 6.55263Z" fill="#121212"/>
<path fill-rule="evenodd" clip-rule="evenodd" d="M5.54202 10.9386C5.54202 10.5026 5.88062 10.1491 6.29832 10.1491H13.021C13.4387 10.1491 13.7773 10.5026 13.7773 10.9386C13.7773 11.3746 13.4387 11.7281 13.021 11.7281H6.29832C5.88062 11.7281 5.54202 11.3746 5.54202 10.9386Z" fill="#121212"/>
<path fill-rule="evenodd" clip-rule="evenodd" d="M4.33753 2.07895C3.72354 2.07895 3.13304 2.3362 2.6964 2.79687C2.25949 3.25782 2.01261 3.88478 2.01261 4.54025V13.209C2.01261 13.8645 2.25949 14.4914 2.6964 14.9524C3.13304 15.413 3.72354 15.6703 4.33753 15.6703H6.39169C6.80938 15.6703 7.14799 16.0237 7.14799 16.4598V18.3085L11.1349 15.7847C11.2532 15.7099 11.3888 15.6703 11.5271 15.6703H16.6625C17.2765 15.6703 17.867 15.413 18.3036 14.9524C18.7405 14.4914 18.9874 13.8645 18.9874 13.209V4.54025C18.9874 3.88478 18.7405 3.25782 18.3036 2.79687C17.867 2.3362 17.2765 2.07895 16.6625 2.07895H4.33753ZM1.62115 1.68634C2.34019 0.927731 3.31715 0.5 4.33753 0.5H16.6625C17.6829 0.5 18.6598 0.927731 19.3788 1.68634C20.0976 2.44466 20.5 3.4714 20.5 4.54025V13.209C20.5 14.2778 20.0976 15.3046 19.3788 16.0629C18.6598 16.8215 17.6829 17.2492 16.6625 17.2492H11.7385L6.78385 20.3856C6.55032 20.5334 6.25859 20.5383 6.02061 20.3984C5.78263 20.2586 5.63539 19.9956 5.63539 19.7105V17.2492H4.33753C3.31715 17.2492 2.34019 16.8215 1.62115 16.0629C0.902377 15.3046 0.5 14.2778 0.5 13.209V4.54025C0.5 3.4714 0.902377 2.44466 1.62115 1.68634Z" fill="#121212"/>
</svg>
