<svg width="24" height="24" viewBox="0 0 24 24" fill="none" xmlns="http://www.w3.org/2000/svg">
<path fill-rule="evenodd" clip-rule="evenodd" d="M12 2.4C11.6758 2.4 11.365 2.52643 11.1358 2.75147C10.9066 2.97652 10.7778 3.28174 10.7778 3.6C10.7778 4.06403 10.5053 4.48647 10.078 4.68483C8.87496 5.24338 7.84936 6.11283 7.11116 7.2C6.37806 8.27966 5.95586 9.53363 5.88895 10.8292V14.4C5.88895 14.4482 5.88599 14.4964 5.88009 14.5442C5.78201 15.3398 5.52278 16.1066 5.11922 16.8H18.8808C18.4772 16.1066 18.218 15.3398 18.1199 14.5442C18.114 14.4964 18.111 14.4482 18.111 14.4V10.8292C18.0441 9.53364 17.6219 8.27967 16.8888 7.2C16.1506 6.11283 15.125 5.24338 13.922 4.68483C13.4947 4.48647 13.2222 4.06403 13.2222 3.6C13.2222 3.28174 13.0934 2.97652 12.8642 2.75147C12.635 2.52643 12.3242 2.4 12 2.4ZM14.4444 19.2H9.55558C9.55558 19.8365 9.81312 20.447 10.2715 20.8971C10.73 21.3471 11.3517 21.6 12 21.6C12.6483 21.6 13.27 21.3471 13.7285 20.8971C14.1869 20.447 14.4444 19.8365 14.4444 19.2ZM7.11116 19.2C7.11116 20.473 7.62623 21.6939 8.54307 22.5941C9.4599 23.4943 10.7034 24 12 24C13.2966 24 14.5401 23.4943 15.4569 22.5941C16.3738 21.6939 16.8888 20.473 16.8888 19.2H21.7777C22.3328 19.2 22.8181 18.8327 22.9596 18.3057C23.101 17.7787 22.8629 17.2243 22.3799 16.9558C21.8804 16.6781 21.4543 16.2891 21.1359 15.8201C20.8301 15.3698 20.6318 14.8578 20.5555 14.3224V10.8C20.5555 10.7812 20.555 10.7625 20.5541 10.7437C20.4709 9.0035 19.907 7.31828 18.9227 5.86872C18.0666 4.60789 16.9206 3.56668 15.5811 2.82686C15.4319 2.16071 15.0916 1.54425 14.5927 1.05442C13.9051 0.379285 12.9725 0 12 0C11.0275 0 10.0949 0.379285 9.4073 1.05442C8.9084 1.54425 8.56812 2.16071 8.41891 2.82686C7.07942 3.56668 5.93339 4.60789 5.07728 5.86872C4.09302 7.31828 3.52907 9.0035 3.44588 10.7437C3.44498 10.7625 3.44453 10.7812 3.44453 10.8V14.3224C3.36817 14.8578 3.16992 15.3698 2.86415 15.8201C2.54572 16.2891 2.1196 16.6781 1.62007 16.9558C1.13706 17.2243 0.899023 17.7787 1.04045 18.3057C1.18187 18.8327 1.66725 19.2 2.22232 19.2H7.11116Z" fill="white"/>
</svg>
