<svg width="21" height="21" viewBox="0 0 21 21" fill="none" xmlns="http://www.w3.org/2000/svg">
<path fill-rule="evenodd" clip-rule="evenodd" d="M1.61111 13.8333C2.22476 13.8333 2.72222 14.3308 2.72222 14.9444V19.3889C2.72222 20.0025 2.22476 20.5 1.61111 20.5C0.997461 20.5 0.5 20.0025 0.5 19.3889V14.9444C0.5 14.3308 0.997461 13.8333 1.61111 13.8333Z" fill="#9CA3AF"/>
<path fill-rule="evenodd" clip-rule="evenodd" d="M7.53704 9.38889C8.15069 9.38889 8.64815 9.88635 8.64815 10.5V19.3889C8.64815 20.0025 8.15069 20.5 7.53704 20.5C6.92339 20.5 6.42593 20.0025 6.42593 19.3889V10.5C6.42593 9.88635 6.92339 9.38889 7.53704 9.38889Z" fill="#9CA3AF"/>
<path fill-rule="evenodd" clip-rule="evenodd" d="M13.463 4.94444C14.0766 4.94444 14.5741 5.44191 14.5741 6.05556V19.3889C14.5741 20.0025 14.0766 20.5 13.463 20.5C12.8493 20.5 12.3519 20.0025 12.3519 19.3889V6.05556C12.3519 5.44191 12.8493 4.94444 13.463 4.94444Z" fill="#9CA3AF"/>
<path fill-rule="evenodd" clip-rule="evenodd" d="M19.3889 0.5C20.0025 0.5 20.5 0.997461 20.5 1.61111V19.3889C20.5 20.0025 20.0025 20.5 19.3889 20.5C18.7752 20.5 18.2778 20.0025 18.2778 19.3889V1.61111C18.2778 0.997461 18.7752 0.5 19.3889 0.5Z" fill="#9CA3AF"/>
</svg>
