<svg width="21" height="20" viewBox="0 0 21 20" fill="none" xmlns="http://www.w3.org/2000/svg">
<path fill-rule="evenodd" clip-rule="evenodd" d="M8.40444 1.53846C8.33497 1.53846 8.26836 1.56548 8.21924 1.61356C8.17012 1.66165 8.14253 1.72687 8.14253 1.79487V4.10256H12.8568V1.79487C12.8568 1.72687 12.8292 1.66165 12.7801 1.61356C12.731 1.56548 12.6644 1.53846 12.5949 1.53846H8.40444ZM14.4282 4.10256V1.79487C14.4282 1.31884 14.2351 0.862309 13.8913 0.525706C13.5475 0.189102 13.0811 0 12.5949 0H8.40444C7.91821 0 7.45189 0.189102 7.10807 0.525706C6.76426 0.862309 6.5711 1.31884 6.5711 1.79487V4.10256H3.17553C3.17 4.10251 3.16446 4.10251 3.15891 4.10256H2.11872C1.68478 4.10256 1.33301 4.44696 1.33301 4.8718C1.33301 5.29663 1.68478 5.64103 2.11872 5.64103H2.44338L3.42846 17.214C3.43765 17.9496 3.74009 18.6531 4.27206 19.1739C4.81234 19.7028 5.54512 20 6.3092 20H14.6902C15.4542 20 16.187 19.7028 16.7273 19.1739C17.2593 18.6531 17.5617 17.9496 17.5709 17.214L18.556 5.64103H18.8806C19.3146 5.64103 19.6663 5.29663 19.6663 4.8718C19.6663 4.44696 19.3146 4.10256 18.8806 4.10256H17.8404C17.8349 4.10251 17.8293 4.10251 17.8238 4.10256H14.4282ZM4.02026 5.64103L4.99696 17.1156C4.99877 17.1369 4.99967 17.1582 4.99967 17.1795C4.99967 17.5195 5.13764 17.8456 5.38322 18.086C5.62881 18.3265 5.96189 18.4615 6.3092 18.4615H14.6902C15.0375 18.4615 15.3705 18.3265 15.6161 18.086C15.8617 17.8456 15.9997 17.5195 15.9997 17.1795C15.9997 17.1582 16.0006 17.1369 16.0024 17.1156L16.9791 5.64103H4.02026ZM8.40444 8.20513C8.83837 8.20513 9.19015 8.54953 9.19015 8.97436V15.1282C9.19015 15.553 8.83837 15.8974 8.40444 15.8974C7.9705 15.8974 7.61872 15.553 7.61872 15.1282V8.97436C7.61872 8.54953 7.9705 8.20513 8.40444 8.20513ZM12.5949 8.20513C13.0288 8.20513 13.3806 8.54953 13.3806 8.97436V15.1282C13.3806 15.553 13.0288 15.8974 12.5949 15.8974C12.161 15.8974 11.8092 15.553 11.8092 15.1282V8.97436C11.8092 8.54953 12.161 8.20513 12.5949 8.20513Z" fill="#FF003B"/>
</svg>
