<svg width="21" height="20" viewBox="0 0 21 20" fill="none" xmlns="http://www.w3.org/2000/svg">
<g clip-path="url(#clip0_4120_18605)">
<path fill-rule="evenodd" clip-rule="evenodd" d="M9.3304 0.308309C9.74623 -0.10277 10.4204 -0.10277 10.8363 0.308309L16.1603 5.57147C16.5762 5.98254 16.5762 6.64903 16.1603 7.06011C15.7445 7.47119 15.0703 7.47119 14.6545 7.06011L11.1481 3.59391V13.6842C11.1481 14.2656 10.6714 14.7368 10.0833 14.7368C9.49525 14.7368 9.01852 14.2656 9.01852 13.6842V3.59391L5.5122 7.06011C5.09636 7.47119 4.42216 7.47119 4.00632 7.06011C3.59049 6.64903 3.59049 5.98254 4.00632 5.57147L9.3304 0.308309ZM1.56481 13.6842C2.1529 13.6842 2.62963 14.1555 2.62963 14.7368V16.8421C2.62963 17.1213 2.74182 17.389 2.94151 17.5864C3.1412 17.7838 3.41204 17.8947 3.69444 17.8947H16.4722C16.7546 17.8947 17.0255 17.7838 17.2252 17.5864C17.4249 17.389 17.537 17.1213 17.537 16.8421V14.7368C17.537 14.1555 18.0138 13.6842 18.6019 13.6842C19.1899 13.6842 19.6667 14.1555 19.6667 14.7368V16.8421C19.6667 17.6796 19.3301 18.4829 18.731 19.0751C18.132 19.6673 17.3194 20 16.4722 20H3.69444C2.84722 20 2.03471 19.6673 1.43563 19.0751C0.836557 18.4829 0.5 17.6796 0.5 16.8421V14.7368C0.5 14.1555 0.976734 13.6842 1.56481 13.6842Z" fill="#FF003B"/>
</g>
<defs>
<clipPath id="clip0_4120_18605">
<rect width="20" height="20" fill="white" transform="translate(0.5)"/>
</clipPath>
</defs>
</svg>
