<svg width="280" height="280" viewBox="0 0 280 280" fill="none" xmlns="http://www.w3.org/2000/svg">
<path d="M156.538 232.046C155.381 233.614 153.514 234.529 151.554 234.529C150.21 234.529 148.922 234.1 147.84 233.297L146.048 231.972C145.992 231.972 145.936 231.953 145.88 231.953C144.928 232.774 143.714 233.222 142.445 233.222C141.082 233.222 139.794 232.718 138.824 231.785L135.296 228.406H113.456C112.84 230.105 112.074 231.766 111.141 233.372C110.824 233.988 110.469 234.566 110.114 235.164H260.213V228.425H159.264L156.538 232.046Z" fill="#FF003B"/>
<path d="M49.5227 228.406H18.3867V235.145H52.8641C52.5467 234.622 52.2294 234.1 51.9307 233.558C50.9601 231.897 50.1574 230.18 49.5227 228.406Z" fill="#FF003B"/>
<path d="M205.613 176.102C205.072 176.102 204.643 176.531 204.643 177.072C204.643 177.614 205.072 178.043 205.613 178.043L209.757 181.552L206.603 177.054C206.584 176.531 206.155 176.102 205.613 176.102Z" fill="#FF003B"/>
<path d="M205.893 170.633C205.8 170.633 205.725 170.633 205.632 170.633L205.613 170.894V175.206C206.528 175.206 207.293 175.878 207.443 176.755L210.392 180.955C211.419 179.854 212.035 178.379 212.035 176.774C212.053 173.395 209.291 170.633 205.893 170.633Z" fill="#FF003B"/>
<path d="M200.443 176.438C200.014 176.438 199.678 176.773 199.678 177.203C199.678 177.632 200.014 177.968 200.443 177.968C200.872 177.968 201.208 177.632 201.208 177.203C201.208 176.773 200.872 176.438 200.443 176.438Z" fill="#FF003B"/>
<path d="M205.893 181.57C205.464 181.57 205.109 181.925 205.109 182.354C205.109 182.784 205.464 183.138 205.893 183.138C206.323 183.138 206.677 182.784 206.677 182.354C206.677 181.925 206.323 181.57 205.893 181.57Z" fill="#FF003B"/>
<path d="M180.152 91.5395L180.078 91.5581C180.022 92.2301 180.003 92.9021 180.003 93.5741C180.003 93.6301 180.003 93.6861 180.003 93.7421C180.003 108.302 187.936 120.585 198.782 124.355C198.838 126.651 198.819 129.526 198.464 131.393C198.464 131.393 196.075 138.393 190.568 138.579C188.702 138.598 186.238 138.561 183.979 138.915C183.979 138.934 183.979 138.953 183.979 138.99C180.526 139.643 174.03 142.238 171.174 152.505C168.56 165.067 166.955 172.777 165.966 177.499C164.248 178.899 162.904 181.065 161.71 182.745C161.038 183.678 157.958 189.633 154.71 195.961L149.838 204.473L149.782 204.585L149.539 205.089L149.259 205.667L149.072 206.059L148.886 206.433L148.699 206.787C148.606 206.787 148.531 206.806 148.438 206.806C146.235 207.03 144.07 207.926 142.352 209.494L141.568 210.203L141.55 210.185C141.531 210.203 141.512 210.241 141.494 210.259C141.27 210.595 141.12 210.969 141.046 211.379C140.915 212.163 141.12 212.929 141.587 213.545C141.792 213.806 142.016 214.011 142.278 214.179C143.174 214.758 144.35 214.777 145.283 214.179L146.123 213.638L147.43 212.779C148.382 212.163 149.614 212.145 150.584 212.742C150.603 212.742 150.603 212.761 150.622 212.761C150.734 212.835 150.846 212.91 150.976 212.985C152.302 213.806 154.448 215.15 156.334 217.035C157.36 218.062 158.312 219.257 159.003 220.601C160.216 217.894 160.123 214.739 158.704 212.089C158.648 211.995 158.611 211.902 158.555 211.809L158.891 211.435L159.302 210.969L160.048 210.129L160.795 209.289C169.214 200.609 177.726 189.931 178.006 183.641C178.883 181.102 179.742 178.582 180.582 176.137C181.739 178.675 183.512 180.729 185.939 182.353C186.126 183.51 186.406 185.246 186.667 186.945C186.779 187.654 186.872 188.363 186.966 189.017C187.134 190.267 187.264 191.331 187.264 191.891C187.264 192.022 187.283 192.134 187.32 192.246C187.694 197.659 187.638 203.259 186.051 205.219C185.323 206.115 184.446 207.627 183.512 209.494C183.494 209.494 183.456 209.494 183.438 209.475C183.363 209.625 183.288 209.774 183.214 209.923C183.195 209.961 183.176 209.998 183.158 210.017C183.083 210.166 183.027 210.297 182.952 210.446C182.952 210.446 182.952 210.465 182.934 210.465C182.859 210.614 182.784 210.782 182.71 210.931C182.691 210.969 182.672 211.006 182.654 211.043C182.579 211.193 182.523 211.323 182.448 211.473C182.448 211.491 182.43 211.51 182.43 211.529C182.355 211.697 182.28 211.846 182.206 212.014C182.187 212.051 182.168 212.089 182.15 212.126C182.094 212.275 182.019 212.406 181.963 212.555C181.944 212.574 181.944 212.611 181.926 212.63C181.851 212.798 181.776 212.966 181.702 213.134C181.683 213.171 181.664 213.19 181.664 213.227C181.608 213.377 181.534 213.526 181.478 213.657C181.459 213.694 181.459 213.713 181.44 213.75C181.366 213.918 181.291 214.086 181.216 214.254C181.198 214.291 181.198 214.31 181.179 214.347C181.123 214.497 181.048 214.646 180.992 214.795C180.974 214.833 180.955 214.87 180.955 214.889C180.88 215.057 180.806 215.225 180.731 215.411C180.731 215.43 180.712 215.449 180.712 215.467C180.638 215.617 180.582 215.785 180.507 215.934C180.488 215.971 180.47 216.009 180.47 216.046C180.395 216.214 180.32 216.401 180.246 216.569C180.246 216.569 180.246 216.587 180.227 216.587C180.152 216.755 180.096 216.905 180.022 217.073C180.003 217.11 179.984 217.147 179.966 217.185C179.816 217.521 179.686 217.857 179.536 218.193C179.518 218.23 179.499 218.267 179.48 218.305C179.406 218.473 179.35 218.622 179.275 218.79V218.809C179.2 218.977 179.144 219.145 179.07 219.313C179.051 219.35 179.032 219.387 179.032 219.425C178.976 219.574 178.92 219.723 178.846 219.854C178.846 219.873 178.827 219.891 178.827 219.91C178.771 220.078 178.696 220.227 178.64 220.377C178.622 220.414 178.603 220.451 178.603 220.489C178.547 220.619 178.491 220.769 178.435 220.899C178.435 220.918 178.416 220.937 178.416 220.955C178.36 221.105 178.286 221.254 178.23 221.403C178.211 221.441 178.211 221.478 178.192 221.497C178.136 221.627 178.099 221.739 178.043 221.851C178.024 221.889 178.024 221.926 178.006 221.945C177.95 222.075 177.894 222.225 177.838 222.355C177.819 222.393 177.8 222.43 177.8 222.467C177.763 222.579 177.707 222.673 177.67 222.785C177.651 222.822 177.632 222.859 177.632 222.897C177.576 223.027 177.539 223.139 177.483 223.27C177.464 223.307 177.446 223.345 177.446 223.382C177.408 223.475 177.371 223.569 177.334 223.662C177.315 223.699 177.296 223.737 177.296 223.774C177.259 223.886 177.203 223.998 177.166 224.11C177.147 224.147 177.128 224.203 177.11 224.241C177.091 224.315 177.054 224.371 177.035 224.446C177.016 224.502 176.998 224.558 176.979 224.595C176.942 224.67 176.923 224.745 176.886 224.819C176.867 224.875 176.83 224.95 176.811 225.006C176.792 225.062 176.774 225.118 176.755 225.155C176.736 225.211 176.718 225.267 176.68 225.323C176.662 225.342 176.662 225.379 176.643 225.398C176.624 225.454 176.606 225.51 176.587 225.566H235.928C235.891 225.473 235.854 225.361 235.798 225.249V225.23C235.723 225.025 235.63 224.782 235.536 224.539C235.536 224.521 235.518 224.502 235.518 224.483C235.48 224.371 235.424 224.259 235.387 224.147V224.129C235.331 223.998 235.294 223.886 235.238 223.755C235.219 223.737 235.219 223.699 235.2 223.681C235.163 223.569 235.107 223.457 235.07 223.345C235.07 223.326 235.051 223.307 235.051 223.289C234.995 223.158 234.939 223.027 234.883 222.878C234.864 222.859 234.864 222.822 234.846 222.803C234.808 222.691 234.752 222.561 234.696 222.449C234.678 222.411 234.678 222.393 234.659 222.355C234.603 222.225 234.547 222.075 234.491 221.926C234.472 221.889 234.472 221.87 234.454 221.833C234.398 221.721 234.36 221.59 234.304 221.478C234.286 221.441 234.267 221.403 234.267 221.366C234.211 221.217 234.155 221.067 234.08 220.918C234.08 220.899 234.062 220.881 234.062 220.862C234.006 220.731 233.95 220.582 233.894 220.451C233.875 220.414 233.856 220.377 233.856 220.339C233.8 220.171 233.726 220.022 233.651 219.854C233.595 219.686 233.52 219.537 233.446 219.369C233.427 219.331 233.427 219.294 233.408 219.275C233.278 218.939 233.128 218.603 232.998 218.267C232.979 218.23 232.96 218.193 232.96 218.174C232.886 218.006 232.83 217.838 232.755 217.689V217.67C232.68 217.502 232.606 217.315 232.531 217.147C232.512 217.11 232.512 217.091 232.494 217.054C232.419 216.886 232.363 216.737 232.288 216.569C232.288 216.55 232.27 216.55 232.27 216.531C232.195 216.345 232.12 216.177 232.046 215.99C232.046 215.971 232.027 215.953 232.027 215.934C231.952 215.766 231.878 215.598 231.803 215.43C231.803 215.411 231.784 215.393 231.784 215.393C231.71 215.206 231.635 215.038 231.542 214.851C231.542 214.833 231.523 214.833 231.523 214.814C231.448 214.646 231.374 214.478 231.299 214.291C231.299 214.273 231.28 214.273 231.28 214.254C231.112 213.899 230.963 213.526 230.795 213.171C230.795 213.153 230.776 213.134 230.776 213.134C230.608 212.779 230.459 212.425 230.291 212.089C230.291 212.07 230.272 212.051 230.272 212.033C230.104 211.697 229.955 211.342 229.787 211.006C229.787 210.987 229.768 210.969 229.768 210.969C229.6 210.633 229.451 210.315 229.302 209.979C229.302 209.961 229.283 209.961 229.283 209.942C229.208 209.793 229.134 209.625 229.04 209.475C229.022 209.475 229.003 209.475 228.966 209.494C228.032 207.627 227.136 206.078 226.408 205.182C225.438 204.006 225.046 201.486 224.952 198.481L225.008 197.379L225.102 195.718L225.232 193.459C225.251 193.459 225.27 193.459 225.288 193.441C225.326 192.843 225.4 192.209 225.456 191.593L225.83 188.345C225.904 187.766 225.979 187.187 226.072 186.646C226.315 185.022 226.539 183.547 226.726 182.483C229.712 180.579 231.747 178.041 232.904 174.811C234.136 178.395 235.424 182.147 236.712 185.899C235.984 198.593 244.086 221.161 245.728 225.566H256.947C256.872 224.259 256.648 220.675 256.07 210.913C255.136 195.494 249.574 184.947 249.574 184.947C249.574 184.947 249.574 184.947 242.798 152.449C238.803 138.131 227.734 138.729 227.734 138.729C225.755 138.523 223.739 138.542 222.152 138.523C217.168 138.337 214.742 132.233 214.331 131.467C213.939 129.47 213.939 126.259 214.014 123.833C224.206 119.595 231.542 107.705 231.542 93.7048C231.542 93.6488 231.542 93.5928 231.542 93.5368C231.542 92.8461 231.504 92.1555 231.448 91.4835C232.027 91.2221 232.456 90.8675 232.736 90.3821C233.278 89.4488 233.147 88.2728 232.363 86.8541C231.71 85.6781 230.814 84.6888 229.731 83.8861C229.731 79.4808 228.331 61.8595 205.8 61.3555C205.763 61.3555 205.744 61.3555 205.707 61.3555C205.67 61.3555 205.651 61.3555 205.614 61.3555C182.971 61.8595 181.683 79.6675 181.683 83.9421C181.776 83.8675 181.888 83.7928 181.982 83.7181C180.806 84.5208 179.816 85.5848 179.144 86.8355C178.36 88.2541 178.23 89.4301 178.771 90.3635C179.088 90.9048 179.536 91.2781 180.152 91.5395ZM227.416 212.574C228.966 215.859 230.59 219.761 231.803 222.803H180.694C181.926 219.742 183.55 215.822 185.099 212.537C189.71 213.153 197.307 213.937 206.528 213.937C213.64 213.937 220.659 213.489 227.416 212.574ZM220.006 141.435C220.08 141.454 220.174 141.473 220.267 141.491C220.752 141.566 221.76 141.659 222.638 141.734L225.008 155.249C225.718 156.182 226.558 157.395 227.379 158.758C229.246 161.838 231.038 165.758 231.056 169.491C231.056 169.79 231.056 170.107 231.019 170.406C231 170.742 230.963 171.078 230.888 171.414C230.104 175.838 227.864 178.843 223.963 180.897C223.739 181.083 223.608 181.27 223.534 181.662C223.515 181.755 223.328 182.745 223.086 184.238C223.086 184.275 223.067 184.313 223.067 184.35C223.067 184.369 223.067 184.406 223.048 184.425C222.992 184.779 222.936 185.134 222.88 185.526C222.022 185.713 221.182 185.881 220.342 186.049C220.267 186.067 220.211 186.067 220.136 186.086C220.043 186.105 219.95 186.123 219.856 186.142C215.115 186.982 210.56 187.318 206.342 187.318C200.014 187.318 194.414 186.609 190.008 185.918C189.971 185.918 189.934 185.899 189.896 185.899C189.859 185.899 189.822 185.881 189.766 185.881C189.691 185.862 189.616 185.862 189.542 185.843C189.523 185.769 189.523 185.694 189.504 185.619C189.504 185.582 189.486 185.545 189.486 185.489C189.486 185.451 189.467 185.414 189.467 185.377C189.131 183.267 188.87 181.793 188.851 181.662C188.758 181.158 188.478 180.71 188.067 180.393C184.782 178.395 182.84 175.614 182.094 171.675C182.075 171.582 182.056 171.507 182.038 171.414C181.795 170.051 181.851 168.633 182.112 167.214C182.896 162.865 185.566 158.534 187.507 155.846C187.619 155.697 187.712 155.547 187.824 155.417L187.992 154.427L188.496 151.609L190.27 141.454C190.307 141.454 190.326 141.454 190.382 141.454C190.942 141.454 192.51 141.435 193.182 141.155L193.032 144.758V154.353C193.051 154.465 193.387 162.958 202.683 164.395C202.347 164.657 202.142 165.086 202.142 165.534V165.87C202.142 166.673 202.795 167.345 203.616 167.345H203.635V167.793C202.832 167.979 202.067 168.297 201.339 168.689L200.704 167.998C200.424 167.699 200.032 167.531 199.622 167.531C199.248 167.531 198.894 167.662 198.632 167.923L197.251 169.193C196.654 169.734 196.616 170.667 197.176 171.265L197.886 172.03C197.027 173.467 196.579 175.091 196.579 176.79C196.579 181.83 200.63 185.937 205.632 186.049C205.707 186.049 205.782 186.049 205.856 186.049C205.894 186.049 205.95 186.049 205.987 186.049C211.046 185.974 215.115 181.849 215.115 176.79C215.115 175.11 214.667 173.467 213.808 172.03L214.518 171.265C214.779 170.985 214.928 170.593 214.91 170.201C214.891 169.809 214.723 169.435 214.443 169.174L213.062 167.905C212.782 167.662 212.427 167.513 212.072 167.513C211.662 167.513 211.27 167.681 210.99 167.979L210.355 168.67C209.627 168.259 208.862 167.961 208.059 167.774V167.326H208.096C208.899 167.326 209.571 166.673 209.571 165.851V165.515C209.571 165.067 209.366 164.675 209.067 164.414C217.486 163.425 219.278 158.441 219.894 154.651C219.894 154.633 219.894 154.502 219.894 154.278C219.894 152.243 219.819 142.443 219.819 142.443L219.763 141.361C219.856 141.379 219.931 141.398 220.006 141.435ZM211.083 181.942C211.064 181.961 211.064 181.961 211.046 181.979C210.99 182.035 210.934 182.091 210.878 182.147C210.84 182.185 210.803 182.203 210.784 182.241C210.784 182.241 210.784 182.241 210.766 182.259C210.691 182.315 210.635 182.39 210.56 182.446L210.542 182.465C210.467 182.521 210.392 182.577 210.318 182.651L210.299 182.67C210.262 182.707 210.224 182.726 210.187 182.763C210.131 182.801 210.075 182.838 210.019 182.875C210 182.894 209.982 182.913 209.944 182.913C208.787 183.678 207.387 184.126 205.894 184.126C201.862 184.126 198.558 180.841 198.558 176.79C198.558 172.758 201.843 169.454 205.894 169.454C209.926 169.454 213.23 172.739 213.23 176.79C213.211 178.787 212.408 180.617 211.083 181.942ZM216.31 138.99C216.478 139.195 216.683 139.419 216.926 139.625C217.318 139.979 217.784 140.315 218.363 140.595C218.438 140.633 218.512 140.67 218.587 140.707L218.382 141.118L217.056 143.843L212.576 153.027L212.016 154.166L211.251 155.753L210.392 157.507L209.366 159.635L207.648 163.163L207.536 163.406L207.219 164.059H204.587L204.214 163.145L202.086 157.993L201.32 156.107L200.63 154.427L200.014 152.953L195.963 143.115L194.787 140.259C195.198 139.998 195.664 139.662 196.131 139.251C196.448 138.99 196.747 138.71 197.046 138.393L202.72 152.169L204.326 156.051L205.427 158.702L206.024 160.139L207.2 157.713L208.339 155.361L210.094 151.739L216.31 138.99ZM206.024 115.899C200.592 115.899 195.87 113.006 193.536 108.787C196.915 110.355 201.264 111.307 206.024 111.307C210.784 111.307 215.134 110.355 218.512 108.787C216.16 113.006 211.456 115.899 206.024 115.899ZM192.846 75.5048C194.918 71.2115 197.848 67.9821 201.451 65.9848C200.742 65.4995 200.312 64.9208 200.312 64.2861C200.312 64.1928 200.331 64.0995 200.35 64.0061C202.011 63.7075 203.784 63.5395 205.688 63.5021H205.726H205.763C208.134 63.5581 210.318 63.8008 212.296 64.2488C212.296 64.2675 212.296 64.2675 212.296 64.2861C212.296 65.0515 211.68 65.7608 210.654 66.2835C214.032 68.2995 216.795 71.4355 218.755 75.5235C219.67 77.4461 220.286 79.2568 220.678 80.7128C219.894 80.5261 219.11 80.3581 218.326 80.1901C217.038 76.0835 214.107 69.8675 207.686 67.1235C207.238 67.1795 206.79 67.1981 206.304 67.1981C205.558 67.1981 204.848 67.1235 204.195 67.0115C197.606 69.6995 194.6 76.0088 193.294 80.1715C192.51 80.3395 191.726 80.5075 190.942 80.6941C191.334 79.2195 191.931 77.4088 192.846 75.5048ZM181.011 87.8995C181.87 86.3501 183.307 85.1741 185.08 84.5768C192.043 82.2061 199.006 80.9741 205.782 80.9555C212.558 80.9741 219.52 82.2061 226.483 84.5768C228.238 85.1741 229.694 86.3688 230.552 87.8995C231 88.7021 231.038 89.1875 230.944 89.3555C230.832 89.5608 230.291 89.8035 229.134 89.8408C227.846 89.7288 226.334 89.1128 224.262 88.2355C224 88.1235 223.72 88.0115 223.44 87.8808C217.803 85.5475 211.867 84.3341 205.8 84.2781C199.734 84.3341 193.798 85.5288 188.16 87.8808C187.88 87.9928 187.6 88.1235 187.339 88.2355C185.267 89.1128 183.755 89.7288 182.467 89.8408C181.328 89.8035 180.787 89.5608 180.656 89.3555C180.526 89.1875 180.563 88.7021 181.011 87.8995Z" fill="#FF003B"/>
<path d="M228.592 69.7002C229.376 70.9508 230.01 72.2388 230.533 73.4895C231.112 73.4522 231.709 73.5642 232.344 73.9375C236.6 77.8948 238.074 86.4815 237.626 89.2442C236.88 93.8362 236.656 103.319 245.41 106.81C254.165 110.319 261.072 103.45 261.613 98.1482C254.762 105.223 245.504 100.444 248.472 91.7828C251.44 83.1215 256.722 74.8148 249.872 62.7935C244.533 53.4228 227.808 48.7188 218.232 53.3668C218.232 53.3668 218.213 53.3668 218.213 53.3855C217.261 53.8522 216.365 54.4122 215.562 55.0842C214.256 56.0548 212.706 57.4175 211.53 59.0975C214.834 59.6388 217.802 60.6282 220.397 62.0282C223.794 63.8948 226.538 66.4708 228.592 69.7002Z" fill="#FF003B"/>
<path d="M44.2214 208.191C47.1521 201.975 47.1521 183.103 47.1521 183.103C47.1521 183.103 48.7947 180.62 50.9974 177.129C52.8827 180.62 54.5254 186.444 55.6454 193.724C55.8881 195.329 56.0934 196.897 56.2614 198.372C56.6907 198.185 57.1574 198.036 57.6241 197.924C58.0721 197.812 58.5387 197.756 59.0054 197.719C58.8374 196.263 58.6321 194.769 58.4081 193.295C57.4934 187.415 55.7947 179.444 52.8454 174.74C52.7894 174.647 52.7334 174.553 52.6774 174.441C50.0827 170.036 48.8507 161.897 48.4774 157.903C54.9174 153.796 56.8961 137.463 57.4001 131.433C57.7547 131.228 58.1467 131.023 58.5574 130.799C59.6027 130.201 60.8347 129.511 62.1787 128.727H62.7014C64.0827 136.212 69.9067 142.185 77.2987 143.791C78.5121 144.052 79.7627 144.201 81.0507 144.22C81.1254 144.22 81.2001 144.22 81.2747 144.22H81.4614H82.7867H82.9734C88.2374 144.22 93.0161 142.036 96.4507 138.545C98.4294 136.529 99.9601 134.084 100.893 131.359C101.173 130.5 101.416 129.623 101.584 128.727H102.107C102.331 128.857 102.555 128.988 102.779 129.119C103.339 129.436 103.88 129.753 104.403 130.052C105.336 130.575 106.176 131.06 106.885 131.452C107.408 137.463 109.368 153.796 115.808 157.921C115.435 161.953 114.184 170.297 111.496 174.647C111.477 174.684 111.459 174.721 111.44 174.74C108.491 179.444 106.792 187.415 105.877 193.295C105.168 197.924 104.701 202.908 104.683 205.839C105.149 205.969 105.616 206.119 106.083 206.324C106.493 206.492 106.923 206.697 107.352 206.921C107.408 206.921 107.464 206.903 107.501 206.903C107.408 204.961 107.744 199.567 108.659 193.743C109.779 186.537 111.403 180.732 113.269 177.223C115.771 180.9 117.637 183.569 117.637 183.569C117.637 183.569 124.301 200.089 128.371 205.615C129.453 207.089 130.891 208.676 132.421 210.188C132.309 211.233 131.936 215.545 133.149 219.428C133.205 219.372 133.243 219.316 133.299 219.279L133.317 219.26C133.373 219.204 133.429 219.148 133.485 219.092C133.672 218.924 133.877 218.756 134.101 218.607C134.437 218.364 134.811 218.159 135.184 217.991C135.427 217.879 135.688 217.785 135.931 217.711C136.043 217.673 136.173 217.636 136.285 217.617C136.547 217.561 136.808 217.505 137.088 217.468C137.349 217.431 137.629 217.412 137.909 217.412C138.077 217.412 138.245 217.412 138.413 217.431C138.731 217.449 139.048 217.505 139.347 217.561C140.224 217.748 141.064 218.121 141.792 218.644C142.035 218.812 142.277 219.017 142.483 219.223L145.675 222.284L145.992 222.601L146.085 222.695C146.925 223.497 147.504 224.468 147.803 225.532C147.803 225.551 147.821 225.569 147.821 225.588C147.971 226.111 148.027 226.652 148.027 227.212C148.027 227.604 147.989 227.996 147.915 228.388C147.859 228.687 147.784 228.967 147.691 229.265C147.653 229.377 147.616 229.489 147.56 229.601L148.493 230.292L149.501 231.039C149.576 231.095 149.651 231.151 149.725 231.188C151.219 232.121 153.216 231.767 154.28 230.348L155.755 228.388L157.453 226.111C157.509 226.036 157.547 225.961 157.603 225.905C157.659 225.812 157.733 225.7 157.771 225.588C157.845 225.439 157.901 225.271 157.957 225.121C157.957 224.785 157.92 224.449 157.883 224.132C157.827 223.684 157.715 223.255 157.584 222.844C157.453 222.415 157.267 222.004 157.08 221.612C157.005 221.481 156.949 221.351 156.875 221.22C156.389 220.361 155.792 219.596 155.12 218.887C154 217.692 152.693 216.703 151.573 215.937C150.92 215.489 150.323 215.116 149.856 214.836C149.725 214.761 149.595 214.668 149.483 214.593C149.221 214.425 148.885 214.425 148.624 214.593L147.989 215.004L146.477 215.975C144.704 217.132 142.483 217.02 140.877 215.825C140.523 215.564 140.187 215.247 139.888 214.873C139.384 214.22 139.048 213.436 138.917 212.633C138.899 212.484 138.88 212.316 138.861 212.167C138.861 212.129 138.861 212.111 138.861 212.073C138.843 211.775 138.861 211.476 138.899 211.177C138.899 211.121 138.917 211.065 138.917 211.009C139.048 210.225 139.365 209.497 139.832 208.863L139.813 208.844L139.888 208.769C140.224 208.34 140.635 207.967 141.083 207.649V207.668C143.117 205.876 145.675 204.812 148.4 204.569C147.728 201.863 147.037 198.895 146.459 195.833C144.368 185.081 138.171 176.737 135.221 175.561C134.624 165.425 130.965 156.764 130.965 156.764C130.965 156.764 132.216 153.087 130.013 144.836C126.112 130.425 110.264 129.735 110.264 129.735C110.003 129.716 109.76 129.697 109.517 129.697L108.248 129.007C107.203 128.428 106.139 127.831 105.075 127.215C102.256 125.46 98.9707 123.015 95.6481 120.812C94.9947 119.804 94.6401 114.708 94.4347 111.049C102.797 105.785 108.528 95.0708 108.528 82.6948C108.528 82.6388 108.528 82.5828 108.528 82.5268C108.528 81.8548 108.509 81.2015 108.453 80.5481C111.739 66.3615 105.56 62.4601 104.739 61.1721C107.24 59.8655 107.427 49.1321 107.053 48.1055C105.765 51.5588 95.1254 51.2788 82.0027 50.2521C68.8801 49.2255 65.3334 55.4788 63.6721 57.4388C50.2881 62.9455 55.8321 76.6841 57.1574 79.5401C57.0454 80.5108 56.9707 81.5188 56.9707 82.5268C56.9707 82.5828 56.9707 82.6388 56.9707 82.6948C56.9707 94.9961 62.6267 105.655 70.9147 110.956C70.7281 114.689 70.3547 119.748 69.6827 120.812C65.7814 123.388 61.8987 125.665 58.9867 127.327V127.345C57.9974 127.905 57.0267 128.465 56.0374 129.007L54.9734 129.604C52.9387 129.305 50.4747 129.492 47.5067 130.295C47.5067 130.295 32.0694 133.991 31.0241 148.924C30.4267 157.455 32.3494 160.815 32.3494 160.815C32.3494 160.815 27.0107 168.617 28.3361 178.679C25.6667 180.396 22.4561 190.588 22.4561 201.545C22.4561 212.503 22.4561 225.345 22.4561 225.345H37.4454C37.5014 225.327 41.2907 214.407 44.2214 208.191ZM70.5227 97.7401C73.9014 99.3081 78.2507 100.26 83.0107 100.26C87.7707 100.26 92.1201 99.3081 95.4987 97.7401C93.1654 101.959 88.4427 104.852 83.0107 104.852C77.5787 104.852 72.8747 101.977 70.5227 97.7401Z" fill="#FF003B"/>
<path d="M145.376 225.231C145.227 224.951 145.04 224.708 144.816 224.466C144.76 224.391 144.685 224.335 144.629 224.26L144.069 223.738L141.008 220.807C140.653 220.471 140.261 220.21 139.851 220.023C139.235 219.743 138.581 219.594 137.909 219.594C137.797 219.594 137.667 219.594 137.555 219.612C137.181 219.65 136.789 219.724 136.435 219.836C136.08 219.948 135.744 220.116 135.427 220.322C135.221 220.471 135.016 220.62 134.829 220.807L134.811 220.826L134.792 220.844C134.699 220.938 134.624 221.031 134.549 221.124C134.381 221.33 134.251 221.554 134.157 221.796C134.157 221.815 134.139 221.834 134.139 221.852C133.747 222.879 133.971 224.074 134.829 224.895L135.557 225.586L138.469 228.386L140.355 230.196C140.933 230.756 141.717 231.036 142.483 231.036C142.613 231.036 142.763 231.018 142.893 230.999C143.229 230.962 143.547 230.868 143.845 230.719C144.125 230.588 144.387 230.402 144.611 230.196L144.629 230.178C144.704 230.103 144.779 230.028 144.853 229.935C145.115 229.636 145.339 229.319 145.488 228.983C145.581 228.778 145.656 228.591 145.731 228.386C145.749 228.33 145.768 228.274 145.768 228.218C145.992 227.34 145.917 226.426 145.563 225.586C145.488 225.474 145.432 225.362 145.376 225.231Z" fill="#FF003B"/>
<path d="M151.05 81.8534C151.05 81.8907 151.05 81.9094 151.05 81.9094C151.05 81.9094 151.069 81.9094 151.088 81.8907C151.106 81.9094 151.106 81.9094 151.106 81.9094C151.106 81.9094 151.106 81.8907 151.106 81.8534C152.376 80.8641 172.424 64.9414 175.802 56.9707C179.293 48.7574 176.437 38.7894 169.437 34.7014C162.829 30.8561 154.896 33.6001 151.088 40.8054C147.28 33.6001 139.346 30.8374 132.738 34.7014C125.738 38.7894 122.882 48.7574 126.373 56.9707C129.733 64.9414 149.8 80.8641 151.05 81.8534Z" fill="#FF003B"/>
<path d="M111.235 225.607C111.608 224.319 111.888 223.012 112.056 221.668C112.579 221.37 113.214 220.94 113.848 220.343C115.603 218.626 116.238 216.348 115.622 213.903C115.062 211.7 113.512 210.17 111.272 209.628C110.246 209.386 108.92 209.348 107.8 209.516C107.427 209.572 107.091 209.647 106.774 209.74C106.643 209.666 106.512 209.572 106.382 209.498C105.878 209.199 105.392 208.956 104.907 208.751C103.395 208.135 101.976 207.967 100.651 208.266C100.296 207.276 99.8297 206.324 99.2697 205.41C97.9443 203.3 96.3203 201.938 94.8083 201.695C92.6057 201.322 90.3283 202.423 88.9843 203.244C87.9017 201.807 85.7177 199.604 82.6377 199.548C79.2777 199.474 76.7577 202.012 75.6937 203.3C74.7417 203.17 73.211 203.17 71.5123 204.028L71.4377 204.066L71.363 204.122C71.1577 204.271 70.971 204.42 70.7657 204.607C70.4857 203.898 70.075 203.263 69.5523 202.759C68.1897 201.434 66.1177 200.911 63.411 201.228C63.355 201.21 63.299 201.191 63.243 201.154C62.459 200.855 60.947 200.276 59.3043 200.351C58.8563 200.37 58.3897 200.426 57.923 200.556C57.5497 200.668 57.1577 200.818 56.7843 201.023C56.7097 201.06 56.635 201.116 56.5603 201.154C55.067 202.068 54.0217 203.711 53.443 206.044L53.4243 206.119L52.9017 209.908C52.2483 210.114 51.4457 210.524 50.867 211.327C50.4003 211.999 49.9337 213.175 50.4003 214.986C50.8857 216.89 51.2403 218.066 51.483 218.756C51.091 219.41 50.811 220.212 50.8297 221.071H50.5683C50.7363 222.62 51.035 224.132 51.4643 225.588C51.7443 226.54 52.0617 227.474 52.435 228.388C53.4243 230.815 54.7497 233.074 56.3737 235.127C57.139 236.116 57.979 237.05 58.875 237.927C64.5123 243.508 72.5203 246.999 81.3683 246.999C90.2163 246.999 98.2057 243.508 103.862 237.927C104.758 237.05 105.579 236.116 106.363 235.127C107.968 233.074 109.312 230.796 110.302 228.388C110.638 227.492 110.955 226.559 111.235 225.607ZM72.763 206.474C74.3683 205.69 75.6937 206.082 75.8243 206.119L76.739 206.474L77.3177 205.596C77.3363 205.559 79.5577 202.292 82.5257 202.292C82.5443 202.292 82.5817 202.292 82.6003 202.292C85.5683 202.348 87.491 205.764 87.5097 205.802L88.2377 207.146L89.4137 206.212C90.179 205.615 92.587 204.103 94.379 204.402C94.995 204.495 96.059 205.316 97.0483 206.922C97.4963 207.631 97.907 208.471 98.2243 209.423C96.9923 210.394 96.1897 211.7 95.7043 212.596C94.1363 212.092 92.699 212.111 91.411 212.69L94.603 208.004L88.3123 213.156C87.4163 212.578 86.259 212.148 84.7283 212.111C84.5417 212.111 84.3737 212.111 84.187 212.111C84.2057 212.036 84.2057 211.962 84.2243 211.887C84.355 211.159 84.4483 210.412 84.523 209.647C84.579 208.9 84.6163 208.135 84.5977 207.37C84.5977 207.183 84.579 206.978 84.579 206.791C84.579 206.604 84.5603 206.399 84.5417 206.212C84.5043 205.82 84.467 205.428 84.3737 205.018C84.131 205.354 83.9257 205.69 83.739 206.026C83.6457 206.194 83.5523 206.362 83.459 206.53C83.3657 206.698 83.291 206.866 83.1977 207.052C82.8617 207.743 82.6003 208.452 82.339 209.162C82.0963 209.871 81.8723 210.58 81.7043 211.308C81.6857 211.383 81.667 211.458 81.6483 211.532C81.3123 211.308 80.995 211.103 80.659 210.898C80.4163 210.748 80.1923 210.618 79.9497 210.487L79.5763 210.3C79.4457 210.244 79.3337 210.17 79.203 210.114C79.0723 210.058 78.9417 210.002 78.8297 209.946C78.699 209.89 78.5683 209.834 78.4377 209.778C78.307 209.722 78.1763 209.666 78.0457 209.628C77.915 209.572 77.7657 209.535 77.635 209.498C77.691 209.647 77.7657 209.778 77.8403 209.908C77.915 210.039 77.971 210.17 78.0457 210.3C78.1203 210.431 78.195 210.562 78.2697 210.674C78.3443 210.804 78.419 210.916 78.4937 211.047C78.5683 211.159 78.643 211.29 78.7363 211.402L78.979 211.756C79.147 211.98 79.315 212.204 79.483 212.428C79.7443 212.764 80.0243 213.1 80.3043 213.418C79.315 214.108 78.643 214.948 78.2137 215.62C77.2057 215.322 75.6563 215.042 74.051 215.415C74.051 215.247 74.0883 215.079 74.163 214.911C75.1337 212.783 75.3017 211.028 74.6297 209.572C74.163 208.546 73.323 207.743 72.091 207.183C72.2777 206.903 72.5017 206.66 72.763 206.474ZM83.011 220.25C83.0297 220.399 83.0483 220.548 83.067 220.716C83.0857 220.847 83.1043 220.959 83.123 221.09H72.8003C72.483 220.287 72.4457 219.578 72.819 219.167C74.8723 216.964 78.1763 218.476 78.307 218.551L79.5763 219.167L80.0803 217.804C80.1177 217.711 80.715 216.218 82.3017 215.415C82.3017 215.415 82.8617 215.079 83.5897 214.967V214.986C83.9257 214.93 84.299 214.892 84.7097 214.892C86.9497 214.948 87.8083 216.106 88.779 217.45C89.4137 218.327 90.0857 219.242 91.131 219.783C91.8963 220.194 92.6243 220.604 93.2403 221.09H84.5043C84.4483 221.034 84.411 220.978 84.355 220.94C84.1497 220.735 83.9443 220.53 83.7203 220.343C83.6083 220.25 83.4963 220.156 83.3843 220.063C83.2723 219.97 83.1417 219.876 83.011 219.802C82.9923 219.932 82.9923 220.1 83.011 220.25ZM53.9097 219.951L54.619 219.279L54.1523 218.364C54.115 218.271 53.7043 217.263 52.939 214.276C52.827 213.866 52.7523 213.306 52.9763 212.97C53.2377 212.578 53.9097 212.466 54.115 212.447L55.1977 212.428L56.0003 206.66C56.2057 205.858 56.467 205.186 56.803 204.663C57.139 204.103 57.5497 203.711 57.9977 203.45C58.035 203.431 58.091 203.394 58.1283 203.375C58.5577 203.17 59.043 203.076 59.5097 203.076C60.611 203.076 61.7123 203.487 62.347 203.73C62.7577 203.879 63.0003 203.972 63.3177 203.972H63.3923L63.467 203.954C65.483 203.692 66.9577 203.972 67.7603 204.738C68.4137 205.372 68.6937 206.38 68.6377 207.78L68.5817 208.938L69.6457 209.199C70.635 209.442 71.8857 209.89 72.2777 210.73C72.5763 211.364 72.4083 212.354 71.811 213.66C71.475 214.407 71.2697 215.396 71.587 216.572C71.363 216.759 71.139 216.964 70.915 217.207C70.1683 218.01 69.627 219.242 70.019 221.052H68.3203L68.3017 217.487L67.163 221.052H64.6803L63.5043 209.479L62.3657 219.074C62.235 218.924 62.1043 218.756 61.9737 218.607L58.9683 214.65L57.6803 212.951L57.4003 212.578C57.4003 212.578 57.4937 212.783 57.6803 213.138C57.9043 213.586 58.259 214.276 58.707 215.116C58.7817 215.247 58.8377 215.359 58.9123 215.49C59.0617 215.751 59.211 216.031 59.379 216.33C59.6217 216.759 59.8643 217.207 60.1443 217.674C60.4057 218.14 60.7043 218.607 60.9843 219.092C61.283 219.578 61.5817 220.063 61.8803 220.548C61.9923 220.716 62.0857 220.884 62.1977 221.052H58.5577H57.1577H55.7577H53.4617C53.387 220.623 53.6857 220.212 53.9097 219.951ZM108.304 225.607C108.286 225.663 108.267 225.719 108.248 225.775C107.95 226.671 107.595 227.548 107.203 228.407C106.848 229.172 106.456 229.938 106.008 230.666H56.6723C56.243 229.938 55.8323 229.172 55.4777 228.407C55.0483 227.492 54.6937 226.559 54.3763 225.607C54.3203 225.458 54.283 225.308 54.227 225.159H55.515H108.454C108.398 225.308 108.342 225.458 108.304 225.607ZM109.462 219.82L109.35 220.642C109.35 220.642 109.331 220.81 109.256 221.09H108.566H107.166H105.766H102.648C103.078 220.884 103.507 220.66 103.918 220.418C104.179 220.268 104.44 220.1 104.702 219.932C104.832 219.839 104.963 219.764 105.075 219.671C105.206 219.578 105.318 219.484 105.448 219.391C105.504 219.335 105.579 219.298 105.635 219.242C105.691 219.186 105.766 219.148 105.822 219.092C105.952 218.999 106.064 218.887 106.176 218.775C106.419 218.551 106.643 218.327 106.867 218.047C106.531 217.991 106.214 217.972 105.896 217.972C105.784 217.972 105.672 217.972 105.542 217.972C105.504 217.972 105.448 217.972 105.411 217.972C105.262 217.972 105.094 217.991 104.944 217.991C104.795 218.01 104.627 218.01 104.478 218.028C104.328 218.047 104.179 218.066 104.03 218.084C103.731 218.122 103.432 218.178 103.134 218.234C102.779 218.308 102.424 218.402 102.07 218.495C102.07 218.476 102.088 218.458 102.088 218.42C102.126 218.178 102.163 217.954 102.2 217.711L102.238 217.356C102.256 217.244 102.256 217.114 102.275 216.983C102.294 216.852 102.294 216.74 102.294 216.61C102.294 216.479 102.294 216.367 102.312 216.236C102.312 216.106 102.312 215.975 102.312 215.844C102.312 215.714 102.294 215.583 102.294 215.452C102.2 215.527 102.088 215.62 101.995 215.695C101.902 215.788 101.808 215.863 101.734 215.956C101.64 216.05 101.566 216.124 101.472 216.218C101.398 216.311 101.304 216.404 101.23 216.498C101.155 216.591 101.08 216.684 101.006 216.778L100.782 217.058C100.632 217.244 100.502 217.431 100.371 217.636C99.9417 218.252 99.5683 218.887 99.2323 219.559L96.619 220.922C95.4243 218.999 93.427 217.935 92.2697 217.338C91.8963 217.132 91.5417 216.759 91.187 216.274C91.4857 215.9 91.859 215.564 92.2697 215.34C93.203 214.855 94.3603 214.93 95.7417 215.583L96.003 215.714H96.283C97.123 215.714 97.459 215.023 97.7017 214.519C98.1497 213.623 99.1763 211.532 101.024 211.028C102.182 210.711 103.544 211.028 105.112 211.98C105.355 212.13 105.598 212.279 105.84 212.466L106.587 212.988L106.811 213.138L107.39 212.428C107.52 212.391 107.707 212.335 107.95 212.298C108.827 212.148 110.339 212.074 111.515 212.671C112.299 213.063 112.803 213.716 113.027 214.631C113.382 216.068 113.064 217.263 112.056 218.29C111.198 219.148 110.171 219.559 110.152 219.559L109.462 219.82Z" fill="#FF003B"/>
</svg>
