<svg width="280" height="280" viewBox="0 0 280 280" fill="none" xmlns="http://www.w3.org/2000/svg">
<path d="M141.318 66.4426C147.277 67.1645 152.792 69.3901 157.163 72.8878C157.331 73.0227 157.497 73.1575 157.659 73.2951C158.8 71.9848 160.606 70.5792 162.615 71.7601C166.748 75.6119 168.196 83.9654 167.763 86.6595C167.042 91.1325 166.819 100.348 175.332 103.757C183.844 107.167 190.562 100.497 191.103 95.3344C184.44 102.217 175.436 97.5709 178.317 89.1412C181.198 80.7115 186.346 72.6318 179.683 60.9318C174.495 51.821 158.224 47.2404 148.904 51.7624L148.902 51.7611C148.902 51.7611 148.893 51.7652 148.878 51.7733C147.945 52.2283 147.081 52.7758 146.306 53.4187C143.442 55.5448 139.413 59.5929 140.834 64.8422C140.996 65.4252 141.158 65.9577 141.318 66.4426Z" fill="#FF003B"/>
<path d="M64 211.395V217.958H108.869C107.496 215.921 106.373 213.721 105.547 211.395H64Z" fill="#FF003B"/>
<path d="M167.663 204.028C168.498 203.212 169.069 202.264 169.368 201.233C169.341 201.324 169.314 201.417 169.283 201.507C175.517 196.175 181.389 190.873 182.722 188.956C182.752 188.916 182.779 188.873 182.806 188.83C182.816 188.815 182.826 188.802 182.834 188.787C182.849 188.761 182.865 188.735 182.88 188.708C182.91 188.656 182.934 188.607 182.954 188.562C182.956 188.555 182.959 188.548 182.962 188.542C182.989 188.48 183.015 188.415 183.039 188.348C183.041 188.344 183.042 188.34 183.045 188.336C183.061 188.292 183.076 188.247 183.091 188.201C183.246 187.741 183.316 187.294 183.31 186.868C183.7 180.166 176.796 162.902 173.942 155.991C170.658 148.036 166.778 140.57 164.24 136.662C162.08 133.335 156.026 133.549 152.34 133.513C147.484 133.335 145.124 127.396 144.736 126.64C144.546 125.672 144.451 124.403 144.413 123.081C154.642 119.182 162.073 107.425 162.073 93.525H162.071C162.071 93.4678 162.073 93.4105 162.073 93.3533C162.073 79.8554 150.847 68.9141 137.001 68.9141C123.153 68.9141 111.928 79.8554 111.928 93.3533C111.928 93.4105 111.929 93.4678 111.931 93.525H111.928C111.928 107.425 119.359 119.182 129.588 123.081C129.55 124.35 129.462 125.57 129.287 126.523C129.287 126.523 126.961 133.325 121.614 133.515C121.224 133.519 120.81 133.519 120.377 133.522C118.567 132.824 114.323 131.943 105.092 132.891C99.0758 132.135 92.9942 131.616 91.9141 131.63C91.9141 131.63 87.4479 131.472 83.37 131.898C80.1024 132.24 77.6357 135.016 77.6698 138.301C77.7215 143.264 78.4598 150.944 80.9809 157.815C81.0041 157.752 81.0286 157.691 81.0518 157.637C81.5217 156.547 82.3117 155.745 82.9954 155.21C83.2297 154.251 83.6247 153.066 84.258 152.257C84.8927 151.448 85.8802 150.965 87.5624 150.644C88.6588 150.436 89.9732 150.32 91.263 150.32C92.0789 150.32 93.0582 150.366 94.0811 150.512C94.0825 147.79 93.9613 144.067 93.4791 140.043C93.5077 140.089 93.5363 140.136 93.5649 140.182C93.6929 140.4 93.8155 140.622 93.9259 140.849C94.1547 141.303 94.3495 141.77 94.5401 142.241C94.912 143.187 95.2253 144.152 95.5195 145.125C95.623 145.494 95.7292 145.864 95.8314 146.236L103.08 147.781C104.074 147.993 105.057 148.26 106.021 148.58C108.155 149.29 111.965 150.615 113.959 151.667C113.459 152.559 112.975 153.507 112.541 154.493C110.889 158.246 110.319 161.678 110.848 164.696C111.643 169.233 113.831 172.61 117.527 175.004C117.632 175.594 117.869 176.955 118.135 178.676L118.437 180.636L120.396 180.95C120.879 181.027 121.382 181.106 121.904 181.184V185.542C120.949 185.331 119.851 185.293 118.613 185.435C118.559 185.414 118.499 185.391 118.444 185.371C117.289 184.931 114.584 183.901 112.157 185.241C110.599 186.102 109.509 187.746 108.915 190.131L108.898 190.203L108.384 193.896C107.748 194.093 106.966 194.488 106.41 195.276C105.954 195.923 105.503 197.065 105.951 198.833C106.423 200.692 106.774 201.834 107.002 202.5C106.622 203.128 106.348 203.919 106.364 204.753H106.105C107.663 218.917 120.499 230.001 136.051 230.001C151.395 230.001 164.092 219.212 165.928 205.323C166.426 205.04 167.06 204.618 167.663 204.028ZM168.716 176.225C170.084 178.618 171.57 181.027 173.068 183.142C171.04 184.661 166.342 188.984 161.568 193.532C161.283 193.581 161.014 193.643 160.77 193.719C158.63 192.362 156.636 191.885 154.83 192.297C154.807 192.234 154.782 192.172 154.759 192.107L155.367 186.951C155.383 186.948 155.399 186.944 155.417 186.941C155.462 186.354 155.518 185.748 155.58 185.136L155.952 181.977C156.027 181.411 156.103 180.857 156.18 180.32C156.557 177.696 156.936 175.519 157.064 174.803C157.064 174.803 158.881 174.146 160.432 171.694C161.843 169.463 162.948 166.931 162.827 164.373C164.157 167.437 166.191 171.809 168.716 176.225ZM125.137 114.645C127.413 110.537 131.998 107.728 137.287 107.728C142.576 107.728 147.16 110.537 149.436 114.645C146.147 113.111 141.911 112.186 137.287 112.186C132.663 112.186 128.427 113.11 125.137 114.645ZM120.825 178.261C120.472 175.974 120.171 174.327 120.148 174.196C120.058 173.709 119.786 173.272 119.388 172.956C116.127 170.978 114.226 168.187 113.53 164.225C112.54 158.582 116.652 152.03 119.155 148.665L121.539 135.072C121.964 135.074 123.661 135.066 124.369 134.788L124.221 138.287V147.617C124.246 147.722 124.601 156.723 134.835 157.537C134.832 157.495 134.83 157.451 134.828 157.408C134.827 157.363 134.824 157.318 134.826 157.273C134.824 157.228 134.819 157.184 134.816 157.138C134.802 156.958 134.813 156.769 134.789 156.584C134.782 156.49 134.774 156.394 134.766 156.299C134.753 156.205 134.733 156.113 134.718 156.017C134.693 155.824 134.631 155.641 134.575 155.455C134.549 155.361 134.508 155.272 134.473 155.181C134.436 155.091 134.403 154.997 134.362 154.909C134.275 154.734 134.2 154.549 134.101 154.379C133.918 154.029 133.7 153.698 133.476 153.382C133.247 153.067 133.002 152.774 132.754 152.503C132.505 152.235 132.254 151.988 132.007 151.774C131.764 151.558 131.529 151.366 131.316 151.202C131.102 151.04 130.908 150.904 130.748 150.794C130.422 150.576 130.23 150.467 130.23 150.467L130.32 150.209C130.32 150.209 130.335 150.212 130.362 150.216C130.391 150.222 130.432 150.23 130.487 150.241C130.595 150.263 130.752 150.299 130.949 150.352C131.147 150.406 131.385 150.479 131.653 150.577C131.922 150.677 132.227 150.792 132.547 150.948C132.87 151.099 133.211 151.285 133.566 151.501C133.921 151.716 134.278 151.977 134.639 152.267C134.988 152.57 135.349 152.897 135.665 153.281C135.833 153.465 135.978 153.672 136.13 153.875C136.205 153.978 136.271 154.087 136.341 154.195C136.403 154.291 136.468 154.388 136.524 154.489C136.58 154.388 136.645 154.291 136.707 154.195C136.777 154.087 136.844 153.978 136.918 153.875C137.07 153.672 137.216 153.465 137.383 153.281C137.699 152.897 138.06 152.57 138.409 152.267C138.77 151.976 139.127 151.716 139.482 151.501C139.838 151.285 140.178 151.099 140.501 150.948C140.821 150.791 141.126 150.677 141.395 150.577C141.664 150.479 141.901 150.406 142.099 150.352C142.296 150.299 142.452 150.261 142.561 150.241C142.615 150.23 142.657 150.222 142.686 150.216C142.713 150.212 142.728 150.209 142.728 150.209L142.818 150.467C142.818 150.467 142.626 150.574 142.3 150.794C142.14 150.904 141.946 151.04 141.732 151.202C141.519 151.366 141.286 151.558 141.041 151.774C140.794 151.988 140.543 152.235 140.294 152.503C140.046 152.774 139.801 153.067 139.572 153.382C139.348 153.699 139.128 154.029 138.947 154.379C138.848 154.549 138.774 154.733 138.686 154.909C138.645 154.997 138.612 155.091 138.575 155.181C138.54 155.272 138.499 155.361 138.473 155.455C138.417 155.641 138.355 155.824 138.33 156.017C138.315 156.113 138.295 156.205 138.282 156.299C138.274 156.394 138.267 156.49 138.259 156.584C138.235 156.769 138.246 156.958 138.232 157.138C138.229 157.183 138.224 157.228 138.222 157.273C138.224 157.318 138.221 157.363 138.22 157.408C138.218 157.458 138.216 157.509 138.212 157.559C147.755 157.054 149.681 151.841 150.315 147.92C150.343 147.74 150.255 136.047 150.255 136.047L150.209 134.986C150.346 135.044 150.501 135.091 150.676 135.117C151.147 135.186 152.136 135.283 152.988 135.36L155.301 148.515C157.792 151.833 162.045 158.496 161.04 164.225C160.284 168.533 158.102 171.456 154.297 173.454C154.078 173.631 153.947 173.816 153.878 174.195C153.855 174.32 153.578 175.835 153.245 177.971C140.293 180.883 128.568 179.5 120.825 178.261ZM142.864 197.06C141.99 196.493 140.872 196.089 139.377 196.049C139.198 196.045 139.025 196.047 138.853 196.053C138.867 195.981 138.88 195.909 138.893 195.837C139.018 195.119 139.113 194.396 139.176 193.663C139.236 192.93 139.27 192.192 139.251 191.44C139.249 191.253 139.241 191.064 139.23 190.875C139.224 190.687 139.205 190.496 139.192 190.305C139.155 189.924 139.113 189.54 139.029 189.148C138.793 189.466 138.6 189.793 138.412 190.123C138.323 190.289 138.228 190.454 138.146 190.62C138.06 190.786 137.977 190.954 137.9 191.123C137.578 191.794 137.31 192.478 137.069 193.167C136.829 193.858 136.623 194.556 136.446 195.261C136.429 195.331 136.412 195.402 136.395 195.473C136.077 195.259 135.754 195.049 135.423 194.852C135.195 194.716 134.962 194.585 134.726 194.457L134.368 194.27C134.249 194.208 134.125 194.152 134.004 194.092C133.883 194.032 133.758 193.979 133.634 193.923C133.511 193.866 133.382 193.817 133.255 193.764C133.127 193.713 132.998 193.663 132.866 193.617C132.735 193.57 132.6 193.527 132.462 193.489C132.522 193.625 132.586 193.756 132.653 193.884C132.718 194.013 132.789 194.137 132.859 194.261C132.931 194.382 132.999 194.507 133.074 194.625C133.147 194.743 133.22 194.864 133.297 194.979C133.374 195.093 133.448 195.213 133.527 195.325L133.764 195.662C133.925 195.884 134.087 196.102 134.256 196.315C134.515 196.644 134.786 196.962 135.06 197.272C134.1 197.941 133.446 198.765 133.03 199.423C132.046 199.133 130.539 198.859 128.988 199.221C128.988 199.051 129.02 198.888 129.091 198.731C130.043 196.658 130.19 194.962 129.543 193.546C129.084 192.543 128.267 191.774 127.067 191.218C127.238 190.955 127.446 190.724 127.699 190.532C129.267 189.77 130.553 190.152 130.674 190.191L131.565 190.536L132.13 189.688C132.152 189.656 134.307 186.475 137.195 186.475C137.221 186.475 137.249 186.475 137.274 186.477C140.163 186.535 142.039 189.857 142.055 189.887L142.772 191.195L143.923 190.295C144.672 189.708 147.002 188.25 148.752 188.54C149.349 188.64 150.384 189.434 151.353 190.985C151.78 191.67 152.185 192.501 152.498 193.419C151.291 194.362 150.511 195.628 150.045 196.506C148.526 196.008 147.13 196.042 145.877 196.605L148.987 192.042L142.864 197.06ZM137.672 203.945C137.686 204.095 137.701 204.245 137.721 204.39C137.736 204.513 137.755 204.634 137.776 204.754H127.739C127.438 203.968 127.387 203.291 127.759 202.889C129.748 200.74 132.964 202.221 133.094 202.282L134.326 202.888L134.811 201.553C134.843 201.469 135.419 200.018 136.969 199.23C136.969 199.23 137.516 198.907 138.227 198.787L138.22 198.811C138.555 198.75 138.917 198.719 139.312 198.73C141.498 198.786 142.318 199.912 143.269 201.216C143.891 202.07 144.536 202.953 145.553 203.489C146.306 203.885 147.012 204.29 147.607 204.755H139.108C139.06 204.706 139.015 204.655 138.968 204.606C138.767 204.407 138.563 204.211 138.345 204.024C138.237 203.929 138.124 203.837 138.01 203.748C137.893 203.659 137.777 203.569 137.648 203.486C137.65 203.641 137.661 203.792 137.672 203.945ZM109.354 203.664L110.04 203.015L109.594 202.128C109.553 202.033 109.151 201.062 108.41 198.144C108.308 197.741 108.231 197.195 108.449 196.879C108.708 196.504 109.357 196.387 109.551 196.376L110.612 196.361L111.394 190.741C111.8 189.155 112.454 188.103 113.338 187.615C114.769 186.825 116.663 187.546 117.572 187.892C117.974 188.044 118.215 188.137 118.512 188.137H118.591L118.67 188.126C120.626 187.869 122.073 188.136 122.853 188.896C123.48 189.507 123.766 190.503 123.702 191.851L123.649 192.974L124.69 193.224C125.649 193.455 126.871 193.9 127.243 194.712C127.529 195.337 127.378 196.3 126.794 197.572C126.46 198.299 126.26 199.265 126.584 200.408C126.362 200.59 126.142 200.793 125.931 201.022C125.209 201.803 124.67 202.996 125.064 204.754H123.369L123.36 201.288L122.247 204.753H119.827L118.689 193.491L117.589 202.817C117.462 202.667 117.337 202.516 117.211 202.366L112.756 196.497C112.756 196.497 113.24 197.5 114.031 198.971C114.23 199.337 114.444 199.736 114.678 200.153C114.91 200.573 115.159 201.011 115.42 201.462C115.678 201.917 115.96 202.377 116.239 202.85C116.522 203.32 116.819 203.792 117.113 204.268C117.218 204.429 117.322 204.591 117.427 204.753H108.921C108.854 204.316 109.133 203.908 109.354 203.664ZM160.048 214.08H112.051C111.043 212.383 110.249 210.582 109.682 208.711H162.417C161.85 210.581 161.056 212.382 160.048 214.08ZM163.404 203.524L163.295 204.325C163.294 204.332 163.269 204.495 163.198 204.753H156.77C157.19 204.555 157.606 204.34 158.013 204.102C158.269 203.952 158.522 203.794 158.772 203.626C158.897 203.543 159.021 203.456 159.144 203.368C159.266 203.279 159.389 203.186 159.51 203.091C159.633 202.998 159.751 202.9 159.871 202.8C159.991 202.703 160.107 202.593 160.225 202.489C160.457 202.271 160.687 202.048 160.903 201.781C160.575 201.725 160.262 201.71 159.951 201.7C159.797 201.702 159.642 201.696 159.491 201.703C159.338 201.707 159.186 201.713 159.036 201.725C158.885 201.734 158.735 201.747 158.586 201.762C158.438 201.778 158.291 201.796 158.144 201.818C157.85 201.86 157.56 201.91 157.272 201.97C156.925 202.042 156.58 202.129 156.241 202.225C156.245 202.203 156.251 202.183 156.255 202.161C156.298 201.932 156.334 201.7 156.366 201.466L156.409 201.113C156.424 200.996 156.43 200.875 156.443 200.757C156.455 200.638 156.459 200.515 156.467 200.394C156.475 200.274 156.475 200.149 156.479 200.028C156.481 199.904 156.482 199.78 156.477 199.655C156.474 199.529 156.467 199.401 156.454 199.272C156.354 199.351 156.261 199.433 156.172 199.516C156.08 199.599 155.996 199.685 155.91 199.769C155.828 199.856 155.741 199.941 155.664 200.029C155.585 200.118 155.503 200.205 155.429 200.295C155.354 200.385 155.275 200.473 155.205 200.564L154.988 200.838C154.848 201.023 154.711 201.209 154.582 201.398C154.169 201.997 153.807 202.621 153.483 203.261L150.933 204.578C149.769 202.703 147.822 201.68 146.696 201.087C146.325 200.893 145.994 200.517 145.646 200.056C145.94 199.691 146.291 199.37 146.705 199.149C147.607 198.668 148.746 198.749 150.09 199.386L150.339 199.505H150.613C151.429 199.505 151.759 198.833 152 198.343C152.427 197.473 153.428 195.435 155.233 194.943C156.527 194.59 158.108 195.058 159.931 196.33L160.869 196.985L161.429 196.3C162.032 196.116 163.988 195.799 165.448 196.54C166.215 196.929 166.699 197.556 166.925 198.453C167.278 199.851 166.966 201.017 165.974 202.015C165.138 202.857 164.133 203.249 164.129 203.25L163.404 203.524Z" fill="#FF003B"/>
<path d="M166.55 211.395C165.723 213.721 164.6 215.922 163.228 217.958H216.177V211.395H166.55Z" fill="#FF003B"/>
<path d="M91.9188 177.856C91.8644 177.856 91.8099 177.856 91.754 177.854C90.268 177.841 88.6826 177.657 87.1966 177.406C87.183 177.839 87.1707 178.283 87.1585 178.736C87.0304 183.514 87.988 190.286 91.6233 190.286C91.6655 190.286 91.7077 190.284 91.7513 190.283C95.4915 190.122 95.96 186.453 95.215 182.096C94.9835 180.741 95.1415 179.071 95.4697 177.412C94.4509 177.706 93.2673 177.856 91.9188 177.856Z" fill="#FF003B"/>
<path d="M96.4035 172.864C98.1769 169.885 99.9258 155.675 96.5711 154.022C95.1082 153.302 93.106 153.039 91.2618 153.039C88.8782 153.039 86.7575 153.478 86.402 153.931C85.7714 154.736 85.4404 156.856 85.4404 156.856C85.4404 156.856 84.062 157.53 83.5526 158.711C83.0432 159.892 82.0434 166.996 82.2736 169.182C82.5038 171.368 83.0323 172.275 84.8002 172.762C84.8002 172.762 89.2691 174.163 92.7246 174.163C94.3918 174.162 95.8247 173.835 96.4035 172.864Z" fill="#FF003B"/>
</svg>
