<svg width="280" height="280" viewBox="0 0 280 280" fill="none" xmlns="http://www.w3.org/2000/svg">
<path d="M116.181 166.535C116.181 167.083 116.625 167.526 117.172 167.526C117.721 167.526 118.164 167.082 118.164 166.535C118.164 165.988 117.719 165.543 117.172 165.543C116.624 165.542 116.181 165.986 116.181 166.535Z" fill="#FF003B"/>
<path d="M126.288 149.43H121.355C120.3 149.43 119.44 150.289 119.44 151.344V151.77C119.44 152.826 120.3 153.685 121.355 153.685H121.385V154.274C120.342 154.528 119.345 154.919 118.406 155.441L117.578 154.544C117.217 154.153 116.705 153.93 116.17 153.93C115.687 153.93 115.225 154.11 114.871 154.437L113.078 156.094C112.302 156.811 112.255 158.025 112.97 158.801L113.898 159.805C112.779 161.672 112.192 163.794 112.192 165.992C112.192 171.055 115.327 175.399 119.759 177.185C119.895 176.353 120.04 175.496 120.192 174.618C116.96 173.089 114.719 169.798 114.719 165.992C114.719 160.793 118.902 156.555 124.08 156.46C124.808 153.764 125.548 151.413 126.288 149.43Z" fill="#FF003B"/>
<path d="M130.671 218.96C129.412 217.092 128.383 215.075 127.625 212.941H127.375C128.134 215.075 129.162 217.093 130.421 218.96H130.671Z" fill="#FF003B"/>
<path d="M103.978 205.898C111.808 208.696 117.214 209.901 119.182 210.29L119.223 210.335C119.25 210.37 119.278 210.404 119.305 210.439H127.108C126.847 209.35 126.652 208.242 126.528 207.119L126.223 204.348H127.078C126.879 203.676 126.669 202.901 126.448 202.031C126.368 201.716 126.311 201.403 126.27 201.094C123.472 199.965 121.48 198.692 120.205 197.225C119.275 196.154 118.721 194.954 118.567 193.703C115.701 191.451 112.789 189.096 110.994 187.472C109.04 185.7 104.941 183.788 100.905 182.183C100.157 179.708 99.2378 177.391 98.1175 175.607C95.6919 171.748 94.5616 164.227 94.2206 160.596C99.9697 156.928 101.728 142.358 102.188 136.989C103.314 136.366 104.785 135.537 106.446 134.568L106.91 134.566C108.295 142.1 114.731 147.921 122.545 148.36L112.291 130.489L114.508 129.337L124.69 146.676L133.965 130.32L136.2 131.435L130.211 142.276C131.183 141.278 132.312 140.607 133.639 140.505C135.555 140.211 137.524 140.202 139.113 140.195C139.23 140.195 139.345 140.194 139.458 140.194C140.063 139.189 140.568 138.118 140.956 136.993C141.598 137.346 142.314 137.731 143.023 138.087C143.78 137.079 144.251 136.008 144.411 135.615C144.437 135.445 144.461 135.265 144.482 135.077C144.374 135.023 144.266 134.969 144.159 134.913C141.116 133.326 138.393 131.065 136.065 128.193C132.3 123.548 129.89 117.696 129.08 111.365C127.853 111.739 126.544 111.942 125.185 111.942C120.336 111.942 116.13 109.366 114.045 105.599C117.061 107.006 120.945 107.854 125.185 107.854C126.422 107.854 127.627 107.78 128.791 107.643C128.781 107.284 128.774 106.926 128.774 106.565V106.439C128.774 106.429 128.774 106.417 128.774 106.407C128.774 106.374 128.774 106.339 128.774 106.305L128.775 104.067H128.884C129.125 101.523 129.762 99.0496 130.787 96.689C132.075 93.7214 133.917 91.0573 136.263 88.7704C136.667 88.3758 137.085 87.9961 137.513 87.6314C133.379 86.2612 129.089 85.5506 124.721 85.5156H124.713H124.706C119.293 85.5593 114 86.6397 108.974 88.7267C108.719 88.8329 108.473 88.9353 108.234 89.0352C106.384 89.8096 105.042 90.3716 103.885 90.4641C102.865 90.4366 102.38 90.218 102.275 90.0357C102.188 89.8833 102.225 89.4499 102.623 88.733C103.386 87.3553 104.672 86.3012 106.246 85.7641C112.461 83.6446 118.676 82.558 124.711 82.5343C130.069 82.5555 135.562 83.4135 141.071 85.0859C142.122 84.4639 143.221 83.9169 144.362 83.446C144.892 83.2274 145.428 83.0289 145.967 82.8478C145.35 77.0625 141.962 65.4719 124.753 65.0897V65.0859C124.726 65.0859 124.7 65.0872 124.672 65.0884C124.645 65.0884 124.618 65.0872 124.591 65.0859V65.0897C104.397 65.5381 103.235 81.4202 103.247 85.2458C102.315 85.939 101.542 86.8145 100.981 87.8262C100.284 89.0839 100.173 90.1418 100.65 90.9699C100.959 91.5057 101.47 91.8804 102.194 92.1015C102.194 92.1027 102.194 92.1052 102.194 92.1065C102.078 93.2056 102.017 94.3259 102.017 95.4625C102.017 98.6637 102.493 101.732 103.362 104.579C105.255 110.414 108.675 115.293 113.012 118.461C113.411 118.747 113.82 119.02 114.236 119.276C114.236 119.282 114.236 119.288 114.234 119.293C114.278 119.321 114.323 119.347 114.368 119.374C114.258 121.992 113.956 126.228 113.145 127.493C109.667 129.785 106.193 131.827 103.599 133.301L103.6 133.322C102.725 133.823 101.847 134.318 100.976 134.801L99.946 135.371C97.6179 134.461 94.5141 134.562 90.405 136.206C90.405 136.206 77.1332 141.127 77.8102 154.467C78.1974 162.083 80.2632 164.856 80.2632 164.856C80.2632 164.856 75.3834 179.901 80.0197 191.315C80.0197 191.315 80.0646 191.338 80.1533 191.373C80.834 192.586 81.6733 193.355 81.6733 193.355C81.6733 193.355 91.0057 200.899 99.6762 204.285C100.318 204.536 100.946 204.776 101.562 205.008C101.437 206.036 101.276 208.101 101.115 210.437H103.619C103.748 208.577 103.874 206.933 103.978 205.898ZM113.193 77.6869C115.032 73.8563 117.649 70.9737 120.869 69.1864C120.228 68.7605 119.85 68.2371 119.85 67.6701C119.85 67.5852 119.859 67.5015 119.876 67.4178C121.356 67.153 122.942 67.0006 124.633 66.9632L124.675 66.9619L124.712 66.9632C126.822 67.0106 128.768 67.2367 130.549 67.6364C130.549 67.6476 130.55 67.6588 130.55 67.6688C130.55 68.3558 129.993 68.9803 129.087 69.4424C132.101 71.2434 134.56 74.0337 136.314 77.6845C137.105 79.3319 137.679 81.0367 138.031 82.3169C137.331 82.1483 136.631 81.9935 135.933 81.8498C134.764 78.1853 132.085 72.6123 126.426 70.1843C126.032 70.2293 125.621 70.253 125.199 70.253C124.533 70.253 123.897 70.1943 123.309 70.0869C117.508 72.4587 114.754 78.1216 113.565 81.8361C112.878 81.976 112.191 82.1271 111.504 82.2907C111.859 81.018 112.427 79.2832 113.193 77.6869ZM103.921 92.3425L103.919 92.34H103.924L103.921 92.3425ZM97.8764 181.033C97.8764 181.033 97.8402 181.053 97.774 180.989C97.4805 180.882 97.1907 180.777 96.9059 180.675C96.9109 180.665 96.9159 180.655 96.9209 180.643C95.0137 179.919 90.6523 178.541 87.6022 179.707C90.335 178.485 91.5066 177.888 97.0471 178.448C97.1445 179.022 97.2369 179.468 97.3218 179.816C97.3406 179.777 97.3606 179.737 97.3793 179.697C97.5529 180.12 97.724 180.566 97.8914 181.034C97.8589 181.023 97.8277 181.011 97.7952 180.999C97.8489 181.021 97.8764 181.033 97.8764 181.033Z" fill="#FF003B"/>
<path d="M158.226 81.7352C163.69 82.3972 168.748 84.438 172.756 87.6454C172.909 87.7691 173.062 87.8927 173.21 88.0189C173.981 87.1359 175.08 86.2041 176.34 86.2041C176.794 86.2041 177.268 86.3253 177.755 86.6113C181.545 90.1434 182.872 97.8034 182.475 100.274C181.814 104.376 181.61 112.826 189.416 115.952C190.897 116.546 192.32 116.806 193.656 116.806C199.356 116.806 203.477 112.063 203.878 108.229C201.822 110.352 199.523 111.279 197.477 111.279C193.444 111.279 190.4 107.678 192.154 102.548C194.795 94.8184 199.516 87.4094 193.406 76.6806C189.915 70.5506 180.951 66.6562 173.05 66.6562C170.184 66.6562 167.457 67.1683 165.183 68.2724L165.182 68.2712C165.182 68.2712 165.173 68.2749 165.159 68.2824C164.304 68.6996 163.512 69.2017 162.801 69.7912C160.175 71.7409 156.48 75.4529 157.783 80.2664C157.93 80.8035 158.079 81.2906 158.226 81.7352Z" fill="#FF003B"/>
<path d="M204.819 116.367C201.39 116.19 200.433 122.484 200.513 126.917C200.521 127.332 200.528 127.739 200.537 128.136C201.902 127.919 203.357 127.763 204.72 127.763C206.019 127.763 207.153 127.91 208.123 128.2C207.836 126.677 207.705 125.144 207.929 123.903C208.645 119.914 208.247 116.544 204.819 116.367Z" fill="#FF003B"/>
<path d="M198.299 132.376C196.674 132.809 196.182 133.635 195.953 135.637C195.724 137.64 196.583 144.162 197.04 145.25C197.497 146.336 198.756 146.966 198.756 146.966C198.756 146.966 199.042 148.91 199.614 149.655C200.186 150.398 205.85 151.142 208.94 149.655C212.03 148.167 210.542 135.123 208.94 132.376C207.338 129.631 198.299 132.376 198.299 132.376Z" fill="#FF003B"/>
<path d="M182.766 152.264C181.876 153.033 180.795 153.348 179.857 153.556C179.02 153.742 177.639 153.836 175.752 153.836C174.796 153.836 171.583 153.807 170.371 153.44C170.269 153.408 170.17 153.373 170.073 153.336L170.69 156.453C171.403 157.404 172.275 158.654 173.108 160.086C173.357 160.515 173.604 160.96 173.841 161.418C175.345 164.321 176.496 167.742 175.949 170.861C175.256 174.811 173.254 177.49 169.764 179.322C169.563 179.485 169.443 179.655 169.379 180.002C169.358 180.117 169.105 181.506 168.799 183.464C163.598 184.631 158.614 185.044 154.058 185.044C148.205 185.044 143.058 184.362 139.067 183.723C138.743 181.626 138.468 180.116 138.446 179.996C138.363 179.548 138.114 179.148 137.749 178.858C134.759 177.043 133.015 174.484 132.378 170.851C131.471 165.675 135.243 159.668 137.54 156.583L139.616 145.571C140.171 145.535 141.289 145.44 142.366 145.226L142.675 157.119C142.656 157.288 142.534 163.961 151.895 164.719C151.887 164.568 151.892 164.41 151.872 164.255C151.865 164.168 151.859 164.081 151.851 163.994C151.84 163.907 151.821 163.822 151.807 163.735C151.785 163.558 151.728 163.39 151.676 163.219C151.653 163.133 151.615 163.052 151.583 162.968C151.549 162.886 151.519 162.8 151.481 162.718C151.402 162.559 151.333 162.389 151.242 162.233C151.074 161.912 150.874 161.608 150.668 161.318C150.459 161.03 150.234 160.761 150.006 160.513C149.778 160.267 149.548 160.041 149.322 159.844C149.098 159.646 148.884 159.47 148.688 159.32C148.491 159.171 148.314 159.046 148.167 158.945C147.868 158.745 147.692 158.645 147.692 158.645L147.786 158.412C147.792 158.413 147.801 158.414 147.812 158.417C147.838 158.422 147.876 158.429 147.927 158.439C148.026 158.459 148.169 158.493 148.35 158.542C148.531 158.59 148.75 158.658 148.996 158.748C149.242 158.839 149.522 158.945 149.815 159.088C150.111 159.226 150.425 159.397 150.75 159.595C151.076 159.792 151.403 160.032 151.733 160.298C152.052 160.575 152.383 160.875 152.673 161.227C152.827 161.396 152.96 161.586 153.1 161.772C153.169 161.867 153.229 161.966 153.294 162.065C153.35 162.154 153.41 162.243 153.461 162.335C153.512 162.243 153.572 162.154 153.628 162.065C153.693 161.966 153.755 161.867 153.822 161.772C153.962 161.586 154.096 161.396 154.249 161.227C154.539 160.875 154.87 160.575 155.19 160.298C155.521 160.031 155.848 159.792 156.174 159.595C156.5 159.397 156.812 159.226 157.108 159.088C157.402 158.944 157.681 158.839 157.927 158.748C158.175 158.658 158.392 158.59 158.573 158.542C158.754 158.493 158.897 158.458 158.997 158.439C159.047 158.429 159.085 158.422 159.112 158.417C159.137 158.413 159.15 158.411 159.15 158.411L159.233 158.647C159.233 158.647 159.057 158.745 158.758 158.946C158.611 159.048 158.433 159.173 158.237 159.321C158.041 159.471 157.828 159.647 157.603 159.846C157.377 160.042 157.147 160.268 156.918 160.514C156.691 160.762 156.466 161.031 156.256 161.32C156.05 161.611 155.849 161.913 155.683 162.234C155.592 162.39 155.524 162.559 155.443 162.72C155.406 162.801 155.376 162.887 155.342 162.969C155.31 163.053 155.272 163.134 155.248 163.22C155.197 163.392 155.14 163.559 155.117 163.736C155.104 163.824 155.085 163.909 155.074 163.995C155.066 164.082 155.06 164.17 155.052 164.256C155.031 164.418 155.039 164.584 155.029 164.743C163.768 164.276 165.533 159.501 166.113 155.906C166.125 155.834 166.108 153.793 166.086 151.531C165.998 151.486 165.914 151.44 165.832 151.39C165.124 150.954 164.628 150.232 164.224 149.048C163.98 148.335 163.776 147.48 163.637 146.575C163.438 145.291 163.214 142.877 163.88 140.789C162.142 139.094 161.22 136.821 160.998 136.39C160.856 135.665 160.773 134.757 160.726 133.789C170.277 130.343 177.254 119.46 177.254 106.564H177.252C177.252 106.512 177.254 106.459 177.254 106.407C177.254 94.0292 166.96 83.9961 154.263 83.9961C141.565 83.9961 131.272 94.0292 131.272 106.407C131.272 106.459 131.273 106.512 131.274 106.564H131.272C131.272 119.14 137.908 129.803 147.094 133.52C147.053 134.539 146.973 135.504 146.83 136.279C146.83 136.279 144.696 142.516 139.792 142.688C138.121 142.703 135.933 142.667 133.907 142.991C126.615 143.275 120.695 186.415 120.649 189.133C120.624 190.576 120.582 192.95 121.363 194.606C121.382 194.61 121.402 194.614 121.421 194.617C122.18 196.101 123.97 197.37 126.428 198.454C126.602 197.827 126.875 197.243 127.246 196.717C127.663 196.125 128.192 195.623 128.806 195.226L129.111 193.034L129.158 192.843C129.878 189.95 131.288 187.909 133.349 186.771C133.516 186.679 133.686 186.594 133.86 186.517C133.341 186.405 132.79 186.288 132.217 186.179C133 184.201 133.773 182.034 134.513 179.773C134.814 180.012 135.135 180.248 135.479 180.478C135.479 180.478 135.792 182.315 136.121 184.427C136.34 184.464 136.532 184.492 136.686 184.503C137.297 184.551 138.724 184.664 150.234 188.441C150.282 188.439 150.331 188.436 150.379 188.435C151.876 186.915 154.313 185.136 157.51 185.136C157.569 185.136 157.628 185.136 157.686 185.138C159.349 185.171 160.964 185.708 162.431 186.693C165.827 186.044 169.038 185.464 171.566 185.04C171.566 185.043 171.565 185.045 171.565 185.048C171.854 183.097 172.13 181.486 172.26 180.754C175.659 178.559 177.675 175.451 178.406 171.291C178.883 168.576 178.387 165.494 176.937 162.129C176.788 161.281 176.631 160.449 176.476 159.661C177.434 160.16 178.372 160.639 179.289 161.097C186.101 164.501 191.699 166.759 195.382 168.108C197.168 168.857 198.826 169.494 200.192 169.728C201.816 170.477 206.231 162.482 207.495 156.929C207.871 155.281 208.179 153.809 208.43 152.492C206.939 152.906 205.39 153.01 204.22 153.01C203.007 153.01 201.764 152.899 200.72 152.695C199.139 152.388 198.216 151.933 197.633 151.175C197.243 150.668 196.955 150.002 196.746 149.352C196.224 150.07 195.192 151.544 194.036 153.513C193.988 153.487 193.941 153.46 193.893 153.433L193.948 153.662L191.277 158.906C191.277 158.906 192.301 155.078 192.988 152.923C190.005 151.238 187.105 149.573 184.508 148.149C184.425 148.731 184.351 149.139 184.326 149.273C184.117 150.561 183.607 151.54 182.766 152.264ZM143.346 119.991C146.362 121.397 150.246 122.245 154.487 122.245C158.727 122.245 162.611 121.397 165.627 119.991C163.54 123.758 159.336 126.333 154.487 126.333C149.637 126.333 145.433 123.758 143.346 119.991Z" fill="#FF003B"/>
<path d="M176.362 192.935C175.97 192.735 175.557 192.609 175.138 192.539C175.185 192.629 175.233 192.719 175.278 192.81C175.637 192.828 175.998 192.87 176.362 192.935Z" fill="#FF003B"/>
<path d="M167.143 149.263C167.822 149.681 169.492 149.75 169.492 149.75C169.492 149.75 170.135 150.758 171.095 151.049C171.649 151.217 173.753 151.337 175.751 151.337C177.209 151.337 178.611 151.274 179.317 151.117C180.989 150.746 181.645 150.257 181.866 148.846C181.866 148.846 183.387 140.961 180.924 139.849C179.931 139.402 177.527 139.117 174.944 139.117C171.118 139.117 166.904 139.74 166.317 141.378C165.333 144.122 166.463 148.844 167.143 149.263Z" fill="#FF003B"/>
<path d="M156.469 230.001C166.12 230.001 174.628 225.346 179.565 218.312L180.067 217.566C180.302 217.205 180.527 216.839 180.743 216.468C182.351 213.701 183.435 210.629 183.866 207.372C184.325 207.112 184.905 206.725 185.458 206.184C187.025 204.65 187.589 202.613 187.042 200.446C186.545 198.475 185.163 197.124 183.154 196.639C181.951 196.35 180.258 196.382 179.137 196.732C177.175 195.488 175.346 195.051 173.69 195.428C173.373 194.547 172.959 193.691 172.455 192.88C171.277 190.993 169.829 189.783 168.482 189.559C166.511 189.232 164.479 190.208 163.294 190.937C162.322 189.661 160.382 187.694 157.637 187.638C154.632 187.574 152.39 189.834 151.446 190.985C150.603 190.872 149.224 190.873 147.715 191.64L147.641 191.677L147.573 191.726C147.395 191.851 147.218 191.995 147.044 192.158C146.788 191.519 146.426 190.964 145.96 190.508C144.744 189.322 142.9 188.861 140.478 189.137C140.428 189.118 140.373 189.097 140.323 189.078C139.264 188.675 136.784 187.73 134.558 188.959C133.129 189.749 132.13 191.256 131.586 193.443L131.569 193.51L131.098 196.896C130.515 197.077 129.798 197.439 129.289 198.161C128.87 198.754 128.457 199.802 128.868 201.423C129.3 203.128 129.622 204.175 129.831 204.785C129.482 205.361 129.231 206.087 129.246 206.851H129.009C129.396 210.366 130.541 213.674 132.287 216.629C136.991 224.593 146.066 230.001 156.469 230.001ZM140.55 196.522L139.54 205.074C139.424 204.936 139.309 204.798 139.194 204.66L135.109 199.279C135.109 199.279 135.552 200.198 136.278 201.547C136.46 201.883 136.656 202.249 136.871 202.631C137.084 203.016 137.312 203.418 137.552 203.831C137.788 204.248 138.047 204.67 138.303 205.104C138.562 205.535 138.835 205.968 139.104 206.404C139.201 206.551 139.296 206.7 139.392 206.849H131.592C131.529 206.448 131.785 206.074 131.988 205.849L132.617 205.254L132.208 204.441C132.17 204.353 131.802 203.463 131.122 200.787C131.028 200.418 130.959 199.917 131.158 199.627C131.396 199.284 131.99 199.176 132.169 199.166L133.142 199.152L133.859 193.999C134.231 192.544 134.83 191.58 135.641 191.133C136.954 190.408 138.69 191.069 139.524 191.386C139.893 191.526 140.114 191.611 140.386 191.611H140.458L140.531 191.601C142.324 191.365 143.651 191.61 144.366 192.307C144.941 192.868 145.203 193.781 145.145 195.017L145.096 196.046L146.051 196.276C146.931 196.487 148.051 196.896 148.392 197.64C148.654 198.213 148.516 199.096 147.98 200.263C147.674 200.93 147.49 201.815 147.787 202.863C147.584 203.031 147.383 203.217 147.189 203.426C146.527 204.142 146.033 205.236 146.394 206.849H144.84L144.831 203.67L143.809 206.849H141.59L140.55 196.522ZM152.873 193.037C152.893 193.007 154.869 190.091 157.518 190.091C157.542 190.091 157.567 190.091 157.591 190.092C160.24 190.146 161.96 193.192 161.975 193.22L162.632 194.419L163.687 193.593C164.374 193.055 166.511 191.718 168.116 191.985C168.663 192.076 169.612 192.804 170.5 194.226C170.892 194.855 171.263 195.617 171.551 196.458C170.444 197.323 169.728 198.484 169.301 199.289C167.909 198.833 166.628 198.864 165.479 199.38L168.331 195.196L162.718 199.796C161.916 199.276 160.89 198.905 159.52 198.869C159.355 198.865 159.197 198.866 159.039 198.873C159.052 198.806 159.064 198.74 159.076 198.674C159.191 198.016 159.278 197.353 159.335 196.681C159.39 196.009 159.422 195.332 159.404 194.642C159.403 194.471 159.394 194.298 159.385 194.124C159.379 193.952 159.362 193.777 159.35 193.602C159.317 193.252 159.278 192.9 159.201 192.54C158.985 192.833 158.807 193.132 158.635 193.435C158.554 193.587 158.466 193.738 158.391 193.89C158.313 194.043 158.236 194.196 158.165 194.351C157.87 194.967 157.624 195.594 157.403 196.226C157.183 196.859 156.995 197.5 156.833 198.146C156.816 198.211 156.801 198.276 156.785 198.341C156.494 198.145 156.198 197.952 155.895 197.771C155.685 197.646 155.471 197.526 155.255 197.409L154.927 197.238C154.818 197.18 154.704 197.129 154.593 197.074C154.482 197.019 154.367 196.97 154.253 196.919C154.141 196.867 154.022 196.822 153.906 196.773C153.789 196.727 153.67 196.681 153.549 196.638C153.429 196.596 153.305 196.556 153.179 196.521C153.234 196.646 153.293 196.766 153.354 196.883C153.414 197.002 153.479 197.115 153.543 197.229C153.609 197.34 153.671 197.455 153.74 197.562C153.807 197.671 153.874 197.782 153.945 197.887C154.015 197.992 154.084 198.102 154.156 198.204L154.373 198.514C154.521 198.718 154.669 198.918 154.824 199.112C155.061 199.415 155.31 199.706 155.561 199.991C154.681 200.604 154.081 201.359 153.7 201.963C152.797 201.697 151.416 201.446 149.993 201.778C149.993 201.622 150.023 201.472 150.088 201.328C150.961 199.427 151.096 197.872 150.503 196.573C150.082 195.654 149.332 194.948 148.232 194.439C148.388 194.198 148.579 193.985 148.812 193.809C150.249 193.111 151.428 193.461 151.539 193.497L152.356 193.813L152.873 193.037ZM159.277 206.849C159.233 206.804 159.192 206.756 159.148 206.711C158.965 206.529 158.777 206.349 158.577 206.178C158.479 206.091 158.375 206.007 158.27 205.924C158.163 205.843 158.057 205.761 157.938 205.685C157.937 205.83 157.948 205.968 157.958 206.108C157.97 206.245 157.984 206.383 158.003 206.516C158.017 206.629 158.034 206.74 158.053 206.85H148.849C148.573 206.129 148.527 205.509 148.868 205.14C150.691 203.169 153.64 204.527 153.76 204.583L154.889 205.139L155.334 203.915C155.364 203.837 155.892 202.507 157.313 201.784C157.313 201.784 157.814 201.488 158.466 201.378L158.46 201.401C158.767 201.344 159.099 201.316 159.462 201.326C161.466 201.377 162.218 202.41 163.09 203.605C163.661 204.388 164.251 205.199 165.184 205.69C165.875 206.053 166.522 206.424 167.068 206.851H159.277V206.849ZM175.47 206.849C175.856 206.668 176.237 206.47 176.61 206.252C176.845 206.114 177.077 205.969 177.306 205.816C177.421 205.74 177.534 205.66 177.647 205.578C177.759 205.497 177.872 205.412 177.983 205.325C178.095 205.24 178.204 205.15 178.314 205.058C178.424 204.969 178.53 204.868 178.639 204.773C178.851 204.573 179.062 204.368 179.261 204.123C178.96 204.072 178.672 204.058 178.388 204.05C178.246 204.051 178.104 204.046 177.965 204.052C177.825 204.056 177.686 204.061 177.548 204.072C177.41 204.081 177.272 204.092 177.136 204.106C177 204.121 176.865 204.137 176.73 204.157C176.46 204.196 176.194 204.242 175.931 204.297C175.612 204.363 175.296 204.443 174.985 204.531C174.989 204.511 174.994 204.492 174.998 204.472C175.038 204.262 175.07 204.05 175.1 203.835L175.139 203.511C175.153 203.404 175.159 203.293 175.17 203.184C175.181 203.075 175.185 202.963 175.193 202.852C175.2 202.742 175.2 202.627 175.204 202.516C175.205 202.402 175.206 202.289 175.201 202.174C175.199 202.059 175.193 201.941 175.18 201.823C175.089 201.895 175.004 201.97 174.922 202.046C174.838 202.123 174.76 202.201 174.682 202.279C174.607 202.359 174.527 202.436 174.456 202.517C174.383 202.598 174.308 202.678 174.241 202.761C174.172 202.843 174.1 202.924 174.035 203.008L173.836 203.259C173.708 203.429 173.583 203.599 173.464 203.772C173.086 204.322 172.753 204.894 172.456 205.481L170.118 206.689C169.05 204.969 167.265 204.031 166.232 203.488C165.893 203.309 165.589 202.964 165.269 202.542C165.539 202.207 165.861 201.913 166.241 201.71C167.068 201.269 168.112 201.343 169.345 201.928L169.573 202.036H169.824C170.573 202.036 170.875 201.421 171.096 200.971C171.488 200.173 172.406 198.304 174.061 197.853C175.248 197.53 176.698 197.958 178.369 199.125L179.229 199.726L179.743 199.097C180.296 198.929 182.09 198.638 183.428 199.317C184.132 199.675 184.575 200.249 184.782 201.072C185.106 202.354 184.82 203.423 183.911 204.338C183.144 205.11 182.222 205.47 182.218 205.471L181.552 205.72L181.453 206.454C181.451 206.46 181.429 206.61 181.364 206.846H175.47V206.849ZM180.647 210.478C180.129 212.193 179.399 213.844 178.475 215.402H134.462C133.538 213.845 132.81 212.194 132.29 210.478H180.647Z" fill="#FF003B"/>
<path d="M185.189 212.938C184.429 215.071 183.402 217.089 182.143 218.956H210.742V212.938H185.189Z" fill="#FF003B"/>
<path d="M130.422 218.96C129.163 217.092 128.134 215.075 127.376 212.941H76.8572H76.6074V218.96H76.8572H130.422Z" fill="#FF003B"/>
</svg>
