<svg width="315" height="280" viewBox="0 0 315 280" fill="none" xmlns="http://www.w3.org/2000/svg">
<g clip-path="url(#clip0_2830_24594)">
<path d="M0 209.923V217.002H48.3779C46.8946 214.799 45.6903 212.435 44.7944 209.923H0ZM19.6214 147.681C19.9005 147.696 20.1648 147.696 20.4292 147.696C25.7458 147.696 27.9928 146.007 28.1984 145.493C28.6537 140.558 26.3038 132.392 25.3639 131.54C25.3345 131.526 24.7764 131.1 22.0888 131.1C20.811 131.1 19.5333 131.188 18.7549 131.291H18.6961C17.5946 131.511 16.7428 131.731 16.405 131.819C15.2888 132.583 14.8776 134.155 14.7307 135.359C14.2167 139.442 15.9057 144.876 17.6387 146.668C18.0646 147.108 18.7108 147.446 19.5773 147.666L19.6214 147.681ZM111.78 201.992C113.631 200.186 114.292 197.792 113.646 195.251C113.058 192.931 111.443 191.344 109.078 190.772C107.668 190.434 105.671 190.463 104.349 190.874C102.043 189.406 99.8841 188.892 97.9455 189.347C97.9161 189.274 97.9014 189.215 97.8721 189.141L98.533 183.575C98.5476 183.575 98.5623 183.575 98.5917 183.561C98.6358 182.929 98.6945 182.268 98.7679 181.607L99.1645 178.2C99.2379 177.598 99.326 176.996 99.4142 176.408C99.8254 173.574 100.237 171.224 100.369 170.46C100.369 170.46 102.322 169.755 103.996 167.111C105.524 164.703 106.713 161.971 106.581 159.21C108.021 162.514 110.209 167.229 112.926 171.987C117.919 180.711 124.352 189.641 127.892 185.881C128.083 185.675 128.229 185.411 128.347 185.103C130.991 180.608 135.441 160.356 137.658 149.693C137.218 149.869 136.689 149.899 136.131 150.075C130.109 149.913 126.952 147.769 126.687 146.08V146.051C126.203 141.145 128.45 131.129 130.388 129.572C131.975 128.295 136.924 128.662 138.481 128.809C138.877 127.869 139.333 126.371 138.481 125.798C138.745 121.01 138.701 116.354 138.363 113.226C141.741 112.932 142.755 111.302 143.283 109.716L143.298 109.657L144.311 99.6702C144.355 99.1855 144.194 98.7009 143.871 98.3337C143.548 97.9665 143.078 97.7609 142.578 97.7609C141.697 97.7609 140.933 98.4806 140.831 99.3911L139.964 107.924C139.935 108.247 139.641 108.512 139.318 108.512C139.303 108.512 139.274 108.512 139.259 108.512L139.024 108.482C138.672 108.453 138.407 108.13 138.437 107.763L139.303 99.2296C139.391 98.3043 138.789 97.4525 137.908 97.2763C137.79 97.2469 137.688 97.2469 137.57 97.2469C136.674 97.2469 135.925 97.9225 135.837 98.8184L134.971 107.41C134.941 107.733 134.648 107.998 134.324 107.998C134.31 107.998 134.28 107.998 134.266 107.998L134.031 107.968C133.678 107.939 133.414 107.616 133.443 107.249L134.31 98.7156C134.398 97.7903 133.796 96.9385 132.914 96.7622C132.797 96.7328 132.694 96.7329 132.577 96.7329C131.681 96.7329 130.932 97.4084 130.844 98.3043L129.786 108.82L129.816 108.923C129.845 109.04 130.682 111.757 133.957 112.829C132.87 116.251 131.769 121.641 131.079 126.958C130.638 127.178 130.124 127.457 129.492 127.825C126.115 129.778 123.721 136.358 123.544 138.561C123.118 143.525 125.909 148.122 126.482 149.106C126.526 149.179 126.585 149.252 126.658 149.326C125.366 153.218 124.014 157.433 122.913 161.134C121.283 156.743 119.667 152.748 118.58 150.134C115.041 141.557 110.855 133.508 108.123 129.293C105.788 125.71 99.2673 125.93 95.2872 125.901C90.0587 125.71 87.5033 119.306 87.092 118.484C86.8424 117.177 86.7395 115.37 86.7249 113.578C95.155 109.789 101.177 99.8024 101.177 88.0971C101.177 88.053 101.177 87.9943 101.177 87.9502C101.177 76.1127 91.3365 66.5223 79.1906 66.5223C67.0447 66.5223 57.2046 76.1127 57.2046 87.9502C57.2046 87.9943 57.2046 88.053 57.2046 88.0971C57.2046 99.3911 62.8003 109.07 70.7751 113.153C70.7604 115.018 70.687 116.956 70.4226 118.352C70.4226 118.352 67.9112 125.68 62.154 125.886C58.174 125.915 51.6971 125.71 49.3766 129.279C46.6449 133.494 42.4592 141.542 38.9197 150.119C37.8182 152.777 36.1586 156.86 34.5137 161.354C33.3975 157.594 32.017 153.306 30.6952 149.326C30.7686 149.238 30.842 149.164 30.8714 149.106C31.4295 148.122 34.0878 143.51 33.6619 138.546C33.471 136.343 31.0917 129.763 27.7138 127.81C26.8032 127.281 26.157 126.929 25.6136 126.694C25.4226 123.991 25.0849 120.408 24.4827 116.707C22.6616 105.53 17.0806 100.155 13.4236 97.7609C12.2193 96.9678 10.6772 98.1134 11.0884 99.5086L18.8577 125.783C17.9765 126.341 18.4318 127.854 18.843 128.809C20.3998 128.662 25.3492 128.295 26.9354 129.572C28.874 131.129 31.1211 141.145 30.6364 146.051V146.08C30.3721 147.769 27.2144 149.899 21.1929 150.075C20.6495 149.899 20.1061 149.869 19.6655 149.693C22.0594 161.222 27.0822 183.972 29.5937 185.866C33.1332 189.626 39.5659 180.697 44.5594 171.973C47.3939 167.009 49.6704 162.089 51.095 158.769C51.095 158.769 49.8907 165.525 57.1165 170.343C57.1165 170.343 58.7027 179.624 58.7614 181.827C57.5131 181.358 54.6051 180.241 51.9762 181.695C50.3019 182.621 49.127 184.398 48.4807 186.968L48.4661 187.041L47.908 191.021C47.2177 191.242 46.3805 191.668 45.7784 192.505C45.279 193.21 44.7944 194.429 45.279 196.338C45.7931 198.35 46.1602 199.569 46.4099 200.289C45.9987 200.964 45.705 201.816 45.7196 202.712H45.4406C47.1149 217.986 60.9644 229.941 77.7366 229.941C94.2738 229.941 107.976 218.309 109.945 203.329C110.444 203.079 111.119 202.624 111.78 201.992ZM68.719 100.992C71.5976 102.343 75.3133 103.151 79.3668 103.151C83.4204 103.151 87.1361 102.343 90.0147 100.992C88.0173 104.59 83.9931 107.058 79.3668 107.058C74.7405 107.058 70.7164 104.59 68.719 100.992ZM53.4008 159.063C52.3287 152.983 56.764 145.919 59.4664 142.291L62.0365 127.634C62.4918 127.634 64.3277 127.634 65.0914 127.325L64.9298 131.1V141.16C64.9592 141.278 65.341 150.971 76.3708 151.852C76.3708 151.808 76.3708 151.764 76.3708 151.72C76.3708 151.676 76.3708 151.617 76.3708 151.573C76.3708 151.529 76.3708 151.47 76.3561 151.426C76.3414 151.235 76.3561 151.03 76.3267 150.824C76.312 150.721 76.312 150.618 76.2973 150.515C76.2826 150.413 76.2679 150.31 76.2386 150.207C76.2092 150.001 76.1505 149.796 76.077 149.605C76.0476 149.502 76.0036 149.414 75.9742 149.311C75.9301 149.208 75.9008 149.12 75.8567 149.017C75.7686 148.827 75.6805 148.636 75.5777 148.445C75.3867 148.063 75.1518 147.71 74.9021 147.373C74.6524 147.035 74.3881 146.712 74.1237 146.433C73.8593 146.139 73.5803 145.874 73.3159 145.64C73.0516 145.405 72.8019 145.199 72.5669 145.023C72.3319 144.846 72.1263 144.7 71.9501 144.582C71.5976 144.347 71.392 144.23 71.392 144.23L71.4948 143.951C71.4948 143.951 71.5095 143.951 71.5388 143.965C71.5682 143.965 71.6123 143.98 71.671 143.995C71.7885 144.024 71.9501 144.053 72.1704 144.112C72.3907 144.171 72.6403 144.244 72.9341 144.347C73.2278 144.45 73.5509 144.582 73.9034 144.744C74.2559 144.905 74.623 145.111 75.0049 145.346C75.3867 145.581 75.7686 145.86 76.1651 146.168C76.547 146.491 76.9288 146.844 77.2666 147.255C77.4429 147.461 77.6044 147.681 77.766 147.901C77.8394 148.019 77.9128 148.136 78.001 148.239C78.0744 148.342 78.1332 148.445 78.1919 148.562C78.2506 148.459 78.3241 148.357 78.3828 148.239C78.4563 148.122 78.5297 148.004 78.6178 147.901C78.7794 147.681 78.9409 147.461 79.1172 147.255C79.455 146.844 79.8515 146.491 80.2187 146.168C80.6005 145.86 80.9971 145.581 81.3789 145.346C81.7608 145.111 82.1279 144.92 82.4804 144.744C82.8182 144.582 83.156 144.45 83.4497 144.347C83.7435 144.244 83.9931 144.156 84.2134 144.112C84.4337 144.053 84.5953 144.009 84.7128 143.995C84.7715 143.98 84.8156 143.98 84.845 143.965C84.8743 143.965 84.889 143.951 84.889 143.951L84.9918 144.23C84.9918 144.23 84.7862 144.347 84.4337 144.582C84.2575 144.7 84.0519 144.846 83.8169 145.023C83.5819 145.199 83.3322 145.405 83.0679 145.64C82.8035 145.874 82.5392 146.139 82.2601 146.433C81.9957 146.726 81.7314 147.035 81.4817 147.373C81.2467 147.71 80.9971 148.077 80.8061 148.445C80.7033 148.621 80.6152 148.827 80.5271 149.017C80.483 149.12 80.4537 149.208 80.4096 149.311C80.3655 149.414 80.3215 149.502 80.3068 149.605C80.248 149.811 80.1746 150.001 80.1452 150.207C80.1305 150.31 80.1012 150.413 80.0865 150.515C80.0718 150.618 80.0718 150.721 80.0571 150.824C80.0277 151.03 80.0424 151.235 80.0277 151.426C80.0277 151.47 80.013 151.529 80.013 151.573C80.013 151.617 80.013 151.676 80.013 151.72C80.013 151.779 80.013 151.823 79.9984 151.881C90.2937 151.338 92.3645 145.713 93.0548 141.483C93.0842 141.292 92.9961 128.676 92.9961 128.676L92.9667 127.546C93.1136 127.604 93.2898 127.663 93.4661 127.692C93.9801 127.766 95.0375 127.869 95.9628 127.957L98.4595 142.144C101.147 145.728 105.729 152.909 104.643 159.078C103.835 163.719 101.47 166.876 97.3727 169.035C97.1377 169.226 96.9909 169.432 96.9174 169.828C96.8881 169.961 96.5943 171.591 96.2418 173.897C82.2748 177.04 69.6296 175.542 61.2875 174.205C60.9057 171.738 60.5826 169.961 60.5532 169.828C60.4504 169.3 60.1567 168.83 59.7307 168.492C56.2059 166.348 54.1498 163.337 53.4008 159.063ZM85.0359 194.473C84.0959 193.856 82.8916 193.43 81.2761 193.386C81.0852 193.386 80.8942 193.386 80.718 193.386C80.7327 193.312 80.7474 193.224 80.7621 193.151C80.8942 192.373 80.9971 191.594 81.0705 190.801C81.1292 190.008 81.1733 189.215 81.1439 188.407C81.1439 188.202 81.1292 187.996 81.1292 187.805C81.1292 187.599 81.0999 187.394 81.0852 187.188C81.0411 186.777 80.9971 186.366 80.9089 185.94C80.6593 186.278 80.4537 186.63 80.248 186.997C80.1452 187.173 80.0571 187.35 79.969 187.541C79.8809 187.717 79.7927 187.893 79.7046 188.084C79.3521 188.804 79.0731 189.538 78.8087 190.287C78.5444 191.036 78.3241 191.785 78.1332 192.549C78.1185 192.622 78.0891 192.696 78.0744 192.784C77.7366 192.549 77.3841 192.328 77.0317 192.108C76.782 191.961 76.5323 191.814 76.2826 191.682L75.9008 191.477C75.7686 191.403 75.6364 191.344 75.5042 191.286C75.3721 191.227 75.2399 191.168 75.1077 191.109C74.9755 191.051 74.8287 190.992 74.6965 190.933C74.5643 190.874 74.4174 190.83 74.2706 190.772C74.1237 190.728 73.9915 190.669 73.83 190.639C73.8887 190.786 73.9621 190.933 74.0356 191.065C74.109 191.198 74.1824 191.344 74.2559 191.477C74.3293 191.609 74.4027 191.741 74.4909 191.873C74.5643 192.005 74.6524 192.138 74.7258 192.255C74.814 192.373 74.8874 192.505 74.9755 192.622L75.2252 192.989C75.4014 193.224 75.5777 193.459 75.7539 193.694C76.033 194.047 76.3267 194.399 76.6204 194.722C75.5777 195.442 74.8727 196.338 74.4321 197.043C73.3747 196.734 71.7444 196.441 70.0702 196.823C70.0702 196.646 70.0995 196.455 70.1877 196.294C71.2157 194.061 71.3773 192.226 70.6723 190.698C70.173 189.611 69.2918 188.789 67.9993 188.187C68.1903 187.908 68.4106 187.658 68.6749 187.452C70.3639 186.63 71.7591 187.041 71.8766 187.085L72.8313 187.452L73.4481 186.542C73.4775 186.513 75.798 183.076 78.9115 183.076C78.9409 183.076 78.9703 183.076 78.9997 183.076C82.1133 183.135 84.14 186.718 84.1547 186.748L84.9331 188.157L86.1814 187.188C86.9892 186.557 89.5006 184.985 91.3952 185.294C92.0414 185.396 93.1576 186.263 94.2004 187.937C94.6557 188.671 95.0963 189.567 95.4341 190.566C94.1269 191.579 93.2898 192.945 92.7905 193.9C91.1602 193.357 89.6475 193.401 88.2963 194.003L91.6449 189.083L85.0359 194.473ZM79.4403 201.889C79.455 202.051 79.4696 202.213 79.499 202.374C79.5137 202.506 79.5431 202.639 79.5578 202.771H68.7337C68.4106 201.919 68.3518 201.199 68.7484 200.759C70.8926 198.438 74.3587 200.039 74.5055 200.098L75.8273 200.744L76.3561 199.305C76.3854 199.217 77.017 197.645 78.6912 196.793C78.6912 196.793 79.2787 196.441 80.0424 196.323V196.353C80.4096 196.294 80.7914 196.25 81.2174 196.264C83.5672 196.323 84.4631 197.542 85.4765 198.937C86.1521 199.863 86.8424 200.817 87.9439 201.39C88.7516 201.816 89.5153 202.257 90.1616 202.756H80.9971C80.953 202.697 80.8942 202.653 80.8502 202.594C80.6299 202.374 80.4096 202.169 80.1746 201.963C80.0571 201.86 79.9396 201.757 79.8074 201.669C79.6753 201.566 79.5578 201.478 79.4109 201.39C79.4109 201.566 79.4256 201.728 79.4403 201.889ZM48.9067 201.596L49.641 200.891L49.1563 199.936C49.1123 199.833 48.6717 198.791 47.8786 195.648C47.7611 195.207 47.6877 194.62 47.9226 194.282C48.2017 193.885 48.9067 193.753 49.1123 193.738L50.2578 193.724L51.095 187.658C51.5356 185.954 52.2405 184.809 53.1952 184.28C54.7373 183.428 56.7787 184.207 57.7627 184.574C58.1886 184.735 58.453 184.838 58.7761 184.838H58.8642L58.9523 184.824C61.0672 184.545 62.624 184.838 63.4612 185.661C64.1367 186.322 64.4452 187.394 64.3717 188.848L64.313 190.052L65.4439 190.316C66.4719 190.566 67.7937 191.051 68.1903 191.917C68.4987 192.593 68.3371 193.636 67.7056 195.001C67.3384 195.78 67.1328 196.823 67.4853 198.056C67.2503 198.247 67.0153 198.467 66.7803 198.717C66.002 199.554 65.4145 200.847 65.8404 202.741H64.0192L64.0046 198.996L62.8003 202.741H60.186L58.9523 190.595L57.7627 200.656C57.6305 200.494 57.4984 200.333 57.3515 200.171L52.5783 193.871C52.5783 193.871 53.0924 194.957 53.9589 196.544C54.1792 196.94 54.3995 197.366 54.6638 197.821C54.9135 198.277 55.1779 198.747 55.4716 199.231C55.7506 199.716 56.0591 200.215 56.3528 200.729C56.6612 201.243 56.9843 201.743 57.2928 202.257C57.4102 202.433 57.5131 202.609 57.6305 202.785H48.4661C48.3632 202.301 48.6717 201.86 48.9067 201.596ZM104.951 212.831H50.6103C50.3313 211.744 49.3913 208.175 49.2444 207.045H106.126C105.994 208.175 105.23 211.744 104.951 212.831ZM107.183 201.449L107.066 202.315C107.066 202.33 107.037 202.492 106.963 202.771H100.031C100.486 202.565 100.927 202.33 101.367 202.066C101.647 201.904 101.911 201.728 102.19 201.552C102.322 201.464 102.454 201.361 102.586 201.273C102.719 201.17 102.851 201.082 102.983 200.979C103.115 200.876 103.247 200.773 103.365 200.671C103.497 200.568 103.615 200.45 103.747 200.333C103.996 200.098 104.246 199.863 104.481 199.569C104.129 199.51 103.791 199.496 103.453 199.481C103.291 199.481 103.115 199.481 102.954 199.481C102.792 199.481 102.631 199.496 102.469 199.51C102.307 199.525 102.146 199.54 101.984 199.554C101.823 199.569 101.661 199.598 101.5 199.613C101.177 199.657 100.868 199.716 100.56 199.775C100.178 199.848 99.8107 199.951 99.4435 200.054C99.4435 200.024 99.4582 200.01 99.4582 199.98C99.5023 199.731 99.5463 199.481 99.5757 199.231L99.6198 198.849C99.6345 198.717 99.6491 198.6 99.6491 198.467C99.6638 198.335 99.6638 198.203 99.6785 198.071C99.6932 197.939 99.6932 197.807 99.6932 197.674C99.6932 197.542 99.6932 197.41 99.6932 197.278C99.6932 197.146 99.6785 196.999 99.6638 196.867C99.561 196.955 99.4582 197.043 99.3554 197.131C99.2526 197.219 99.1645 197.307 99.0764 197.41C98.9882 197.498 98.9001 197.601 98.812 197.689C98.7239 197.777 98.6358 197.88 98.5623 197.983C98.4889 198.086 98.4008 198.174 98.3127 198.277L98.0777 198.57C97.9308 198.776 97.7839 198.967 97.6371 199.172C97.1965 199.819 96.7999 200.494 96.4474 201.185L93.701 202.609C92.438 200.582 90.3525 199.481 89.1335 198.849C88.7369 198.644 88.3845 198.233 88.0026 197.733C88.3257 197.337 88.6929 196.999 89.1482 196.749C90.1175 196.235 91.3512 196.323 92.8052 196.999L93.0695 197.131H93.3632C94.2444 197.131 94.5969 196.411 94.8613 195.883C95.3166 194.943 96.4034 192.754 98.342 192.211C99.7373 191.829 101.441 192.328 103.409 193.709L104.422 194.414L105.024 193.68C105.671 193.474 107.786 193.136 109.357 193.944C110.179 194.37 110.708 195.046 110.943 196C111.325 197.513 110.987 198.761 109.915 199.833C109.019 200.744 107.932 201.17 107.918 201.17L107.183 201.449ZM110.576 209.923C109.68 212.435 108.476 214.799 106.992 217.002H164.094V209.923H110.576ZM140.86 131.819C140.522 131.731 139.67 131.511 138.569 131.291H138.51C137.732 131.202 136.454 131.1 135.176 131.1C132.474 131.1 131.916 131.526 131.901 131.54C130.961 132.392 128.611 140.558 129.067 145.493C129.272 146.007 131.519 147.696 136.836 147.696C137.1 147.696 137.379 147.696 137.644 147.681L137.673 147.666C138.539 147.446 139.2 147.108 139.612 146.668C141.345 144.876 143.019 139.442 142.52 135.359C142.373 134.155 141.961 132.583 140.86 131.819ZM82.9504 64.4075C88.1788 65.039 93.0108 66.9923 96.844 70.0618C96.9909 70.1793 97.1377 70.2968 97.2846 70.4143C98.2833 69.2688 99.8694 68.0351 101.632 69.0631C105.259 72.4411 106.523 79.755 106.141 82.1196C105.509 86.0409 105.318 94.1186 112.779 97.1147C120.24 100.096 126.129 94.2508 126.599 89.7273C120.754 95.7635 112.867 91.6953 115.393 84.2932C117.919 76.9058 122.428 69.8268 116.598 59.5609C112.045 51.5713 97.7839 47.5618 89.6181 51.5272C89.6181 51.5272 89.6034 51.5272 89.6034 51.5419C88.781 51.9385 88.032 52.4231 87.3564 52.9812C84.845 54.8464 81.3202 58.4006 82.5538 62.9975C82.6713 63.5263 82.8035 63.9815 82.9504 64.4075Z" fill="#FF003B"/>
</g>
<g clip-path="url(#clip1_2830_24594)">
<path d="M160.132 120.868C161.444 120.479 162.986 120.277 164.745 120.277C166.59 120.277 168.565 120.493 170.41 120.782C170.425 120.248 170.439 119.686 170.439 119.138C170.54 113.141 169.257 104.607 164.601 104.852C159.959 105.097 159.411 109.653 160.391 115.059C160.694 116.731 160.521 118.807 160.132 120.868ZM171.65 148.345C172.429 147.336 172.818 144.698 172.818 144.698C172.818 144.698 174.519 143.848 175.139 142.377C175.759 140.907 176.927 132.07 176.609 129.359C176.292 126.649 175.629 125.525 173.438 124.948C173.438 124.948 161.199 121.229 159.022 124.948C156.845 128.667 154.841 146.342 159.022 148.345C163.217 150.364 170.886 149.355 171.65 148.345ZM179.147 147.48C179.147 147.509 179.147 147.524 179.147 147.553C179.161 147.553 179.147 147.524 179.147 147.48ZM251.862 166.25C251.862 163.713 251.184 161.262 249.887 159.114L250.953 157.961C251.357 157.529 251.559 156.966 251.53 156.375C251.501 155.784 251.256 155.236 250.824 154.833L248.748 152.915C248.344 152.541 247.811 152.324 247.248 152.324C246.629 152.324 246.038 152.584 245.619 153.031L244.668 154.069C243.587 153.463 242.419 153.016 241.223 152.714L241.208 152.036H241.266C242.491 152.036 243.471 151.041 243.471 149.83V149.34C243.471 148.115 242.477 147.134 241.266 147.134H234.577C233.351 147.134 232.371 148.129 232.371 149.34V149.83C232.371 151.056 233.366 152.036 234.577 152.036H234.606V152.714C233.409 153.002 232.256 153.463 231.174 154.054L230.223 153.016C229.805 152.569 229.214 152.31 228.594 152.31C228.032 152.31 227.498 152.512 227.095 152.901L225.019 154.818C224.125 155.64 224.067 157.053 224.889 157.947L225.956 159.1C224.658 161.248 223.981 163.699 223.981 166.236C223.981 173.92 230.223 180.162 237.907 180.162C245.591 180.162 251.862 173.92 251.862 166.25ZM226.922 166.25C226.922 160.181 231.866 155.236 237.936 155.236C244.005 155.236 248.95 160.181 248.95 166.25C248.95 169.278 247.724 172.017 245.749 174.006C245.735 174.021 245.706 174.049 245.692 174.064C245.605 174.15 245.519 174.237 245.432 174.309C245.389 174.352 245.331 174.395 245.288 174.439L245.273 174.453C245.057 174.655 244.827 174.842 244.582 175.015C244.567 175.03 244.553 175.03 244.538 175.044C244.481 175.087 244.423 175.131 244.365 175.174C244.293 175.232 244.207 175.289 244.12 175.347C244.091 175.376 244.048 175.39 244.019 175.419C242.275 176.572 240.185 177.25 237.95 177.25C231.866 177.25 226.922 172.32 226.922 166.25ZM237.518 165.227C236.71 165.227 236.047 165.89 236.047 166.697C236.047 167.505 236.71 168.168 237.518 168.168L243.731 173.458L238.988 166.712C238.988 165.875 238.325 165.227 237.518 165.227ZM237.936 173.444C237.287 173.444 236.754 173.963 236.754 174.626C236.754 175.289 237.273 175.808 237.936 175.808C238.584 175.808 239.118 175.289 239.118 174.626C239.118 173.963 238.584 173.444 237.936 173.444ZM229.762 165.717C229.127 165.717 228.623 166.236 228.623 166.856C228.623 167.49 229.142 167.995 229.762 167.995C230.396 167.995 230.901 167.476 230.901 166.856C230.901 166.236 230.396 165.717 229.762 165.717ZM240.257 166.221L244.697 172.536C246.225 170.878 247.176 168.672 247.176 166.25C247.176 161.147 243.025 157.01 237.936 157.01C237.806 157.01 237.676 157.01 237.546 157.024L237.518 157.428V163.915C238.887 163.9 240.04 164.895 240.257 166.221ZM314.63 186.145C314.63 180.306 301.871 152.353 292.227 150.522C290.151 132.416 274.927 130.498 268.44 131.752C268.44 131.752 259.791 127.168 251.833 121.935C250.925 120.508 250.564 115.808 250.434 112.781C259.012 107.678 264.894 97.1826 264.894 85.073C264.894 83.7611 264.822 82.4493 264.692 81.1806C265.499 80.9211 266.062 80.5031 266.408 79.8976C266.955 78.9461 266.826 77.7208 266.018 76.2647C265.355 75.0682 264.433 74.0302 263.308 73.2229C263.308 68.6963 261.866 50.5463 238.671 50.0273C238.642 50.0273 238.613 50.0273 238.584 50.0273C238.556 50.0273 238.527 50.0273 238.498 50.0273C215.187 50.5463 213.846 68.8837 213.861 73.295C212.779 74.1023 211.886 75.1114 211.251 76.2791C210.444 77.7352 210.314 78.9461 210.862 79.912C211.223 80.5319 211.814 80.9644 212.65 81.2239C212.52 82.4925 212.448 83.79 212.448 85.1018C212.448 97.0528 218.171 107.418 226.547 112.593C226.417 115.621 226.071 120.508 225.134 121.978C217.176 127.226 209.248 131.32 209.175 131.45C204.159 129.518 191.804 131.536 187.724 141.916C183.486 142.118 182.563 143.516 179.219 146.572C179.219 146.572 181.05 154.573 181.41 156.995C180.905 156.015 178.195 147.48 175.442 146.529C175.197 147.509 175.052 152.468 169.43 152.151C163.707 152.396 159.786 151.748 159.786 151.748C159.786 151.748 159.195 154.53 160.348 161.652C161.199 166.899 165.134 170.042 167.138 171.44C167.844 171.93 170.713 172.175 171.564 172.017C176.624 171.036 193.837 167.259 200.684 162.372C201.218 166.712 202.515 174.453 205.398 179.037C210.545 187.226 212.289 208.201 211.871 211.085C211.453 213.968 210.545 230.056 210.545 230.056H252.236V230.071L252.28 230.056H266.465C266.465 230.056 266.321 227.591 266.134 224.434L288.19 215.467L284.947 207.466C285.091 207.408 285.235 207.336 285.394 207.279C285.48 207.235 285.567 207.207 285.653 207.163C285.797 207.106 285.927 207.048 286.071 206.976C286.158 206.933 286.244 206.904 286.345 206.861C286.489 206.803 286.619 206.745 286.763 206.673C286.85 206.644 286.922 206.601 287.008 206.572C287.152 206.515 287.297 206.443 287.441 206.385C287.498 206.356 287.542 206.342 287.599 206.313C287.916 206.169 288.219 206.039 288.522 205.895C288.565 205.866 288.623 205.851 288.666 205.823C288.81 205.765 288.94 205.693 289.084 205.635C289.156 205.606 289.228 205.563 289.3 205.534C289.43 205.477 289.574 205.405 289.704 205.347C289.776 205.318 289.848 205.275 289.92 205.246C290.05 205.188 290.18 205.116 290.324 205.059C290.396 205.03 290.454 205.001 290.526 204.972C290.987 204.756 291.434 204.54 291.881 204.323C291.939 204.295 291.996 204.266 292.054 204.237C292.184 204.179 292.313 204.107 292.443 204.049C292.515 204.021 292.573 203.992 292.645 203.949C292.775 203.891 292.89 203.833 293.02 203.761C293.077 203.732 293.135 203.703 293.207 203.675C293.337 203.617 293.467 203.545 293.582 203.487C293.625 203.473 293.668 203.444 293.712 203.43C294.014 203.285 294.303 203.127 294.606 202.983C294.606 202.983 294.606 202.983 294.62 202.983C294.75 202.925 294.865 202.853 294.995 202.795C295.052 202.766 295.11 202.738 295.153 202.709C295.269 202.651 295.384 202.593 295.514 202.521C295.571 202.492 295.629 202.464 295.687 202.435C295.802 202.377 295.917 202.32 296.033 202.247C296.076 202.219 296.134 202.19 296.177 202.175C296.581 201.959 296.984 201.757 297.373 201.541C297.402 201.527 297.431 201.512 297.46 201.498C297.575 201.44 297.691 201.382 297.791 201.31C297.835 201.282 297.892 201.253 297.936 201.224C298.037 201.166 298.152 201.109 298.253 201.051C298.296 201.022 298.354 200.993 298.397 200.964C298.512 200.907 298.613 200.849 298.714 200.791C298.743 200.777 298.772 200.763 298.815 200.734C299.19 200.532 299.55 200.33 299.896 200.128C299.925 200.114 299.968 200.085 299.997 200.071C300.098 200.013 300.199 199.955 300.3 199.898C300.343 199.869 300.386 199.854 300.43 199.826C300.531 199.768 300.631 199.71 300.732 199.653C300.776 199.624 300.804 199.609 300.848 199.58C301.194 199.379 301.54 199.162 301.871 198.961C301.886 198.961 301.886 198.946 301.9 198.946C302.001 198.888 302.088 198.831 302.188 198.773C302.217 198.744 302.26 198.73 302.289 198.701C302.376 198.643 302.477 198.586 302.563 198.528C302.606 198.499 302.635 198.485 302.679 198.456C302.765 198.398 302.866 198.341 302.952 198.283C302.981 198.269 303.01 198.254 303.025 198.24C303.327 198.052 303.63 197.865 303.918 197.678C303.947 197.663 303.962 197.649 303.99 197.634C304.077 197.577 304.163 197.519 304.25 197.476C304.279 197.461 304.308 197.432 304.351 197.418C304.437 197.36 304.509 197.317 304.596 197.259C304.625 197.245 304.654 197.216 304.682 197.202C304.769 197.144 304.855 197.086 304.927 197.043C304.942 197.043 304.942 197.029 304.956 197.029C305.23 196.841 305.504 196.654 305.778 196.467C305.807 196.452 305.821 196.438 305.85 196.423C305.922 196.366 305.994 196.322 306.066 196.265C306.095 196.25 306.124 196.221 306.153 196.207C306.225 196.149 306.297 196.106 306.369 196.048C306.384 196.034 306.412 196.02 306.427 196.005C306.672 195.832 306.917 195.645 307.148 195.472C307.162 195.472 307.162 195.457 307.176 195.457C307.248 195.4 307.321 195.357 307.378 195.299C307.407 195.284 307.421 195.27 307.45 195.241C307.508 195.198 307.58 195.14 307.638 195.097C307.667 195.083 307.681 195.068 307.71 195.039C307.782 194.996 307.84 194.938 307.897 194.895C307.912 194.881 307.926 194.881 307.926 194.866C308.142 194.693 308.344 194.535 308.56 194.376C308.575 194.362 308.589 194.347 308.618 194.333C308.676 194.29 308.733 194.246 308.791 194.189C308.805 194.174 308.834 194.16 308.849 194.131C308.906 194.088 308.964 194.045 309.022 193.987C309.036 193.973 309.051 193.958 309.079 193.944C309.281 193.785 309.469 193.627 309.656 193.468C309.714 193.425 309.757 193.381 309.815 193.338C309.829 193.324 309.843 193.309 309.872 193.295C309.915 193.252 309.973 193.208 310.016 193.165C310.031 193.151 310.045 193.136 310.06 193.122C310.103 193.079 310.161 193.036 310.204 192.992C310.218 192.978 310.218 192.978 310.233 192.963C310.391 192.819 310.55 192.675 310.708 192.531C310.723 192.517 310.723 192.517 310.737 192.502C310.78 192.459 310.824 192.416 310.867 192.372C310.881 192.358 310.896 192.344 310.91 192.329C310.953 192.286 310.997 192.257 311.04 192.214C311.054 192.199 311.069 192.185 311.083 192.171C311.126 192.127 311.17 192.084 311.213 192.055C311.357 191.911 311.487 191.781 311.617 191.652C311.631 191.637 311.645 191.623 311.645 191.623C311.689 191.579 311.717 191.551 311.746 191.507C311.761 191.493 311.775 191.479 311.79 191.464C311.818 191.421 311.862 191.392 311.89 191.349C311.905 191.334 311.905 191.334 311.919 191.32C312.035 191.205 312.15 191.075 312.251 190.96C312.251 190.945 312.265 190.945 312.265 190.931C312.294 190.902 312.323 190.859 312.352 190.83C312.366 190.815 312.381 190.801 312.381 190.787C312.409 190.758 312.438 190.729 312.467 190.686C312.482 190.671 312.496 190.657 312.496 190.642C312.525 190.614 312.554 190.57 312.582 190.542L312.597 190.527C312.698 190.412 312.784 190.311 312.871 190.21C312.885 190.196 312.885 190.196 312.9 190.181C312.928 190.152 312.943 190.123 312.972 190.095C312.986 190.08 312.986 190.066 313.001 190.051C313.029 190.023 313.044 189.994 313.073 189.965C313.087 189.95 313.087 189.95 313.101 189.936C313.13 189.907 313.159 189.864 313.174 189.835C313.793 189.273 314.255 188.566 314.5 187.629C314.557 187.211 314.63 186.707 314.63 186.145ZM225.322 64.5444C227.441 60.1186 230.468 56.8029 234.187 54.727C233.452 54.2369 233.005 53.6314 233.005 52.9827C233.005 52.8817 233.02 52.7808 233.034 52.6943C234.75 52.3916 236.566 52.2186 238.527 52.1753H238.57H238.613C241.05 52.233 243.298 52.4925 245.346 52.9538C245.346 52.9682 245.346 52.9827 245.346 52.9971C245.346 53.79 244.697 54.5108 243.659 55.0442C247.133 57.1201 249.973 60.3493 252.006 64.5588C252.914 66.4618 253.577 68.4223 253.995 69.9072C253.188 69.7054 252.381 69.5324 251.573 69.3738C250.218 65.1499 247.133 58.7059 240.603 55.9091C240.141 55.9668 239.68 55.9956 239.19 55.9956C238.426 55.9956 237.691 55.9235 237.013 55.8082C230.324 58.5473 227.138 65.0778 225.768 69.3738C224.976 69.5324 224.183 69.7054 223.39 69.8928C223.779 68.3791 224.442 66.3897 225.322 64.5444ZM220.449 77.2883C220.161 77.4036 219.872 77.5333 219.598 77.6487C217.465 78.5425 215.908 79.1912 214.582 79.2921C213.399 79.2633 212.837 79.0038 212.722 78.802C212.621 78.629 212.664 78.1244 213.125 77.3027C214.005 75.7169 215.49 74.4915 217.306 73.8716C224.485 71.4209 231.65 70.1667 238.613 70.1379C245.591 70.1667 252.755 71.4209 259.935 73.8716C261.751 74.4915 263.236 75.7025 264.115 77.3027C264.577 78.1244 264.62 78.629 264.519 78.802C264.404 79.0182 263.841 79.2633 262.659 79.2921C261.319 79.1912 259.776 78.5425 257.643 77.6487C257.369 77.5333 257.08 77.418 256.792 77.2883C250.997 74.8808 244.884 73.6266 238.628 73.5833H238.613H238.599C232.357 73.6266 226.244 74.8808 220.449 77.2883ZM225.293 98.3791C228.868 100.037 233.452 101.046 238.469 101.046C243.486 101.046 248.085 100.037 251.645 98.3791C249.18 102.834 244.207 105.89 238.469 105.89C232.731 105.89 227.758 102.848 225.293 98.3791ZM213.558 227.101C213.875 221.68 214.409 213.276 214.682 211.431C215 209.311 214.481 202.637 213.529 196.524C212.592 190.484 210.833 182.252 207.806 177.423C204.995 172.954 203.697 164.218 203.308 160.051C209.925 155.827 211.972 139.09 212.506 132.848C212.909 132.617 213.356 132.372 213.846 132.098C214.899 131.507 216.11 130.815 217.421 130.051H217.955C219.368 137.75 225.365 143.905 232.977 145.563C231.722 143.79 230.108 141.368 227.974 138.023C224.428 132.473 221.17 127.038 221.141 126.981L223.62 125.496C223.649 125.554 226.835 130.859 230.31 136.322C233.611 141.498 235.644 144.381 236.869 145.996C236.941 145.996 237.013 145.996 237.085 145.996H239.536C240.877 144.424 243.039 141.57 246.484 136.38C250.117 130.902 253.375 125.539 253.419 125.496L255.884 126.995C255.855 127.053 252.424 132.675 248.676 138.312C246.701 141.282 244.971 143.732 243.544 145.621C251.357 144.035 257.513 137.735 258.868 129.85H259.156C260.785 130.801 262.27 131.652 263.51 132.344C263.971 138.081 265.917 155.525 272.635 159.979C272.621 162.805 272.275 168.456 270.949 173.055L270.588 172.161L234.649 186.779L242.203 205.361C242.145 205.448 242.102 205.534 242.044 205.621C242.044 205.635 242.03 205.635 242.03 205.65C241.987 205.736 241.943 205.808 241.9 205.895C241.886 205.909 241.886 205.938 241.871 205.952C241.828 206.024 241.799 206.111 241.756 206.197C241.742 206.226 241.742 206.241 241.727 206.27C241.684 206.37 241.641 206.486 241.612 206.601C241.583 206.673 241.569 206.76 241.54 206.832C241.54 206.861 241.525 206.875 241.525 206.904C241.511 206.962 241.496 207.019 241.482 207.077C241.482 207.106 241.468 207.134 241.468 207.163C241.453 207.221 241.439 207.279 241.439 207.336C241.439 207.365 241.424 207.394 241.424 207.423C241.41 207.48 241.41 207.538 241.396 207.61C241.396 207.639 241.381 207.668 241.381 207.697C241.352 207.87 241.338 208.057 241.323 208.245C241.323 208.273 241.323 208.302 241.323 208.331C241.323 208.403 241.309 208.461 241.309 208.533C241.309 208.562 241.309 208.605 241.309 208.634C241.309 208.691 241.309 208.764 241.309 208.821C241.309 208.864 241.309 208.893 241.309 208.937C241.309 209.009 241.309 209.066 241.309 209.138C241.309 209.167 241.309 209.21 241.309 209.239C241.309 209.34 241.309 209.441 241.323 209.542C241.323 209.556 241.323 209.571 241.323 209.571C241.323 209.672 241.338 209.758 241.338 209.859C241.338 209.902 241.338 209.931 241.352 209.974C241.352 210.047 241.367 210.104 241.367 210.176C241.367 210.22 241.381 210.263 241.381 210.306C241.381 210.364 241.396 210.436 241.396 210.493C241.396 210.537 241.41 210.58 241.41 210.638C241.424 210.71 241.424 210.767 241.439 210.839C241.439 210.883 241.453 210.926 241.453 210.969C241.468 211.056 241.482 211.142 241.496 211.229C241.511 211.286 241.511 211.344 241.525 211.402C241.54 211.474 241.554 211.56 241.569 211.632C241.583 211.69 241.583 211.733 241.597 211.791C241.612 211.849 241.626 211.906 241.626 211.964C241.641 212.022 241.655 212.079 241.655 212.137C241.669 212.195 241.684 212.252 241.684 212.31C241.698 212.368 241.713 212.425 241.727 212.483C241.742 212.541 241.756 212.584 241.77 212.641C241.785 212.699 241.799 212.757 241.814 212.829C241.828 212.872 241.842 212.93 241.857 212.973C241.886 213.103 241.929 213.233 241.958 213.362C241.972 213.406 241.987 213.449 241.987 213.492C242.001 213.564 242.03 213.636 242.044 213.694C242.059 213.737 242.073 213.78 242.088 213.824C242.102 213.896 242.131 213.968 242.16 214.04C242.174 214.083 242.188 214.126 242.203 214.17C242.232 214.242 242.246 214.314 242.275 214.386C242.289 214.415 242.304 214.458 242.318 214.487C242.347 214.559 242.376 214.645 242.405 214.717C242.506 215.006 242.621 215.308 242.736 215.597C242.751 215.626 242.751 215.64 242.765 215.669C242.794 215.755 242.837 215.827 242.866 215.914C242.88 215.943 242.895 215.957 242.895 215.986C242.938 216.073 242.967 216.159 243.01 216.231C243.01 216.245 243.025 216.26 243.025 216.274C243.198 216.664 243.385 217.038 243.587 217.413L243.601 217.428C243.644 217.514 243.702 217.601 243.745 217.687C243.745 217.702 243.76 217.702 243.76 217.716C243.817 217.802 243.861 217.889 243.918 217.975C244.192 218.437 244.495 218.884 244.812 219.302C244.812 219.302 244.812 219.302 244.812 219.316C245.576 220.325 246.456 221.19 247.436 221.81C247.84 222.07 248.272 222.286 248.719 222.444C248.805 222.473 248.892 222.502 248.978 222.531C248.993 222.531 248.993 222.531 249.007 222.531C249.094 222.56 249.18 222.589 249.267 222.603L251.069 227.043H213.558V227.101ZM252.078 196.885C251.963 196.856 251.833 196.841 251.717 196.813C251.588 196.798 251.472 196.769 251.357 196.755C251.271 196.74 251.199 196.74 251.112 196.726C250.91 196.712 250.723 196.697 250.535 196.697C249.584 196.697 248.834 196.971 248.459 197.649C246.456 201.209 248.647 202.493 248.647 202.493C248.647 202.493 248.632 202.493 248.589 202.507C248.575 202.507 248.56 202.507 248.56 202.521C248.546 202.521 248.532 202.521 248.517 202.536H248.503C248.488 202.536 248.474 202.536 248.459 202.55C248.445 202.55 248.445 202.55 248.431 202.565C248.416 202.565 248.416 202.565 248.402 202.565C248.387 202.565 248.373 202.579 248.359 202.579H248.344C248.33 202.579 248.301 202.593 248.272 202.593C248.272 202.593 248.272 202.593 248.258 202.593C247.623 202.752 246.268 203.098 244.596 203.617L238.397 188.365L269.002 175.924L274.466 189.388C273.99 189.792 273.5 190.21 273.025 190.614C272.563 191.003 272.102 191.406 271.641 191.796C267.258 194.78 263.423 197.706 260.468 200.085C260.353 200.143 260.223 200.215 260.108 200.272C258.335 199.292 255.884 198.052 253.649 197.317C253.419 197.245 253.202 197.173 252.972 197.115C252.856 197.086 252.741 197.058 252.626 197.029C252.597 197.014 252.568 197.014 252.539 197C252.409 196.957 252.236 196.913 252.078 196.885ZM259.344 227.101L263.279 225.501C263.308 226.048 263.351 226.596 263.38 227.101H259.344ZM253.793 226.25L252.352 222.69C252.467 222.661 252.582 222.632 252.698 222.603C252.799 222.574 252.9 222.545 253.001 222.502C253.015 222.502 253.029 222.488 253.044 222.488C255.768 221.479 258.421 220.152 260.54 218.667C260.627 218.61 260.713 218.538 260.8 218.48C260.829 218.466 260.857 218.437 260.872 218.422C260.929 218.379 260.987 218.336 261.045 218.293C261.074 218.264 261.102 218.249 261.131 218.221C261.189 218.177 261.247 218.134 261.304 218.076C261.333 218.062 261.347 218.033 261.376 218.019C261.448 217.961 261.52 217.889 261.593 217.831C261.607 217.817 261.636 217.788 261.65 217.774C261.693 217.73 261.751 217.673 261.794 217.629C261.823 217.601 261.852 217.572 261.881 217.543C261.924 217.5 261.953 217.471 261.982 217.428C262.011 217.399 262.039 217.37 262.068 217.327C262.097 217.298 262.126 217.255 262.155 217.226C262.27 217.096 262.385 216.966 262.486 216.837C262.501 216.822 262.515 216.808 262.53 216.779C262.558 216.736 262.602 216.692 262.631 216.649C262.645 216.635 262.645 216.62 262.659 216.606C262.804 216.404 262.933 216.202 263.02 216.029C263.697 216.159 267.013 214.818 271.655 212.584C271.742 212.555 271.828 212.526 271.915 212.483C272.116 212.411 272.318 212.339 272.52 212.267C272.635 212.223 272.765 212.18 272.88 212.137C273.053 212.065 273.226 212.007 273.414 211.949C273.529 211.906 273.644 211.863 273.76 211.82C274.019 211.719 274.264 211.632 274.524 211.531C274.654 211.488 274.783 211.431 274.913 211.387C275.057 211.33 275.201 211.272 275.346 211.229C275.49 211.171 275.634 211.128 275.764 211.07C275.893 211.027 276.009 210.969 276.138 210.926C276.427 210.825 276.701 210.71 276.975 210.609C277.061 210.58 277.133 210.551 277.22 210.508C277.393 210.436 277.566 210.378 277.724 210.306C277.796 210.277 277.883 210.248 277.955 210.22C278.56 209.989 279.151 209.744 279.742 209.513C279.757 209.513 279.757 209.499 279.771 209.499C279.973 209.412 280.175 209.34 280.377 209.254C280.391 209.254 280.406 209.239 280.42 209.239C281.04 208.994 281.631 208.749 282.222 208.504L284.37 213.795L253.793 226.25ZM286.489 180.364C286.403 180.421 286.302 180.465 286.215 180.522C286.129 180.58 286.042 180.623 285.956 180.681C285.869 180.739 285.783 180.796 285.682 180.839C285.595 180.897 285.509 180.955 285.422 180.998C285.336 181.056 285.249 181.113 285.149 181.171C285.062 181.229 284.976 181.286 284.875 181.344C284.788 181.402 284.702 181.459 284.601 181.517C284.514 181.575 284.428 181.632 284.327 181.69C284.24 181.748 284.154 181.805 284.053 181.863C283.966 181.921 283.866 181.978 283.779 182.05C283.693 182.108 283.606 182.166 283.52 182.238C283.433 182.295 283.332 182.368 283.246 182.425C283.159 182.483 283.073 182.555 282.986 182.613C282.9 182.685 282.799 182.742 282.712 182.814C282.626 182.872 282.539 182.944 282.453 183.002C282.366 183.074 282.265 183.132 282.179 183.204C282.092 183.261 282.006 183.333 281.919 183.391C281.818 183.463 281.732 183.535 281.631 183.593C281.545 183.651 281.458 183.723 281.372 183.78C281.271 183.852 281.184 183.924 281.083 183.997C280.997 184.054 280.925 184.126 280.838 184.184C280.737 184.256 280.651 184.328 280.55 184.4C280.463 184.458 280.391 184.53 280.305 184.588C280.204 184.66 280.103 184.746 280.016 184.818C279.944 184.876 279.858 184.948 279.786 185.006C279.685 185.078 279.584 185.164 279.483 185.251C279.411 185.308 279.339 185.366 279.267 185.424C279.166 185.51 279.051 185.597 278.95 185.669C278.878 185.727 278.805 185.784 278.733 185.842C278.618 185.928 278.517 186.015 278.402 186.101C278.344 186.145 278.286 186.202 278.214 186.245C278.099 186.346 277.984 186.433 277.854 186.534C277.811 186.577 277.753 186.62 277.71 186.649C277.58 186.75 277.45 186.865 277.321 186.966C277.292 186.995 277.263 187.01 277.234 187.038C277.09 187.168 276.931 187.283 276.787 187.413L272.563 177.019C273.817 174.222 274.538 170.82 274.956 167.721C277.739 174.871 281.934 177.769 286.489 180.32C286.504 180.349 286.489 180.349 286.489 180.364Z" fill="#FF003B"/>
</g>
<defs>
<clipPath id="clip0_2830_24594">
<rect width="164.094" height="180" fill="white" transform="translate(0 50)"/>
</clipPath>
<clipPath id="clip1_2830_24594">
<rect width="158.044" height="180" fill="white" transform="translate(156.585 50)"/>
</clipPath>
</defs>
</svg>
