<svg width="280" height="280" viewBox="0 0 280 280" fill="none" xmlns="http://www.w3.org/2000/svg">
<path d="M181.079 103.514C181.085 103.891 181.093 104.26 181.101 104.62C182.34 104.424 183.662 104.281 184.898 104.281C186.077 104.281 187.106 104.414 187.988 104.677C187.727 103.294 187.609 101.903 187.811 100.777C188.463 97.1553 188.101 94.0974 184.989 93.9369C181.875 93.7764 181.008 99.4897 181.079 103.514Z" fill="#FF003B"/>
<path d="M179.069 108.468C177.595 108.859 177.148 109.61 176.94 111.428C176.732 113.245 177.511 119.166 177.926 120.152C178.342 121.139 179.484 121.71 179.484 121.71C179.484 121.71 179.743 123.476 180.263 124.151C180.783 124.826 185.923 125.501 188.728 124.151C191.533 122.8 190.182 110.96 188.728 108.468C187.275 105.974 179.069 108.468 179.069 108.468Z" fill="#FF003B"/>
<path d="M144.363 63.6879C149.324 64.2891 153.914 66.1409 157.552 69.0518C157.691 69.1642 157.829 69.2765 157.965 69.3901C158.916 68.3 160.418 67.1297 162.091 68.1124C165.53 71.3184 166.736 78.2712 166.375 80.513C165.775 84.2363 165.588 91.9076 172.675 94.7445C179.761 97.5814 185.352 92.0298 185.801 87.7337C180.256 93.4618 172.761 89.5953 175.16 82.5784C177.558 75.5614 181.842 68.837 176.297 59.0992C171.978 51.5168 158.434 47.7022 150.678 51.4675L150.677 51.4662C150.677 51.4662 150.669 51.4699 150.657 51.4773C149.88 51.8563 149.162 52.3119 148.516 52.8464C146.132 54.6167 142.778 57.9857 143.961 62.3546C144.096 62.841 144.23 63.2842 144.363 63.6879Z" fill="#FF003B"/>
<path d="M159.148 176.295C159.137 176.296 159.126 176.299 159.115 176.3C158.347 174.772 157.623 173.509 157.031 172.777C155.505 170.897 155.741 164.736 156.241 159.685C156.491 157.843 156.869 155.501 157.089 154.179C159.963 152.202 161.675 149.461 162.313 145.824C162.754 143.311 162.28 140.455 160.905 137.331C160.153 135.625 159.222 134.049 158.368 132.764C166.111 136.861 172.48 139.456 176.425 140.903C178.046 141.583 179.551 142.161 180.792 142.373C182.266 143.053 186.273 135.797 187.421 130.756C187.762 129.26 188.042 127.925 188.269 126.728C186.916 127.104 185.51 127.199 184.447 127.199C183.346 127.199 182.217 127.097 181.27 126.913C179.835 126.634 178.997 126.222 178.468 125.535C178.114 125.074 177.853 124.47 177.663 123.879C177.189 124.531 176.253 125.869 175.203 127.657C175.16 127.632 175.116 127.608 175.073 127.584L175.124 127.791L172.698 132.551C172.699 132.545 173.628 129.075 174.251 127.12C167.653 123.394 161.503 119.771 158.694 119.169C158.695 119.155 158.696 119.138 158.697 119.122C156.858 118.827 154.872 118.861 153.356 118.847C148.905 118.689 146.968 113.028 146.968 113.028C146.857 112.422 146.788 111.685 146.747 110.899C155.359 107.728 161.639 97.8839 161.639 86.2277H161.638C161.638 86.1795 161.639 86.1326 161.639 86.0845C161.639 74.8492 152.295 65.7422 140.77 65.7422C129.244 65.7422 119.9 74.8492 119.9 86.0845C119.9 86.1326 119.902 86.1795 119.902 86.2277H119.9C119.9 97.6864 125.969 107.395 134.358 110.733C134.317 111.623 134.24 112.46 134.11 113.125C133.786 113.754 131.822 118.698 127.78 118.846C125.841 118.864 123.116 118.801 120.919 119.451C120.919 119.455 120.925 119.547 120.935 119.711C118.056 120.726 114.166 123.363 112.264 130.191C106.776 156.512 106.776 156.512 106.776 156.512C106.776 156.512 106.779 156.552 106.785 156.624C106.739 156.718 106.717 156.771 106.717 156.771C106.717 156.771 103.562 165.803 104.566 178.256C104.7 179.912 104.816 181.347 104.916 182.592C104.587 183.523 104.326 184.295 104.142 184.848C103.731 186.089 104.178 187.411 105.157 188.17C105.011 188.651 104.844 189.167 104.658 189.698C103.639 190.122 102.892 191.091 102.805 192.247C102.759 192.847 102.723 193.476 102.695 194.126C101.402 196.842 101.47 198.21 102.302 199.937C102.584 200.521 103.495 202.427 104.426 204.225C104.484 205.217 104.553 206.249 104.633 207.304C104.69 208.047 105.311 208.612 106.044 208.612C106.08 208.612 106.117 208.611 106.154 208.608C106.529 208.58 106.858 208.407 107.092 208.149C108.045 208.591 109.263 208.213 109.727 207.152C109.958 206.622 109.943 206.02 109.692 205.5C109.264 204.609 107.733 200.596 107.738 198.577C108.131 198.19 108.418 197.698 108.554 197.147C109.874 196.319 110.943 197.055 110.923 199.209C110.901 201.642 110.253 205.362 113.222 204.631C115.414 204.091 114.977 198.808 115.222 195.63C115.418 193.082 115.489 190.204 114.406 188.258C115.061 185.053 116.698 176.47 117.235 168.226C117.699 167.817 118.041 167.267 118.182 166.635C118.297 166.12 118.399 165.591 118.488 165.062C118.598 164.404 118.654 163.704 118.654 162.982C118.654 162.604 118.639 162.213 118.608 161.819C118.536 160.872 118.021 160.051 117.278 159.553C117.191 158.402 117.056 157.313 116.865 156.311C117.683 153.96 118.526 151.59 119.357 149.286C120.355 151.456 121.918 153.192 124.075 154.538C124.217 155.391 124.401 156.536 124.584 157.808C124.648 158.255 124.713 158.717 124.774 159.186L125.084 161.817C125.136 162.325 125.183 162.83 125.22 163.319C125.233 163.322 125.247 163.324 125.262 163.327L125.446 166.497C125.436 169.305 125.135 171.718 124.277 172.776C123.638 173.562 122.851 174.964 122.018 176.649C118.807 182.174 116.341 189.992 116.212 190.461C113.456 200.385 118.544 229.941 118.544 229.941H138.255L139.524 207.229C139.558 206.623 140.06 206.149 140.666 206.149C141.272 206.149 141.775 206.623 141.808 207.229L143.077 229.941H162.789C162.789 229.941 167.876 200.385 165.121 190.461C165.039 190.186 162.154 181.334 159.148 176.295ZM130.858 98.4123C133.596 99.6888 137.122 100.458 140.971 100.458C144.82 100.458 148.346 99.6888 151.084 98.4123C149.19 101.832 145.373 104.17 140.971 104.17C136.569 104.17 132.753 101.832 130.858 98.4123ZM104.384 192.366C104.441 191.622 105.06 191.056 105.795 191.056C105.831 191.056 105.868 191.057 105.903 191.06C106.684 191.119 107.269 191.799 107.21 192.58C107.121 193.763 107.066 195.067 107.049 196.455C107.039 197.231 106.407 197.855 105.633 197.855C105.627 197.855 105.621 197.855 105.615 197.855C104.832 197.845 104.206 197.203 104.215 196.42C104.233 194.973 104.29 193.609 104.384 192.366ZM117.021 161.94C117.049 162.295 117.062 162.645 117.062 162.983C117.062 163.618 117.014 164.23 116.919 164.802C116.835 165.304 116.738 165.804 116.63 166.291C116.483 166.951 115.897 167.399 115.249 167.399C115.146 167.399 115.043 167.388 114.939 167.365C114.175 167.194 113.694 166.436 113.865 165.673C113.962 165.238 114.05 164.788 114.125 164.336C114.196 163.918 114.23 163.462 114.23 162.983C114.23 162.718 114.219 162.439 114.198 162.156C114.139 161.376 114.723 160.695 115.503 160.635C115.54 160.633 115.577 160.632 115.613 160.632C116.344 160.63 116.965 161.196 117.021 161.94ZM108.335 186.238C108.138 186.833 107.585 187.209 106.991 187.209C106.843 187.209 106.692 187.186 106.545 187.137C105.802 186.891 105.4 186.089 105.647 185.345C105.923 184.513 106.378 183.179 106.975 181.553C107.186 180.98 107.728 180.625 108.306 180.625C108.469 180.625 108.633 180.653 108.795 180.712C109.529 180.983 109.906 181.796 109.635 182.532C109.049 184.122 108.605 185.426 108.335 186.238ZM111.555 150.632C111.765 150.521 111.991 150.469 112.213 150.469C112.723 150.469 113.215 150.744 113.469 151.227C114.129 152.484 114.714 153.737 115.207 154.953C115.501 155.678 115.151 156.505 114.427 156.798C114.252 156.869 114.071 156.903 113.894 156.903C113.334 156.903 112.804 156.57 112.581 156.018C112.123 154.889 111.577 153.72 110.96 152.546C110.596 151.853 110.863 150.996 111.555 150.632ZM112.133 176.296C111.899 176.827 111.38 177.142 110.835 177.142C110.644 177.142 110.45 177.104 110.265 177.021C109.549 176.705 109.224 175.869 109.539 175.153C109.86 174.424 110.184 173.719 110.5 173.057L110.596 172.855L110.75 172.692C110.75 172.692 111.1 172.309 111.577 171.54C111.845 171.108 112.309 170.869 112.783 170.869C113.039 170.869 113.297 170.939 113.529 171.083C114.194 171.495 114.398 172.369 113.986 173.035C113.548 173.742 113.178 174.211 112.974 174.453C112.697 175.04 112.414 175.658 112.133 176.296ZM120.531 145.431C119.694 140.663 123.234 135.116 125.308 132.355L127.233 121.406C127.943 121.342 128.767 121.262 129.158 121.204C129.302 121.183 129.432 121.143 129.547 121.095L129.507 121.978C129.507 121.978 129.433 131.711 129.458 131.86C129.984 135.124 131.588 139.462 139.532 139.883C139.528 139.841 139.525 139.801 139.524 139.757C139.523 139.72 139.52 139.683 139.522 139.645C139.52 139.608 139.516 139.571 139.513 139.534C139.502 139.384 139.511 139.226 139.491 139.072C139.485 138.993 139.479 138.914 139.472 138.835C139.462 138.756 139.445 138.68 139.433 138.599C139.413 138.439 139.36 138.287 139.313 138.131C139.292 138.052 139.258 137.98 139.228 137.903C139.197 137.828 139.17 137.75 139.137 137.676C139.064 137.53 139.002 137.377 138.919 137.235C138.767 136.944 138.586 136.669 138.398 136.404C138.208 136.143 138.005 135.898 137.797 135.674C137.59 135.45 137.381 135.244 137.176 135.066C136.972 134.886 136.779 134.725 136.601 134.59C136.422 134.454 136.261 134.341 136.128 134.249C135.858 134.067 135.697 133.977 135.697 133.977L135.771 133.763C135.771 133.763 135.784 133.765 135.806 133.769C135.829 133.774 135.864 133.78 135.91 133.788C136 133.806 136.129 133.838 136.293 133.882C136.458 133.927 136.656 133.987 136.88 134.07C137.103 134.153 137.356 134.249 137.623 134.379C137.892 134.504 138.176 134.659 138.471 134.839C138.767 135.018 139.064 135.235 139.364 135.477C139.655 135.728 139.954 136.001 140.218 136.32C140.357 136.474 140.478 136.646 140.606 136.815C140.667 136.902 140.723 136.992 140.782 137.082C140.833 137.164 140.887 137.243 140.934 137.327C140.981 137.243 141.034 137.162 141.086 137.082C141.145 136.993 141.199 136.902 141.262 136.815C141.39 136.646 141.511 136.474 141.65 136.32C141.913 136.001 142.213 135.728 142.504 135.477C142.804 135.235 143.102 135.018 143.397 134.839C143.692 134.66 143.976 134.504 144.245 134.379C144.512 134.249 144.765 134.153 144.988 134.07C145.212 133.988 145.41 133.927 145.575 133.882C145.739 133.838 145.868 133.807 145.958 133.788C146.004 133.78 146.039 133.772 146.062 133.769C146.086 133.765 146.097 133.763 146.097 133.763L146.171 133.977C146.171 133.977 146.01 134.067 145.74 134.249C145.607 134.341 145.445 134.454 145.267 134.59C145.089 134.725 144.894 134.886 144.692 135.066C144.487 135.244 144.278 135.45 144.071 135.674C143.865 135.898 143.661 136.143 143.47 136.404C143.283 136.669 143.101 136.943 142.949 137.235C142.866 137.377 142.804 137.53 142.731 137.676C142.697 137.75 142.671 137.828 142.64 137.903C142.612 137.98 142.577 138.052 142.555 138.131C142.508 138.287 142.456 138.439 142.435 138.599C142.423 138.678 142.406 138.756 142.396 138.835C142.39 138.914 142.383 138.993 142.377 139.072C142.356 139.225 142.366 139.384 142.355 139.534C142.352 139.571 142.349 139.608 142.346 139.645C142.348 139.683 142.345 139.72 142.344 139.757C142.344 139.793 142.341 139.829 142.339 139.865C150.858 139.187 151.153 131.695 151.174 131.608V123.842L151.051 120.93C151.6 121.146 152.867 121.166 153.321 121.166C153.354 121.166 153.383 121.166 153.406 121.166L155.391 132.48C157.475 135.281 160.899 140.734 160.074 145.431C159.495 148.73 157.912 151.052 155.198 152.699C154.865 152.962 154.638 153.326 154.564 153.732C154.545 153.841 154.294 155.212 154 157.115C150.379 157.695 145.713 158.312 140.406 158.312C136.266 158.312 131.738 157.937 127.012 156.875C126.735 155.097 126.505 153.836 126.485 153.732C126.427 153.416 126.319 153.262 126.136 153.115C122.977 151.449 121.16 149.017 120.531 145.431ZM162.922 213.681C162.274 219.715 161.447 225.192 161.021 227.867H145.035L143.876 207.115C143.781 205.41 142.369 204.075 140.661 204.075C138.954 204.075 137.542 205.411 137.447 207.115L136.287 227.867H120.302C119.876 225.192 119.049 219.715 118.4 213.681C117.218 202.659 117.15 194.823 118.205 191.02C118.225 190.95 120.408 183.891 123.343 178.516C127.037 179.026 133.299 179.688 140.915 179.688C146.746 179.688 152.496 179.305 158.033 178.551C160.474 183.134 162.808 190.014 163.118 191.034C164.172 194.845 164.103 202.675 162.922 213.681Z" fill="#FF003B"/>
<path d="M175.435 201.592C174.653 201.551 173.987 202.152 173.946 202.934C173.882 204.179 173.795 205.499 173.692 206.858C173.632 207.638 174.216 208.32 174.997 208.379C175.034 208.382 175.069 208.383 175.106 208.383C175.84 208.383 176.461 207.817 176.517 207.073C176.624 205.69 176.71 204.347 176.775 203.079C176.817 202.299 176.216 201.633 175.435 201.592Z" fill="#FF003B"/>
<path d="M175.245 190.832C174.465 190.891 173.879 191.572 173.939 192.352C174.028 193.536 174.082 194.839 174.099 196.227C174.109 197.003 174.741 197.627 175.516 197.627C175.523 197.627 175.529 197.627 175.535 197.627C176.318 197.617 176.944 196.975 176.934 196.192C176.915 194.746 176.858 193.383 176.765 192.139C176.705 191.358 176.026 190.774 175.245 190.832Z" fill="#FF003B"/>
<path d="M174.629 212.332C173.851 212.249 173.153 212.813 173.07 213.59L173.055 213.73C172.923 214.961 172.777 216.234 172.622 217.514C172.528 218.29 173.081 218.996 173.859 219.091C173.917 219.099 173.973 219.101 174.03 219.101C174.736 219.101 175.349 218.574 175.435 217.854C175.592 216.562 175.739 215.276 175.872 214.032L175.887 213.892C175.971 213.114 175.408 212.415 174.629 212.332Z" fill="#FF003B"/>
<path d="M171.609 174.928C171.288 174.198 170.965 173.493 170.649 172.832L170.559 172.637L170.404 172.474C170.401 172.47 170.05 172.087 169.571 171.314C169.159 170.649 168.285 170.445 167.619 170.858C166.954 171.27 166.75 172.144 167.162 172.809C167.601 173.517 167.97 173.986 168.175 174.228C168.451 174.813 168.734 175.432 169.015 176.07C169.249 176.601 169.768 176.915 170.313 176.915C170.504 176.915 170.698 176.877 170.883 176.794C171.6 176.481 171.925 175.644 171.609 174.928Z" fill="#FF003B"/>
<path d="M167.68 151C167.02 152.257 166.435 153.51 165.942 154.726C165.648 155.451 165.998 156.278 166.722 156.572C166.896 156.642 167.078 156.676 167.254 156.676C167.814 156.676 168.344 156.342 168.568 155.791C169.026 154.662 169.571 153.493 170.189 152.319C170.553 151.626 170.286 150.769 169.594 150.405C168.902 150.041 168.044 150.308 167.68 151Z" fill="#FF003B"/>
<path d="M173.338 223.026C172.562 222.916 171.845 223.454 171.734 224.228C171.545 225.549 171.35 226.864 171.153 228.137C171.033 228.91 171.562 229.634 172.335 229.755C172.409 229.766 172.482 229.773 172.555 229.773C173.241 229.773 173.845 229.273 173.954 228.573C174.154 227.289 174.351 225.962 174.54 224.63C174.651 223.854 174.113 223.137 173.338 223.026Z" fill="#FF003B"/>
<path d="M172.356 180.486C171.621 180.756 171.245 181.57 171.515 182.306C172.1 183.897 172.544 185.199 172.814 186.012C173.012 186.607 173.565 186.983 174.158 186.983C174.307 186.983 174.457 186.96 174.604 186.91C175.347 186.665 175.75 185.862 175.503 185.119C175.228 184.287 174.772 182.954 174.174 181.327C173.905 180.592 173.091 180.216 172.356 180.486Z" fill="#FF003B"/>
<path d="M167.286 165.448C167.188 165.013 167.101 164.563 167.025 164.111C166.955 163.692 166.92 163.237 166.92 162.758C166.92 162.493 166.931 162.214 166.952 161.931C167.012 161.151 166.428 160.47 165.648 160.41C164.867 160.351 164.186 160.935 164.127 161.715C164.1 162.07 164.086 162.42 164.086 162.758C164.086 163.393 164.134 164.004 164.23 164.577C164.314 165.079 164.412 165.579 164.519 166.066C164.666 166.726 165.251 167.174 165.901 167.174C166.003 167.174 166.107 167.163 166.211 167.14C166.975 166.969 167.456 166.213 167.286 165.448Z" fill="#FF003B"/>
<path d="M107.291 219.318C108.067 219.224 108.621 218.518 108.527 217.74C108.372 216.46 108.226 215.187 108.094 213.957L108.079 213.817C107.997 213.039 107.298 212.475 106.52 212.559C105.742 212.642 105.178 213.341 105.261 214.118L105.276 214.259C105.409 215.502 105.556 216.788 105.713 218.081C105.8 218.8 106.412 219.328 107.118 219.328C107.174 219.329 107.232 219.325 107.291 219.318Z" fill="#FF003B"/>
<path d="M109.414 224.455C109.303 223.68 108.586 223.142 107.811 223.253C107.035 223.364 106.497 224.081 106.608 224.856C106.798 226.188 106.996 227.516 107.195 228.799C107.303 229.499 107.907 229.999 108.593 229.999C108.666 229.999 108.739 229.994 108.813 229.982C109.586 229.862 110.116 229.138 109.996 228.364C109.798 227.091 109.602 225.776 109.414 224.455Z" fill="#FF003B"/>
<path d="M103.386 164.435L94.4967 155.545C94.1448 155.193 93.5733 155.193 93.2214 155.545L91.4499 157.317C91.0981 157.668 91.0981 158.24 91.4499 158.592L95.7769 162.919H75.9012C75.4037 162.919 75 163.323 75 163.82V166.325C75 166.822 75.4037 167.226 75.9012 167.226H95.7769L91.4499 171.553C91.0981 171.905 91.0981 172.476 91.4499 172.828L93.2214 174.6C93.5733 174.952 94.1448 174.952 94.4967 174.6L103.386 165.71C103.738 165.357 103.738 164.787 103.386 164.435Z" fill="#FF003B"/>
<path d="M204.794 162.919H184.918L189.245 158.592C189.597 158.24 189.597 157.668 189.245 157.317L187.474 155.545C187.122 155.193 186.55 155.193 186.199 155.545L177.309 164.435C176.957 164.787 176.957 165.358 177.309 165.71L186.199 174.6C186.55 174.952 187.122 174.952 187.474 174.6L189.245 172.828C189.597 172.476 189.597 171.905 189.245 171.553L184.918 167.226H204.794C205.292 167.226 205.695 166.822 205.695 166.325V163.82C205.695 163.323 205.292 162.919 204.794 162.919Z" fill="#FF003B"/>
</svg>
